<?xml version="1.0" encoding="UTF-8" standalone="no"?>
<!DOCTYPE svg PUBLIC "-//W3C//DTD SVG 1.1//EN" "http://www.w3.org/Graphics/SVG/1.1/DTD/svg11.dtd">
<svg width="100%" height="100%" viewBox="0 0 16 16" version="1.1" xmlns="http://www.w3.org/2000/svg" xmlns:xlink="http://www.w3.org/1999/xlink" xml:space="preserve" xmlns:serif="http://www.serif.com/" style="fill-rule:evenodd;clip-rule:evenodd;stroke-linejoin:round;stroke-miterlimit:2;">
    <g transform="matrix(1,0,0,1,0.347894,0.719796)">
        <path d="M7.652,1.438C8.66,1.401 9.67,1.429 10.674,1.523C11.161,1.516 11.645,1.602 12.101,1.774C12.73,2.067 13.235,2.572 13.528,3.201C13.701,3.657 13.786,4.141 13.78,4.629C13.78,5.384 13.865,5.636 13.865,7.651C13.902,8.659 13.874,9.668 13.78,10.673C13.787,11.16 13.701,11.644 13.529,12.1C13.236,12.728 12.731,13.234 12.102,13.527C11.646,13.699 11.162,13.784 10.675,13.778C9.92,13.778 9.668,13.862 7.653,13.862C6.645,13.9 5.636,13.872 4.631,13.778C4.144,13.784 3.66,13.699 3.204,13.527C2.576,13.234 2.07,12.728 1.777,12.1C1.604,11.644 1.518,11.16 1.524,10.673C1.524,9.917 1.44,9.666 1.44,7.651C1.402,6.643 1.43,5.633 1.524,4.629C1.518,4.142 1.603,3.658 1.775,3.202C1.922,2.891 2.121,2.607 2.364,2.362C2.561,2.069 2.86,1.86 3.203,1.775C3.659,1.602 4.143,1.517 4.63,1.523C5.635,1.429 6.644,1.401 7.652,1.438ZM7.652,0.096C6.616,0.059 5.579,0.087 4.546,0.18C3.915,0.178 3.289,0.292 2.699,0.516C2.19,0.682 1.729,0.97 1.357,1.355C0.971,1.728 0.683,2.189 0.517,2.698C0.253,3.276 0.138,3.911 0.181,4.545C0.088,5.577 0.06,6.615 0.097,7.651C0.06,8.687 0.088,9.724 0.181,10.757C0.18,11.388 0.293,12.014 0.517,12.604C0.683,13.113 0.971,13.574 1.357,13.946C1.729,14.332 2.19,14.62 2.699,14.786C3.289,15.009 3.915,15.123 4.546,15.122C5.579,15.215 6.616,15.243 7.652,15.206C8.688,15.243 9.726,15.215 10.758,15.122C11.389,15.123 12.015,15.009 12.605,14.786C13.111,14.612 13.57,14.325 13.948,13.947C14.326,13.569 14.613,13.109 14.787,12.604C15.011,12.014 15.124,11.388 15.123,10.757C15.123,9.917 15.207,9.666 15.207,7.651C15.244,6.615 15.216,5.577 15.123,4.545C15.124,3.914 15.011,3.288 14.787,2.698C14.621,2.189 14.333,1.728 13.948,1.355C13.575,0.97 13.114,0.682 12.605,0.516C12.015,0.292 11.389,0.178 10.758,0.18C9.726,0.087 8.688,0.059 7.652,0.096ZM7.652,3.789C7.143,3.781 6.637,3.875 6.164,4.066C5.692,4.257 5.263,4.541 4.903,4.901C4.542,5.262 4.258,5.691 4.067,6.163C3.876,6.635 3.782,7.141 3.79,7.651C3.79,8.415 4.017,9.161 4.441,9.796C4.866,10.431 5.469,10.926 6.174,11.219C6.88,11.511 7.656,11.587 8.405,11.438C9.155,11.289 9.843,10.922 10.383,10.382C10.923,9.841 11.291,9.153 11.44,8.404C11.589,7.655 11.512,6.879 11.22,6.173C10.928,5.467 10.433,4.864 9.798,4.44C9.163,4.016 8.416,3.789 7.652,3.789ZM7.652,10.169C7.32,10.175 6.99,10.114 6.681,9.989C6.373,9.865 6.093,9.68 5.858,9.445C5.623,9.21 5.438,8.93 5.314,8.622C5.189,8.313 5.128,7.983 5.134,7.651C5.128,7.319 5.189,6.988 5.314,6.68C5.438,6.372 5.623,6.092 5.858,5.857C6.093,5.622 6.373,5.437 6.681,5.312C6.99,5.188 7.32,5.127 7.652,5.133C7.984,5.127 8.315,5.188 8.623,5.312C8.931,5.437 9.211,5.622 9.446,5.857C9.681,6.092 9.866,6.372 9.991,6.68C10.115,6.988 10.176,7.319 10.17,7.651C10.176,7.983 10.115,8.313 9.991,8.622C9.866,8.93 9.681,9.21 9.446,9.445C9.211,9.68 8.931,9.865 8.623,9.989C8.315,10.114 7.984,10.175 7.652,10.169ZM11.681,2.698C11.498,2.698 11.32,2.752 11.168,2.854C11.016,2.955 10.898,3.099 10.828,3.268C10.758,3.437 10.739,3.623 10.775,3.802C10.811,3.981 10.899,4.146 11.028,4.275C11.157,4.404 11.322,4.492 11.501,4.528C11.68,4.564 11.866,4.545 12.035,4.475C12.204,4.405 12.348,4.287 12.449,4.135C12.551,3.983 12.605,3.805 12.605,3.622C12.603,3.377 12.505,3.144 12.332,2.971C12.159,2.798 11.926,2.7 11.681,2.698Z" style="fill:rgb(48,60,72);"/>
    </g>
</svg>
