<?xml version="1.0" encoding="UTF-8" standalone="no"?>
<!DOCTYPE svg PUBLIC "-//W3C//DTD SVG 1.1//EN" "http://www.w3.org/Graphics/SVG/1.1/DTD/svg11.dtd">
<svg width="100%" height="100%" viewBox="0 0 67 66" version="1.1" xmlns="http://www.w3.org/2000/svg" xmlns:xlink="http://www.w3.org/1999/xlink" xml:space="preserve" xmlns:serif="http://www.serif.com/" style="fill-rule:evenodd;clip-rule:evenodd;stroke-linejoin:round;stroke-miterlimit:2;">
    <path d="M33.5,0C51.713,0 66.5,14.787 66.5,33C66.5,51.213 51.713,66 33.5,66C15.287,66 0.5,51.213 0.5,33C0.5,14.787 15.287,0 33.5,0ZM45.723,35.863L41,27.326C40.85,27.058 40.568,26.889 40.259,26.889L39.552,26.889C38.855,27.586 38.126,28.141 37.435,28.582L39.761,28.582L43.549,35.426L24.133,35.426L27.921,28.582L30.246,28.582C29.556,28.141 28.827,27.586 28.13,26.889L27.423,26.889C27.114,26.889 26.831,27.058 26.682,27.326L21.959,35.863C21.889,35.988 21.853,36.129 21.853,36.272L21.853,46.052C21.853,47.417 22.963,48.529 24.329,48.529L43.353,48.529C44.719,48.529 45.83,47.418 45.83,46.052L45.83,36.272C45.829,36.129 45.793,35.988 45.723,35.863ZM34.399,45.758L34.399,47.023L33.184,47.023L33.184,45.844C32.353,45.807 31.546,45.583 31.075,45.311L31.448,43.859C31.968,44.144 32.7,44.404 33.507,44.404C34.213,44.404 34.698,44.132 34.698,43.635C34.698,43.165 34.301,42.866 33.383,42.556C32.055,42.109 31.149,41.49 31.149,40.287C31.149,39.195 31.918,38.338 33.246,38.077L33.246,36.9L34.462,36.9L34.462,37.99C35.292,38.029 35.85,38.202 36.26,38.4L35.901,39.802C35.578,39.665 35.007,39.38 34.114,39.38C33.308,39.38 33.046,39.728 33.046,40.075C33.046,40.484 33.48,40.744 34.535,41.142C36.011,41.663 36.606,42.345 36.606,43.462C36.607,44.567 35.825,45.51 34.399,45.758ZM37.704,31.12L29.977,31.12L29.307,32.599L38.374,32.599L37.704,31.12ZM33.841,28.846C33.841,28.846 28.039,27.398 26.38,21.438C25.549,18.457 27.427,15.888 29.37,15.6C31.723,15.252 32.74,16.253 33.84,17.249C34.94,16.253 35.957,15.252 38.31,15.6C40.253,15.889 42.131,18.457 41.3,21.438C39.642,27.399 33.841,28.846 33.841,28.846Z" style="fill:rgb(101,151,162);"/>
</svg>
