<?xml version="1.0" encoding="UTF-8" standalone="no"?>
<!DOCTYPE svg PUBLIC "-//W3C//DTD SVG 1.1//EN" "http://www.w3.org/Graphics/SVG/1.1/DTD/svg11.dtd">
<svg width="100%" height="100%" viewBox="0 0 24 24" version="1.1" xmlns="http://www.w3.org/2000/svg" xmlns:xlink="http://www.w3.org/1999/xlink" xml:space="preserve" xmlns:serif="http://www.serif.com/" style="fill-rule:evenodd;clip-rule:evenodd;stroke-linejoin:round;stroke-miterlimit:2;">
    <g transform="matrix(1,0,0,1,0.5,3.2295)">
        <path d="M11.5,0C5.16,0 0,3.31 0,7.38C0,11.449 5.16,14.759 11.5,14.759C12.421,14.759 13.348,14.686 14.255,14.541L14.977,14.425L15.375,15.038C15.908,15.857 16.208,16.705 16.273,17.541C17.363,16.873 18.553,15.715 18.563,13.845L18.565,13.198L19.127,12.876C21.589,11.461 23,9.457 23,7.38C23,3.31 17.841,0 11.5,0Z" style="fill:white;fill-rule:nonzero;"/>
    </g>
</svg>
