<?xml version="1.0" encoding="UTF-8" standalone="no"?>
<!DOCTYPE svg PUBLIC "-//W3C//DTD SVG 1.1//EN" "http://www.w3.org/Graphics/SVG/1.1/DTD/svg11.dtd">
<svg width="100%" height="100%" viewBox="0 0 32 32" version="1.1" xmlns="http://www.w3.org/2000/svg" xmlns:xlink="http://www.w3.org/1999/xlink" xml:space="preserve" xmlns:serif="http://www.serif.com/" style="fill-rule:evenodd;clip-rule:evenodd;">
    <g transform="matrix(1,0,0,1,3.57145,4.99999)">
        <path d="M12.429,1C6.116,1 1,5.159 1,10.286C1.016,11.378 1.249,12.457 1.686,13.459C2.123,14.461 2.755,15.365 3.545,16.121C3.052,17.708 2.217,19.168 1.098,20.397C1.05,20.448 1.018,20.512 1.006,20.581C0.994,20.65 1.003,20.721 1.032,20.785C1.059,20.85 1.104,20.904 1.162,20.942C1.22,20.981 1.288,21.001 1.357,21C3.648,20.961 5.859,20.153 7.634,18.705C9.167,19.28 10.791,19.573 12.429,19.571C18.741,19.571 23.857,15.415 23.857,10.286C23.857,5.156 18.741,1 12.429,1Z" style="fill:none;fill-rule:nonzero;stroke:rgb(109,144,90);stroke-width:2px;"/>
    </g>
</svg>
