<?xml version="1.0" encoding="UTF-8" standalone="no"?>
<!DOCTYPE svg PUBLIC "-//W3C//DTD SVG 1.1//EN" "http://www.w3.org/Graphics/SVG/1.1/DTD/svg11.dtd">
<svg width="100%" height="100%" viewBox="0 0 24 24" version="1.1" xmlns="http://www.w3.org/2000/svg" xmlns:xlink="http://www.w3.org/1999/xlink" xml:space="preserve" xmlns:serif="http://www.serif.com/" style="fill-rule:evenodd;clip-rule:evenodd;stroke-linejoin:round;stroke-miterlimit:2;">
    <g transform="matrix(1,0,0,1,1.17595,-0.0001)">
        <path d="M13.631,19.651L8.016,19.651C7.865,19.651 7.738,19.777 7.738,19.929L7.738,21.901C7.738,22.053 7.865,22.179 8.016,22.179L8.674,22.179C8.851,23.216 9.736,24 10.824,24C11.911,24 12.796,23.216 12.973,22.179L13.631,22.179C13.783,22.179 13.909,22.053 13.909,21.901L13.909,19.929C13.934,19.802 13.808,19.651 13.631,19.651Z" style="fill:rgb(246,185,41);fill-rule:nonzero;"/>
    </g>
    <g transform="matrix(1,0,0,1,1.17595,-0.0001)">
        <path d="M10.823,3.262C11.228,3.262 11.557,2.934 11.557,2.529L11.557,0.733C11.557,0.329 11.228,0 10.823,0C10.419,0 10.09,0.329 10.09,0.733L10.09,2.529C10.09,2.934 10.419,3.262 10.823,3.262Z" style="fill:rgb(246,185,41);fill-rule:nonzero;"/>
    </g>
    <g transform="matrix(1,0,0,1,1.17595,-0.0001)">
        <path d="M6.044,3.996C6.17,4.223 6.423,4.35 6.676,4.35C6.802,4.35 6.929,4.324 7.03,4.249C7.384,4.046 7.485,3.591 7.308,3.262L6.398,1.694C6.195,1.34 5.74,1.239 5.411,1.416C5.057,1.618 4.956,2.074 5.133,2.402L6.044,3.996Z" style="fill:rgb(246,185,41);fill-rule:nonzero;"/>
    </g>
    <g transform="matrix(1,0,0,1,1.17595,-0.0001)">
        <path d="M3.996,6.044L2.428,5.133C2.074,4.931 1.644,5.058 1.441,5.412C1.239,5.766 1.365,6.196 1.719,6.398L3.287,7.308C3.414,7.384 3.515,7.41 3.641,7.41C3.894,7.41 4.147,7.283 4.274,7.055C4.476,6.676 4.35,6.246 3.996,6.044Z" style="fill:rgb(246,185,41);fill-rule:nonzero;"/>
    </g>
    <g transform="matrix(1,0,0,1,1.17595,-0.0001)">
        <path d="M3.262,10.823C3.262,10.419 2.934,10.09 2.529,10.09L0.733,10.09C0.329,10.09 0,10.419 0,10.823C0,11.228 0.329,11.557 0.733,11.557L2.529,11.557C2.934,11.557 3.262,11.228 3.262,10.823Z" style="fill:rgb(246,185,41);fill-rule:nonzero;"/>
    </g>
    <g transform="matrix(1,0,0,1,1.17595,-0.0001)">
        <path d="M3.262,14.338L1.719,15.249C1.365,15.451 1.264,15.906 1.441,16.235C1.567,16.462 1.82,16.589 2.073,16.589C2.199,16.589 2.326,16.564 2.427,16.488L3.995,15.577C4.349,15.375 4.45,14.92 4.273,14.591C4.071,14.262 3.616,14.136 3.262,14.338Z" style="fill:rgb(246,185,41);fill-rule:nonzero;"/>
    </g>
    <g transform="matrix(1,0,0,1,1.17595,-0.0001)">
        <path d="M19.928,15.249L18.36,14.338C18.006,14.136 17.576,14.262 17.374,14.616C17.172,14.97 17.298,15.4 17.652,15.603L19.22,16.513C19.347,16.589 19.448,16.614 19.574,16.614C19.827,16.614 20.08,16.488 20.206,16.26C20.409,15.881 20.282,15.451 19.928,15.249Z" style="fill:rgb(246,185,41);fill-rule:nonzero;"/>
    </g>
    <g transform="matrix(1,0,0,1,1.17595,-0.0001)">
        <path d="M20.915,10.09L19.119,10.09C18.715,10.09 18.386,10.419 18.386,10.823C18.386,11.228 18.715,11.557 19.119,11.557L20.915,11.557C21.319,11.557 21.648,11.228 21.648,10.823C21.648,10.419 21.319,10.09 20.915,10.09Z" style="fill:rgb(246,185,41);fill-rule:nonzero;"/>
    </g>
    <g transform="matrix(1,0,0,1,1.17595,-0.0001)">
        <path d="M18.005,7.41C18.131,7.41 18.258,7.384 18.359,7.308L19.927,6.398C20.281,6.196 20.382,5.74 20.205,5.412C20.003,5.058 19.547,4.956 19.219,5.133L17.651,6.044C17.297,6.246 17.195,6.701 17.372,7.03C17.524,7.258 17.752,7.41 18.005,7.41Z" style="fill:rgb(246,185,41);fill-rule:nonzero;"/>
    </g>
    <g transform="matrix(1,0,0,1,1.17595,-0.0001)">
        <path d="M14.616,4.275C14.742,4.351 14.844,4.376 14.97,4.376C15.223,4.376 15.476,4.25 15.602,4.022L16.513,2.454C16.715,2.1 16.589,1.67 16.235,1.468C15.88,1.266 15.451,1.392 15.248,1.746L14.338,3.314C14.135,3.618 14.262,4.073 14.616,4.275Z" style="fill:rgb(246,185,41);fill-rule:nonzero;"/>
    </g>
    <g transform="matrix(1,0,0,1,1.17595,-0.0001)">
        <path d="M11.102,4.653C9.078,4.552 7.182,5.437 5.892,7.081C5.209,7.941 4.779,9.003 4.678,10.091C4.501,11.76 4.956,13.353 5.968,14.643C6.701,15.579 7.232,16.489 7.536,17.425L7.662,17.804C7.713,17.981 7.89,18.108 8.067,18.108L13.58,18.108C13.757,18.108 13.934,17.981 13.985,17.804L14.111,17.425C14.415,16.514 14.895,15.629 15.603,14.719C16.16,14.011 16.589,13.201 16.817,12.316C17.778,8.422 14.844,4.805 11.102,4.653ZM14.718,11.81C14.642,12.139 14.339,12.367 14.01,12.367C13.959,12.367 13.883,12.367 13.833,12.342C13.428,12.24 13.201,11.836 13.302,11.456C13.555,10.42 13.15,9.686 12.872,9.307C12.391,8.674 11.709,8.295 10.95,8.27C10.545,8.245 10.216,7.916 10.242,7.511C10.267,7.107 10.596,6.803 11,6.803C12.189,6.854 13.302,7.461 14.035,8.447C14.465,9.003 15.123,10.192 14.718,11.81Z" style="fill:rgb(246,185,41);fill-rule:nonzero;"/>
    </g>
</svg>
