<?xml version="1.0" encoding="UTF-8" standalone="no"?>
<!DOCTYPE svg PUBLIC "-//W3C//DTD SVG 1.1//EN" "http://www.w3.org/Graphics/SVG/1.1/DTD/svg11.dtd">
<svg width="100%" height="100%" viewBox="0 0 23 20" version="1.1" xmlns="http://www.w3.org/2000/svg" xmlns:xlink="http://www.w3.org/1999/xlink" xml:space="preserve" xmlns:serif="http://www.serif.com/" style="fill-rule:evenodd;clip-rule:evenodd;stroke-linejoin:round;stroke-miterlimit:2;">
    <path d="M14.666,11.111C14.666,11.814 14.458,12.502 14.067,13.087C13.677,13.671 13.121,14.127 12.472,14.396C11.822,14.665 11.107,14.736 10.417,14.599C9.728,14.461 9.094,14.123 8.597,13.625C8.1,13.128 7.761,12.495 7.624,11.805C7.487,11.115 7.557,10.4 7.826,9.751C8.095,9.101 8.551,8.546 9.136,8.155C9.72,7.764 10.408,7.556 11.111,7.556C12.054,7.556 12.958,7.93 13.625,8.597C14.292,9.264 14.666,10.168 14.666,11.111Z" style="fill:rgb(109,144,90);fill-rule:nonzero;"/>
    <path d="M7.778,0L5.744,2.222L2.222,2.222C1.633,2.224 1.069,2.459 0.653,2.875C0.236,3.291 0.002,3.856 0,4.444L0,17.778C0.002,18.367 0.236,18.931 0.653,19.347C1.069,19.764 1.633,19.998 2.222,20L20,20C20.589,19.998 21.153,19.764 21.569,19.347C21.986,18.931 22.221,18.367 22.222,17.778L22.222,4.444C22.221,3.856 21.986,3.291 21.569,2.875C21.153,2.459 20.589,2.224 20,2.222L16.478,2.222L14.444,0L7.778,0ZM11.111,16.667C10.012,16.667 8.938,16.341 8.025,15.73C7.111,15.12 6.399,14.252 5.978,13.237C5.558,12.222 5.448,11.105 5.662,10.027C5.877,8.95 6.406,7.96 7.183,7.183C7.96,6.406 8.95,5.877 10.027,5.662C11.105,5.448 12.222,5.558 13.237,5.978C14.252,6.399 15.12,7.111 15.73,8.025C16.341,8.938 16.667,10.012 16.667,11.111C16.667,12.585 16.081,13.998 15.04,15.04C13.998,16.081 12.585,16.667 11.111,16.667Z" style="fill:rgb(109,144,90);fill-rule:nonzero;"/>
</svg>
