<?xml version="1.0" encoding="UTF-8" standalone="no"?>
<!DOCTYPE svg PUBLIC "-//W3C//DTD SVG 1.1//EN" "http://www.w3.org/Graphics/SVG/1.1/DTD/svg11.dtd">
<svg width="100%" height="100%" viewBox="0 0 24 24" version="1.1" xmlns="http://www.w3.org/2000/svg" xmlns:xlink="http://www.w3.org/1999/xlink" xml:space="preserve" xmlns:serif="http://www.serif.com/" style="fill-rule:evenodd;clip-rule:evenodd;stroke-linejoin:round;stroke-miterlimit:2;">
    <g transform="matrix(1,0,0,1,1.50117,2)">
        <path d="M14.688,10.217C16.118,10.013 17.906,9.323 19.209,8.046C20.409,6.845 21.023,5.313 20.997,3.602C20.971,1.584 20.129,0.868 19.439,0.613C18.264,0.179 16.782,0.843 15.837,1.507C15.71,1.022 15.556,0.562 15.403,0.204C13.922,0.077 12.236,0 10.499,0C8.762,0 7.076,0.077 5.595,0.204C5.416,0.562 5.288,0.996 5.16,1.507C4.215,0.843 2.734,0.179 1.559,0.613C0.869,0.868 0.026,1.584 0.001,3.602C-0.025,5.313 0.588,6.871 1.789,8.046C3.091,9.323 4.879,10.013 6.31,10.217C7.28,11.775 8.507,13.078 9.426,13.768C9.63,14.968 9.477,16.909 8.174,17.65C6.667,17.854 5.671,18.289 5.671,18.748C5.671,19.438 7.842,20 10.524,20C13.206,20 15.378,19.438 15.378,18.748C15.378,18.263 14.356,17.854 12.874,17.65C11.572,16.935 11.418,14.994 11.623,13.768C12.491,13.078 13.717,11.775 14.688,10.217ZM19.056,1.609C19.592,1.814 19.899,2.478 19.899,3.602C19.924,5.032 19.439,6.284 18.417,7.254C17.574,8.097 16.399,8.659 15.352,8.966C15.914,7.791 16.297,6.539 16.297,5.287C16.297,5.109 16.297,4.93 16.272,4.751C16.246,4.138 16.169,3.372 16.042,2.631C16.731,2.095 18.187,1.303 19.056,1.609ZM2.504,7.28C1.508,6.284 0.997,5.057 1.022,3.627C1.048,2.503 1.329,1.839 1.865,1.635C2.734,1.303 4.19,2.095 4.854,2.682C4.726,3.423 4.65,4.189 4.624,4.802C4.624,4.981 4.598,5.16 4.598,5.338C4.598,6.59 4.982,7.842 5.544,9.017C4.496,8.685 3.347,8.123 2.504,7.28Z" style="fill:rgb(39,94,135);fill-rule:nonzero;"/>
    </g>
</svg>
