<?xml version="1.0" encoding="UTF-8" standalone="no"?>
<!DOCTYPE svg PUBLIC "-//W3C//DTD SVG 1.1//EN" "http://www.w3.org/Graphics/SVG/1.1/DTD/svg11.dtd">
<svg width="100%" height="100%" viewBox="0 0 16 16" version="1.1" xmlns="http://www.w3.org/2000/svg" xmlns:xlink="http://www.w3.org/1999/xlink" xml:space="preserve" xmlns:serif="http://www.serif.com/" style="fill-rule:evenodd;clip-rule:evenodd;stroke-linejoin:round;stroke-miterlimit:2;">
    <g transform="matrix(0.941176,0,0,0.941176,1.88236,7.51088e-08)">
        <path d="M5.345,11.243C4.905,13.584 4.37,15.828 2.781,17C2.294,13.462 3.501,10.806 4.063,7.986C3.105,6.346 4.178,3.046 6.198,3.86C8.684,4.859 4.046,9.956 7.159,10.593C10.41,11.255 11.737,4.856 9.721,2.774C6.809,-0.234 1.243,2.703 1.928,7.008C2.094,8.061 3.163,8.38 2.355,9.832C0.491,9.412 -0.066,7.916 0.006,5.92C0.121,2.658 2.888,0.374 5.664,0.057C9.174,-0.343 12.469,1.369 12.923,4.727C13.437,8.518 11.34,12.626 7.587,12.33C6.569,12.249 6.143,11.736 5.345,11.243L5.345,11.243Z" style="fill:white;fill-rule:nonzero;"/>
    </g>
</svg>
