<svg width="16" height="16" viewBox="0 0 16 16" fill="none" xmlns="http://www.w3.org/2000/svg">
  <path d="M4.47914 14.968C4.01282 15.1 3.5465 14.8095 3.40935 14.3605L0.0353787 2.13304C-0.101774 1.68408 0.172532 1.20871 0.638852 1.10307C1.10517 0.971026 1.57149 1.23512 1.70865 1.71049L5.08261 13.9644C5.21977 14.387 4.94546 14.8623 4.47914 14.968ZM14.9302 5.17011C14.2719 6.30571 12.1597 7.83745 9.5538 7.17722C7.13991 6.5698 5.38435 7.49413 4.67115 9.60687C4.67115 9.60687 2.66872 2.66122 2.50413 2.08022C2.72358 1.71049 4.83574 -1.43222 8.45658 0.786161C12.0774 2.97813 14.4365 4.56269 16 1.92176C15.9726 1.89535 15.5885 4.03451 14.9302 5.17011Z" fill="#60626E"/>
</svg>
