<?xml version="1.0" encoding="UTF-8" standalone="no"?>
<!DOCTYPE svg PUBLIC "-//W3C//DTD SVG 1.1//EN" "http://www.w3.org/Graphics/SVG/1.1/DTD/svg11.dtd">
<svg width="100%" height="100%" viewBox="0 0 24 24" version="1.1" xmlns="http://www.w3.org/2000/svg" xmlns:xlink="http://www.w3.org/1999/xlink" xml:space="preserve" xmlns:serif="http://www.serif.com/" style="fill-rule:evenodd;clip-rule:evenodd;stroke-linejoin:round;stroke-miterlimit:2;">
    <g transform="matrix(1,0,0,1,3.5,0)">
        <path d="M16.815,14.385C16.815,13.502 16.109,12.795 15.226,12.795C14.67,12.795 14.166,13.098 13.888,13.552L13.888,13.502C13.888,12.618 13.181,11.912 12.298,11.912C11.743,11.912 11.238,12.214 10.961,12.644L10.961,12.593C10.961,11.71 10.254,11.003 9.371,11.003C8.815,11.003 8.311,11.306 8.033,11.735L8.033,6.461C8.033,6.032 7.856,5.628 7.579,5.325C7.276,5.022 6.872,4.871 6.468,4.871C5.585,4.871 4.878,5.577 4.878,6.461L4.878,16.252C4.878,16.353 4.828,16.429 4.752,16.454C4.677,16.48 4.576,16.48 4.525,16.404L2.91,14.814C2.355,14.284 1.522,14.183 0.866,14.612C0.487,14.864 0.235,15.268 0.184,15.722C0.109,16.177 0.26,16.631 0.538,16.984L4.55,21.83C5.686,23.193 7.352,24 9.143,24L11.642,24C13.03,24 14.342,23.445 15.326,22.461C16.311,21.476 16.866,20.164 16.866,18.776L16.815,14.385Z" style="fill:white;fill-rule:nonzero;"/>
    </g>
    <g transform="matrix(1,0,0,1,3.5,0)">
        <path d="M6.427,3.331C6.831,3.331 7.159,3.003 7.159,2.599L7.159,0.732C7.159,0.328 6.831,0 6.427,0C6.023,0 5.695,0.328 5.695,0.732L5.695,2.599C5.695,3.003 6.023,3.331 6.427,3.331Z" style="fill:white;fill-rule:nonzero;"/>
    </g>
    <g transform="matrix(1,0,0,1,3.5,0)">
        <path d="M3.209,4.24C3.36,4.391 3.537,4.442 3.714,4.442C3.89,4.442 4.092,4.366 4.218,4.24C4.496,3.962 4.496,3.483 4.218,3.205L2.906,1.893C2.628,1.615 2.149,1.615 1.871,1.893C1.594,2.17 1.594,2.65 1.871,2.928L3.209,4.24Z" style="fill:white;fill-rule:nonzero;"/>
    </g>
    <g transform="matrix(1,0,0,1,3.5,0)">
        <path d="M0.707,7.193L2.599,7.193C3.003,7.193 3.331,6.865 3.331,6.461C3.331,6.057 3.003,5.729 2.599,5.729L0.732,5.729C0.328,5.729 0,6.057 0,6.461C0,6.865 0.328,7.193 0.707,7.193Z" style="fill:white;fill-rule:nonzero;"/>
    </g>
    <g transform="matrix(1,0,0,1,3.5,0)">
        <path d="M9.563,6.461C9.563,6.865 9.892,7.193 10.295,7.193L12.163,7.193C12.567,7.193 12.895,6.865 12.895,6.461C12.895,6.057 12.567,5.729 12.163,5.729L10.295,5.729C9.892,5.729 9.563,6.057 9.563,6.461Z" style="fill:white;fill-rule:nonzero;"/>
    </g>
    <g transform="matrix(1,0,0,1,3.5,0)">
        <path d="M9.15,4.467C9.327,4.467 9.529,4.391 9.655,4.265L10.968,2.952C11.245,2.675 11.245,2.195 10.968,1.918C10.69,1.64 10.21,1.64 9.933,1.918L8.646,3.205C8.368,3.482 8.368,3.962 8.646,4.24C8.797,4.391 8.974,4.467 9.15,4.467Z" style="fill:white;fill-rule:nonzero;"/>
    </g>
</svg>
