<?xml version="1.0" encoding="UTF-8" standalone="no"?>
<!DOCTYPE svg PUBLIC "-//W3C//DTD SVG 1.1//EN" "http://www.w3.org/Graphics/SVG/1.1/DTD/svg11.dtd">
<svg width="100%" height="100%" viewBox="0 0 124 124" version="1.1" xmlns="http://www.w3.org/2000/svg" xmlns:xlink="http://www.w3.org/1999/xlink" xml:space="preserve" xmlns:serif="http://www.serif.com/" style="fill-rule:evenodd;clip-rule:evenodd;stroke-linejoin:round;stroke-miterlimit:2;">
    <g transform="matrix(1,0,0,1,9,16)">
        <path d="M102.336,51.828L102.336,65.483C102.336,70.603 102.348,75.71 102.336,80.829L102.336,81.147C102.336,81.257 102.324,81.38 102.324,81.49C102.324,81.564 102.238,82.262 102.299,81.845C102.213,82.384 102.091,82.923 101.907,83.45C101.87,83.548 101.834,83.658 101.797,83.756C101.626,84.246 101.968,83.45 101.723,83.915C101.577,84.197 101.43,84.491 101.27,84.772C101.136,85.005 100.976,85.226 100.817,85.434C101.038,85.14 100.572,85.715 100.499,85.801C100.315,85.997 100.131,86.181 99.935,86.364C99.813,86.475 99.691,86.573 99.568,86.683C99.25,86.952 99.752,86.573 99.433,86.781C98.956,87.099 98.49,87.381 97.976,87.626C97.694,87.761 98.38,87.491 97.89,87.663C97.731,87.724 97.584,87.773 97.425,87.822C97.106,87.92 96.788,88.006 96.47,88.079C96.359,88.104 96.249,88.116 96.139,88.14C95.6,88.238 96.506,88.128 95.955,88.165C95.674,88.189 95.392,88.202 95.098,88.202C94.816,88.202 94.534,88.177 94.241,88.165C93.702,88.14 94.596,88.251 94.057,88.14C93.898,88.104 93.726,88.079 93.567,88.042C93.298,87.981 93.04,87.908 92.771,87.822C92.661,87.785 91.963,87.503 92.293,87.65C91.754,87.405 91.252,87.099 90.762,86.769C90.334,86.487 91.02,87.001 90.628,86.671C90.53,86.585 90.42,86.499 90.322,86.413C90.101,86.218 89.893,86.009 89.697,85.789C89.624,85.715 89.55,85.63 89.489,85.544C89.452,85.507 89.146,85.091 89.379,85.409C89.195,85.152 89.011,84.883 88.852,84.601C88.717,84.368 88.595,84.123 88.472,83.891C88.24,83.437 88.546,84.099 88.436,83.805C88.387,83.682 88.338,83.548 88.289,83.425C88.203,83.168 88.117,82.899 88.056,82.641C88.019,82.482 87.982,82.323 87.946,82.152C87.933,82.066 87.872,81.576 87.909,81.98C87.75,80.412 87.848,78.796 87.848,77.228L87.848,51.816C87.235,52.428 86.623,53.04 86.011,53.653L104.136,53.653C105.091,53.653 106.022,52.808 105.973,51.816C105.924,50.824 105.165,49.979 104.136,49.979L86.011,49.979C85.019,49.979 84.174,50.824 84.174,51.816L84.174,66.083C84.174,71.031 84.137,75.991 84.174,80.951C84.21,86.022 87.848,90.7 92.906,91.643C98.441,92.684 104.001,89.402 105.569,83.94C106.12,81.992 105.985,79.886 105.985,77.89L105.985,51.828C105.985,50.873 105.14,49.942 104.148,49.991C103.181,50.04 102.336,50.799 102.336,51.828Z" style="fill:white;fill-rule:nonzero;"/>
    </g>
    <g transform="matrix(1,0,0,1,9,16)">
        <path d="M95.11,88.202L10.826,88.202C10.655,88.202 10.483,88.202 10.312,88.189C10.141,88.177 9.969,88.165 9.81,88.153C10.165,88.189 9.602,88.116 9.467,88.091C9.149,88.03 8.83,87.944 8.512,87.834C8.352,87.785 8.205,87.724 8.046,87.675C8.022,87.663 7.777,87.565 7.961,87.638C8.144,87.724 7.838,87.577 7.814,87.565C7.52,87.418 7.238,87.271 6.969,87.099C6.834,87.013 6.699,86.928 6.564,86.83C6.503,86.781 6.43,86.732 6.368,86.695C6.515,86.805 6.479,86.793 6.356,86.683C6.099,86.45 5.83,86.23 5.597,85.973C5.487,85.862 5.376,85.74 5.278,85.617C5.205,85.532 4.923,85.164 5.119,85.421C4.936,85.164 4.752,84.895 4.593,84.613C4.507,84.478 4.433,84.331 4.36,84.185C4.323,84.111 4.286,84.037 4.25,83.964C4.237,83.927 4.09,83.621 4.176,83.817C4.25,83.976 4.09,83.572 4.066,83.511C4.017,83.352 3.956,83.205 3.919,83.046C3.809,82.678 3.723,82.298 3.662,81.919C3.625,81.698 3.662,81.956 3.674,81.992C3.662,81.906 3.662,81.821 3.65,81.735C3.637,81.564 3.625,81.392 3.625,81.221L3.625,80.951C3.613,80.07 3.625,79.188 3.625,78.306L3.625,1.836C3.013,2.448 2.4,3.06 1.788,3.673L82.594,3.673C83.684,3.673 84.798,3.722 85.888,3.673L86.023,3.673C85.411,3.06 84.798,2.448 84.186,1.836L84.186,80.633C84.186,84.87 86.439,88.949 90.371,90.773C91.865,91.459 93.432,91.839 95.086,91.851C96.041,91.863 96.972,90.994 96.923,90.014C96.898,89.034 96.139,88.214 95.11,88.202C94.767,88.202 94.424,88.177 94.094,88.14C94.412,88.177 94.032,88.128 93.922,88.104C93.702,88.067 93.494,88.018 93.273,87.957C92.955,87.871 92.649,87.761 92.342,87.65C92.012,87.528 92.489,87.736 92.183,87.577C92.012,87.491 91.84,87.405 91.681,87.32C91.375,87.148 91.093,86.952 90.799,86.769C90.518,86.585 90.922,86.891 90.665,86.671C90.518,86.548 90.383,86.426 90.248,86.303C90.015,86.083 89.795,85.85 89.587,85.617C89.538,85.556 89.268,85.238 89.379,85.372C89.501,85.532 89.342,85.323 89.33,85.299C89.256,85.189 89.183,85.079 89.109,84.968C88.938,84.699 88.778,84.417 88.632,84.135C88.595,84.074 88.411,83.682 88.485,83.842C88.57,84.025 88.46,83.78 88.448,83.756C88.411,83.658 88.374,83.548 88.338,83.45C88.227,83.144 88.142,82.825 88.068,82.507C88.019,82.323 87.995,82.127 87.958,81.931C87.921,81.711 87.958,81.968 87.97,82.004C87.958,81.894 87.946,81.784 87.933,81.662C87.909,81.392 87.909,81.135 87.909,80.866L87.909,5.596C87.909,4.395 87.933,3.195 87.909,2.007L87.909,1.848C87.909,0.856 87.064,0.011 86.072,0.011L5.266,0.011C4.164,0.011 3.074,-0.014 1.972,0.011L1.837,0.011C0.845,0.011 0,0.856 0,1.848L0,80.376C0,80.682 -0,81 0.012,81.306C0.122,84.393 1.555,87.418 3.968,89.365C5.964,90.969 8.365,91.851 10.937,91.863L95.159,91.863C96.114,91.863 97.045,91.018 96.996,90.026C96.898,89.047 96.139,88.202 95.11,88.202Z" style="fill:white;fill-rule:nonzero;"/>
    </g>
    <g transform="matrix(1,0,0,1,9,16)">
        <path d="M50.531,69.084L16.484,69.084C15.529,69.084 14.598,69.929 14.647,70.921C14.696,71.913 15.456,72.758 16.484,72.758L50.531,72.758C51.486,72.758 52.417,71.913 52.368,70.921C52.319,69.929 51.56,69.084 50.531,69.084Z" style="fill:white;fill-rule:nonzero;"/>
    </g>
    <g transform="matrix(1,0,0,1,9,16)">
        <path d="M69.514,16.74L69.514,39.863C70.127,39.25 70.739,38.638 71.352,38.026L23.258,38.026C21.041,38.026 18.787,37.903 16.583,38.026L16.497,38.026C17.11,38.638 17.722,39.25 18.334,39.863L18.334,16.74C17.722,17.353 17.11,17.965 16.497,18.577L64.591,18.577C66.808,18.577 69.049,18.651 71.266,18.577L71.352,18.577C72.307,18.577 73.238,17.732 73.189,16.74C73.14,15.748 72.38,14.903 71.352,14.903L23.258,14.903C21.041,14.903 18.8,14.83 16.583,14.903L16.497,14.903C15.505,14.903 14.66,15.748 14.66,16.74L14.66,39.863C14.66,40.855 15.505,41.7 16.497,41.7L64.591,41.7C66.808,41.7 69.049,41.773 71.266,41.7L71.352,41.7C72.344,41.7 73.189,40.855 73.189,39.863L73.189,16.74C73.189,15.785 72.344,14.854 71.352,14.903C70.36,14.952 69.514,15.711 69.514,16.74Z" style="fill:white;fill-rule:nonzero;"/>
    </g>
    <g transform="matrix(1,0,0,1,9,16)">
        <path d="M16.484,57.278L64.578,57.278C66.795,57.278 69.036,57.351 71.253,57.278L71.339,57.278C72.294,57.278 73.225,56.433 73.176,55.441C73.127,54.449 72.367,53.604 71.339,53.604L23.245,53.604C21.028,53.604 18.787,53.53 16.57,53.604L16.484,53.604C15.529,53.604 14.598,54.449 14.647,55.441C14.696,56.433 15.456,57.278 16.484,57.278Z" style="fill:white;fill-rule:nonzero;"/>
    </g>
</svg>
