<?xml version="1.0" encoding="UTF-8" standalone="no"?>
<!DOCTYPE svg PUBLIC "-//W3C//DTD SVG 1.1//EN" "http://www.w3.org/Graphics/SVG/1.1/DTD/svg11.dtd">
<svg width="100%" height="100%" viewBox="0 0 124 124" version="1.1" xmlns="http://www.w3.org/2000/svg" xmlns:xlink="http://www.w3.org/1999/xlink" xml:space="preserve" xmlns:serif="http://www.serif.com/" style="fill-rule:evenodd;clip-rule:evenodd;stroke-linejoin:round;stroke-miterlimit:2;">
    <g transform="matrix(1,0,0,1,9.5,14)">
        <path d="M52.291,96L50.859,94.641C48.426,92.334 45.474,89.458 42.205,86.27C39.795,83.919 37.209,81.398 34.528,78.811C19.656,64.457 14.9,59.518 9.784,52.109C4.324,44.204 0.379,38.492 0.044,30.003C-0.36,22.609 2.051,15.336 6.791,9.646C10.814,4.924 16.303,1.686 22.382,0.449C28.292,-0.616 34.389,0.227 39.789,2.856C44.672,5.119 48.954,8.498 52.291,12.72C55.628,8.498 59.911,5.119 64.794,2.856C70.193,0.226 76.29,-0.617 82.201,0.449C88.279,1.686 93.768,4.924 97.791,9.646C102.531,15.336 104.942,22.609 104.539,30.003C104.203,38.492 100.259,44.204 94.799,52.109C89.683,59.518 84.927,64.457 70.054,78.811C67.373,81.398 64.787,83.919 62.377,86.27C59.108,89.458 56.156,92.334 53.723,94.641L52.291,96ZM27.427,4.127C26.001,4.128 24.578,4.266 23.179,4.538C18.022,5.594 13.367,8.346 9.956,12.356C5.9,17.249 3.846,23.495 4.206,29.84C4.48,36.795 7.483,41.448 13.213,49.741C18.122,56.851 22.782,61.686 37.421,75.812C40.106,78.406 42.698,80.932 45.114,83.288C47.751,85.857 50.178,88.225 52.291,90.251C54.405,88.225 56.832,85.857 59.468,83.288C61.885,80.932 64.476,78.406 67.161,75.812C81.8,61.686 86.46,56.851 91.369,49.741C97.099,41.448 100.102,36.795 100.377,29.84C100.736,23.495 98.682,17.249 94.626,12.356C91.215,8.346 86.56,5.594 81.403,4.538C76.345,3.632 71.13,4.371 66.523,6.648C61.452,9.004 57.139,12.729 54.069,17.403L52.291,20.312L50.513,17.403C47.444,12.729 43.132,9.005 38.062,6.648C34.745,5.035 31.114,4.175 27.427,4.127Z" style="fill:rgb(109,144,90);fill-rule:nonzero;"/>
    </g>
</svg>
