<svg width="220" height="220" viewBox="0 0 220 220" fill="none" xmlns="http://www.w3.org/2000/svg">
<circle cx="110" cy="110" r="107.75" fill="white" stroke="#F2322D" stroke-width="4.5"/>
<path d="M100.581 48H120.428L117.091 132.13H103.742L100.581 48ZM110.592 172C107.314 172 104.562 170.946 102.337 168.839C100.112 166.614 99 163.921 99 160.759C99 157.598 100.112 154.963 102.337 152.856C104.562 150.631 107.314 149.518 110.592 149.518C113.871 149.518 116.564 150.631 118.671 152.856C120.779 154.963 121.833 157.598 121.833 160.759C121.833 163.921 120.72 166.614 118.496 168.839C116.388 170.946 113.754 172 110.592 172Z" fill="#F2322D"/>
</svg>
