<svg width="220" height="220" viewBox="0 0 220 220" fill="none" xmlns="http://www.w3.org/2000/svg">
<path d="M106.93 110.81C106.93 118.595 100.619 124.906 92.8339 124.906C85.0491 124.906 78.7383 118.595 78.7383 110.81C78.7383 103.026 85.0491 96.7148 92.8339 96.7148C100.619 96.7148 106.93 103.026 106.93 110.81Z" stroke="#6D905A" stroke-width="4.5"/>
<path d="M151.054 48.4784L151.076 48.5555L151.103 48.6307L162.166 78.9856C162.208 79.1277 162.206 79.295 162.16 79.4348C162.116 79.5648 162.052 79.6285 161.986 79.6654L161.894 79.7162L161.808 79.7753C154.614 84.6975 147.826 85.4759 141.368 86.1485C141.266 86.159 141.164 86.1694 141.061 86.1798C134.568 86.8413 128.393 87.4704 121.73 92.5399L120.418 93.5379L120.974 95.0895L126.783 111.3L127.427 113.096L129.304 112.755C130.395 112.556 131.373 112.672 132.218 113.094L132.234 113.102L132.25 113.11C134.492 114.186 135.391 116.75 134.305 119.019C134.304 119.021 134.303 119.022 134.303 119.024L132.011 123.742L131.594 124.6L131.921 125.497L138.675 144.004L138.693 144.051L138.712 144.098C138.809 144.33 138.787 144.525 138.722 144.669C138.656 144.814 138.529 144.946 138.321 145.015L138.243 145.041L138.167 145.073C137.935 145.17 137.74 145.148 137.596 145.083C137.451 145.017 137.319 144.89 137.25 144.682L137.24 144.654L137.23 144.626L132.232 130.847L130.797 126.89L128.304 130.283C123.787 136.431 116.864 140.715 109.313 142.1L107.469 142.438V144.313V169.574C107.469 170.898 106.45 171.917 105.126 171.917H80.5398C79.2158 171.917 78.1969 170.898 78.1969 169.574V151.878L73.9187 150.904L65.6783 168.06L65.6639 168.09L65.6504 168.12C64.9685 169.655 63.4015 170.566 61.7627 170.566C61.0969 170.566 60.4731 170.41 59.7234 170.093C57.5047 169 56.6461 166.332 57.6962 164.231L57.7031 164.218L57.7098 164.204L67.301 144.346L67.3022 144.343C70.4365 137.834 77.0744 133.73 84.1872 133.73H104.18C112.194 133.73 119.744 129.056 123.23 121.78L123.232 121.777L126.069 115.833L126.475 114.983L126.153 114.097L107.808 63.5116C107.668 62.987 107.866 62.6069 108.13 62.4307L108.248 62.3519L108.356 62.2588C115.738 55.8609 122.533 55.1217 129.791 54.3321C129.927 54.3173 130.063 54.3025 130.199 54.2876C136.6 53.7425 142.903 53.0325 149.882 48.24C150.106 48.0936 150.348 48.0434 150.654 48.1182C150.743 48.1542 150.842 48.2148 150.924 48.2926C151.014 48.3779 151.044 48.4459 151.054 48.4784Z" stroke="#6D905A" stroke-width="4.5"/>
<circle cx="110" cy="110" r="107.75" stroke="#6D905A" stroke-width="4.5"/>
</svg>
