<svg width="48" height="48" viewBox="0 0 48 48" fill="none" xmlns="http://www.w3.org/2000/svg">
<circle cx="24" cy="24" r="24" fill="#6D905A"/>
<path d="M20.8563 23.8481L28.0059 16.7041C28.2588 16.4505 28.4006 16.1068 28.4 15.7486C28.3995 15.3904 28.2567 15.047 28.0031 14.7941C27.7494 14.5412 27.4057 14.3994 27.0475 14.4C26.6893 14.4005 26.346 14.5433 26.0931 14.7969L17.9931 22.8881C17.7483 23.1338 17.6077 23.4644 17.6004 23.8111C17.5931 24.1578 17.7197 24.494 17.9539 24.7497L26.0875 32.9041C26.3404 33.1578 26.6837 33.3006 27.0419 33.3011C27.4001 33.3016 27.7438 33.1598 27.9975 32.9069C28.2511 32.654 28.3939 32.3107 28.3944 31.9525C28.395 31.5943 28.2532 31.2506 28.0003 30.9969L20.8563 23.8481Z" fill="white"/>
</svg>
