<svg width="27" height="18" viewBox="0 0 27 18" fill="none" xmlns="http://www.w3.org/2000/svg">
<path d="M13.3512 3.42494e-05C10.4811 -0.00623349 7.67503 0.847892 5.29515 2.45216C2.91527 4.05643 1.07086 6.33719 0 9.00004C1.07619 11.6592 2.9219 13.9363 5.30059 15.5398C7.67928 17.1432 10.4826 17.9998 13.3512 17.9998C16.2199 17.9998 19.0232 17.1432 21.4019 15.5398C23.7806 13.9363 25.6263 11.6592 26.7025 9.00004C25.6316 6.33719 23.7872 4.05643 21.4073 2.45216C19.0274 0.847892 16.2213 -0.00623349 13.3512 3.42494e-05ZM13.3512 15.0043C12.167 14.9914 11.013 14.6285 10.0345 13.9612C9.05609 13.2939 8.29689 12.3521 7.85252 11.2543C7.40814 10.1565 7.29845 8.95182 7.53724 7.79181C7.77603 6.63181 8.35263 5.56837 9.19448 4.73535C10.0363 3.90233 11.1058 3.33696 12.2682 3.1104C13.4307 2.88384 14.6342 3.00622 15.7272 3.46213C16.8203 3.91805 17.754 4.68712 18.411 5.67255C19.0679 6.65797 19.4186 7.81571 19.419 9.00004C19.4058 10.5992 18.7602 12.128 17.6232 13.2526C16.4863 14.3772 14.9504 15.006 13.3512 15.0017V15.0043ZM13.3512 5.40241C12.6411 5.41127 11.9494 5.62999 11.3632 6.03104C10.7771 6.4321 10.3226 6.99757 10.0571 7.65629C9.79154 8.31501 9.72677 9.03756 9.87092 9.73301C10.0151 10.4285 10.3617 11.0657 10.8672 11.5646C11.3727 12.0635 12.0144 12.4018 12.7117 12.5368C13.409 12.6718 14.1306 12.5976 14.7858 12.3235C15.441 12.0493 16.0005 11.5875 16.3938 10.9961C16.7871 10.4048 16.9968 9.71026 16.9963 9.00004C16.9878 8.04005 16.5996 7.12248 15.9166 6.44787C15.2336 5.77325 14.3112 5.39647 13.3512 5.39987V5.40241Z" fill="#303C48"/>
</svg>
