<?xml version="1.0" encoding="UTF-8" standalone="no"?>
<!DOCTYPE svg PUBLIC "-//W3C//DTD SVG 1.1//EN" "http://www.w3.org/Graphics/SVG/1.1/DTD/svg11.dtd">
<svg width="100%" height="100%" viewBox="0 0 58 58" version="1.1" xmlns="http://www.w3.org/2000/svg" xmlns:xlink="http://www.w3.org/1999/xlink" xml:space="preserve" xmlns:serif="http://www.serif.com/" style="fill-rule:evenodd;clip-rule:evenodd;stroke-linejoin:round;stroke-miterlimit:2;">
    <path d="M11.105,38.851C14.609,38.851 17.459,36.001 17.459,32.497C17.459,28.995 14.609,26.145 11.105,26.145C7.602,26.145 4.752,28.995 4.752,32.497C4.752,36.001 7.602,38.851 11.105,38.851ZM11.105,28.486C13.317,28.486 15.117,30.285 15.117,32.497C15.117,34.709 13.317,36.508 11.105,36.508C8.893,36.508 7.094,34.709 7.094,32.497C7.094,30.285 8.893,28.486 11.105,28.486Z" style="fill:rgb(109,144,90);fill-rule:nonzero;"/>
    <path d="M11.105,40.025C5.601,40.025 1.124,44.503 1.124,50.006C1.124,51.795 2.579,53.25 4.368,53.25L17.843,53.25C19.631,53.25 21.086,51.795 21.086,50.006C21.086,44.503 16.608,40.025 11.105,40.025ZM17.843,50.909L4.368,50.909C3.871,50.909 3.466,50.504 3.466,50.006C3.466,45.794 6.893,42.367 11.105,42.367C15.317,42.367 18.744,45.794 18.744,50.006C18.744,50.504 18.339,50.909 17.843,50.909Z" style="fill:rgb(109,144,90);fill-rule:nonzero;"/>
    <path d="M29,27.464C32.503,27.464 35.353,24.614 35.353,21.111C35.353,17.608 32.503,14.758 29,14.758C25.497,14.758 22.647,17.608 22.647,21.111C22.647,24.614 25.497,27.464 29,27.464ZM29,17.099C31.212,17.099 33.012,18.899 33.012,21.111C33.012,23.322 31.212,25.122 29,25.122C26.788,25.122 24.988,23.322 24.988,21.111C24.988,18.899 26.788,17.099 29,17.099Z" style="fill:rgb(109,144,90);fill-rule:nonzero;"/>
    <path d="M38.98,38.622C38.98,33.119 34.503,28.641 29,28.641C23.496,28.641 19.019,33.118 19.019,38.622C19.019,40.411 20.474,41.866 22.262,41.866L35.737,41.866C37.526,41.866 38.98,40.411 38.98,38.622ZM35.737,39.525L22.262,39.525C21.765,39.525 21.36,39.12 21.36,38.622C21.36,34.41 24.787,30.982 29,30.982C33.212,30.982 36.639,34.41 36.639,38.622C36.639,39.12 36.234,39.525 35.737,39.525Z" style="fill:rgb(109,144,90);fill-rule:nonzero;"/>
    <path d="M46.894,38.851C50.398,38.851 53.248,36.001 53.248,32.497C53.248,28.995 50.398,26.145 46.894,26.145C43.391,26.145 40.541,28.995 40.541,32.497C40.541,36.001 43.391,38.851 46.894,38.851ZM46.894,28.486C49.107,28.486 50.906,30.285 50.906,32.497C50.906,34.709 49.107,36.508 46.894,36.508C44.682,36.508 42.883,34.709 42.883,32.497C42.883,30.285 44.682,28.486 46.894,28.486Z" style="fill:rgb(109,144,90);fill-rule:nonzero;"/>
    <path d="M46.895,40.025C41.392,40.025 36.914,44.502 36.914,50.006C36.914,51.795 38.369,53.25 40.157,53.25L53.632,53.25C55.421,53.25 56.876,51.795 56.876,50.006C56.876,44.503 52.399,40.025 46.895,40.025ZM53.632,50.909L40.157,50.909C39.66,50.909 39.256,50.504 39.256,50.006C39.256,45.794 42.683,42.367 46.895,42.367C51.107,42.367 54.534,45.794 54.534,50.006C54.534,50.504 54.129,50.909 53.632,50.909Z" style="fill:rgb(109,144,90);fill-rule:nonzero;"/>
    <path d="M29,11.862C29.647,11.862 30.171,11.338 30.171,10.692C30.171,10.692 30.171,5.921 30.171,5.921C30.171,5.275 29.647,4.75 29,4.75C28.353,4.75 27.829,5.275 27.829,5.921L27.829,10.692C27.829,11.338 28.353,11.862 29,11.862Z" style="fill:rgb(109,144,90);fill-rule:nonzero;"/>
    <path d="M43.199,17.741C43.499,17.741 43.798,17.627 44.027,17.399C44.027,17.399 47.401,14.025 47.401,14.025C47.857,13.568 47.857,12.827 47.401,12.369L47.401,12.369C46.943,11.911 46.202,11.911 45.745,12.369C45.745,12.369 42.371,15.743 42.371,15.743C41.914,16.199 41.913,16.941 42.371,17.399C42.599,17.626 42.899,17.741 43.199,17.741Z" style="fill:rgb(109,144,90);fill-rule:nonzero;"/>
    <path d="M13.972,17.398L13.972,17.398C14.201,17.626 14.501,17.74 14.801,17.74C15.101,17.74 15.4,17.626 15.629,17.398C16.087,16.94 16.086,16.198 15.629,15.742C15.629,15.742 12.256,12.368 12.256,12.368C11.798,11.91 11.057,11.91 10.6,12.368C10.142,12.826 10.143,13.567 10.6,14.024C10.6,14.024 13.972,17.398 13.972,17.398Z" style="fill:rgb(109,144,90);fill-rule:nonzero;"/>
    <path d="M20.234,12.663C20.421,13.115 20.857,13.387 21.316,13.387C21.465,13.387 21.618,13.359 21.764,13.298C22.361,13.05 22.645,12.366 22.398,11.768L20.572,7.36C20.325,6.763 19.64,6.478 19.042,6.726C18.445,6.974 18.161,7.657 18.408,8.256L20.234,12.663Z" style="fill:rgb(109,144,90);fill-rule:nonzero;"/>
    <path d="M36.236,13.298L36.236,13.298C36.384,13.359 36.535,13.387 36.685,13.387C37.144,13.387 37.58,13.115 37.767,12.663C37.767,12.663 39.592,8.256 39.592,8.256C39.84,7.658 39.556,6.974 38.959,6.726L38.959,6.726C38.36,6.478 37.676,6.763 37.429,7.36C37.429,7.36 35.603,11.768 35.603,11.768C35.355,12.364 35.64,13.05 36.236,13.298Z" style="fill:rgb(109,144,90);fill-rule:nonzero;"/>
</svg>
