<?xml version="1.0" encoding="UTF-8" standalone="no"?>
<!DOCTYPE svg PUBLIC "-//W3C//DTD SVG 1.1//EN" "http://www.w3.org/Graphics/SVG/1.1/DTD/svg11.dtd">
<svg width="100%" height="100%" viewBox="0 0 24 24" version="1.1" xmlns="http://www.w3.org/2000/svg" xmlns:xlink="http://www.w3.org/1999/xlink" xml:space="preserve" xmlns:serif="http://www.serif.com/" style="fill-rule:evenodd;clip-rule:evenodd;stroke-linejoin:round;stroke-miterlimit:2;">
    <g transform="matrix(1,0,0,1,1.5,1)">
        <path d="M0.908,13.945C0.908,13.945 2.276,10.8 7.346,12.794C7.346,12.794 7.971,12.22 8.855,11.752C8.855,11.752 11.095,10.566 13.288,12.363C13.288,12.363 14.066,12.555 14.231,12.148C14.231,12.148 13.453,7.14 13.547,6.541C13.547,6.541 13.547,6.206 13.288,5.559C13.028,4.912 13.028,4.912 12.179,3.81C12.179,3.81 11.661,3.594 10.034,3.81C10.034,3.81 7.581,3.978 7.44,3.499C7.44,3.499 7.204,2.972 6.945,2.876C6.945,2.876 6.803,2.612 6.921,2.492C6.921,2.492 7.558,0.911 8.029,0.336C8.029,0.336 8.407,0.192 8.477,0.001C8.477,0.001 11.378,-0.047 12.84,0.647C12.84,0.647 13.995,1.223 14.49,1.726C14.49,1.726 16.282,4.313 16.824,5.223C16.824,5.223 19.324,8.865 19.489,10.59C19.489,10.59 19.418,10.662 19.607,11.189C19.607,11.189 20.314,12.244 20.621,14.064C20.621,14.064 20.786,14.927 20.467,15.741C20.467,15.741 19.159,17.562 17.697,17.49C17.697,17.49 14.089,20.94 10.835,21.18C10.835,21.18 9.114,21.18 8.713,20.965C8.713,20.965 7.793,20.965 7.44,21.18C7.44,21.18 6.025,21.65 5.907,21.674C5.789,21.698 4.657,22.129 4.091,21.962C3.525,21.794 -1.214,16.077 0.295,14.376" style="fill:rgb(182,56,82);fill-rule:nonzero;"/>
    </g>
</svg>
