<?xml version="1.0" encoding="UTF-8" standalone="no"?>
<!DOCTYPE svg PUBLIC "-//W3C//DTD SVG 1.1//EN" "http://www.w3.org/Graphics/SVG/1.1/DTD/svg11.dtd">
<svg width="100%" height="100%" viewBox="0 0 67 66" version="1.1" xmlns="http://www.w3.org/2000/svg" xmlns:xlink="http://www.w3.org/1999/xlink" xml:space="preserve" xmlns:serif="http://www.serif.com/" style="fill-rule:evenodd;clip-rule:evenodd;stroke-linejoin:round;stroke-miterlimit:2;">
    <path d="M33.5,0C51.713,0 66.5,14.787 66.5,33C66.5,51.213 51.713,66 33.5,66C15.287,66 0.5,51.213 0.5,33C0.5,14.787 15.287,0 33.5,0ZM29.002,37.198C26.638,40.437 24.522,43.246 23.794,44.207L27.719,49.5C28.623,48.272 30.708,45.425 32.938,42.27C31.59,40.577 30.217,38.817 29.002,37.198ZM30.699,27.621C28.508,24.588 27.915,21.932 27.9,19.974C26.932,21.64 25.85,23.521 25.52,24.171C24.589,26.006 24.888,28.354 26.436,31.351C28.265,34.892 37.744,46.362 40.057,49.14L43.661,43.623C42.08,41.775 34.406,32.754 30.699,27.621ZM35.782,27.463C37.797,24.294 38.305,21.652 38.283,19.752C39.265,21.306 40.375,23.076 40.747,23.711C41.786,25.487 41.626,27.85 40.259,30.933C39.856,31.84 39.009,33.267 37.931,34.944C36.608,33.328 35.258,31.652 34.042,30.094C34.685,29.151 35.275,28.261 35.782,27.463ZM29.983,16.632C30.657,15.914 31.712,15.543 33.12,15.53C34.383,15.518 35.362,15.851 36.032,16.521C36.042,16.531 36.053,16.542 36.063,16.552C36.375,16.874 36.589,17.243 36.74,17.605C36.988,18.393 37.292,19.976 36.788,22.167C35.077,22.013 32.082,21.885 29.397,22.482C29.163,21.629 29.061,20.855 29.04,20.176L29.149,18.919L29.15,18.833C29.15,18.821 29.107,17.566 29.983,16.632Z" style="fill:rgb(101,151,162);"/>
</svg>
