<?xml version="1.0" encoding="UTF-8" standalone="no"?>
<!DOCTYPE svg PUBLIC "-//W3C//DTD SVG 1.1//EN" "http://www.w3.org/Graphics/SVG/1.1/DTD/svg11.dtd">
<svg width="100%" height="100%" viewBox="0 0 24 24" version="1.1" xmlns="http://www.w3.org/2000/svg" xmlns:xlink="http://www.w3.org/1999/xlink" xml:space="preserve" xmlns:serif="http://www.serif.com/" style="fill-rule:evenodd;clip-rule:evenodd;stroke-linejoin:round;stroke-miterlimit:2;">
    <g transform="matrix(1,0,0,1,0.5,1.5)">
        <path d="M15.106,11.012L18.049,8.068C19.269,8.477 20.668,8.195 21.639,7.224C22.595,6.269 22.881,4.899 22.503,3.694L20.482,5.715L18.329,5.582L18.197,3.429L20.218,1.409C19.013,1.03 17.643,1.318 16.687,2.272C15.717,3.244 15.435,4.643 15.843,5.863L12.879,8.827L8.003,4.037L8.929,3.111C9.914,2.125 11.298,1.783 12.56,2.084L12.607,1.948C12.704,1.662 12.631,1.345 12.418,1.132C10.908,-0.377 8.46,-0.377 6.95,1.132L6.006,2.077L5.767,1.843C5.594,1.673 5.322,1.664 5.159,1.827L3.563,3.423C3.4,3.586 3.409,3.859 3.578,4.033L3.812,4.27L2.436,5.646L2.189,5.418C2.018,5.249 1.74,5.249 1.57,5.418L0.278,6.711C0.108,6.881 0.108,7.159 0.278,7.329L2.78,9.807C2.95,9.978 3.228,9.978 3.398,9.807L4.69,8.515C4.861,8.345 4.861,8.067 4.69,7.897L4.415,7.625L5.774,6.267L10.562,11.144L7.528,14.179C6.308,13.771 4.909,14.052 3.938,15.023C2.983,15.979 2.696,17.348 3.075,18.554L5.095,16.534L7.145,16.769L7.381,18.818L5.361,20.839C6.566,21.217 7.935,20.93 8.89,19.975C9.861,19.005 10.142,17.605 9.734,16.385L12.748,13.371L19.733,20.484C19.903,20.657 20.179,20.662 20.341,20.499L22.235,18.606C22.398,18.444 22.391,18.167 22.218,17.998L15.106,11.012Z" style="fill:rgb(162,177,71);"/>
    </g>
</svg>
