<svg width="22" height="18" viewBox="0 0 22 18" fill="none" xmlns="http://www.w3.org/2000/svg">
<path d="M7.47206 16.7779L0.322065 9.32054C0.219883 9.214 0.138825 9.08751 0.0835227 8.94829C0.0282201 8.80907 -0.000244141 8.65985 -0.000244141 8.50916C-0.000244141 8.35846 0.0282201 8.20924 0.0835227 8.07002C0.138825 7.9308 0.219883 7.80431 0.322065 7.69777L1.87795 6.0699C1.9801 5.96333 2.10138 5.87879 2.23486 5.82111C2.36835 5.76343 2.51141 5.73374 2.6559 5.73374C2.80038 5.73374 2.94345 5.76343 3.07693 5.82111C3.21041 5.87879 3.33169 5.96333 3.43384 6.0699L8.25001 11.0963L18.5668 0.333479C18.6689 0.226904 18.7902 0.142362 18.9237 0.0846824C19.0572 0.0270025 19.2002 -0.00268555 19.3447 -0.00268555C19.4892 -0.00268555 19.6323 0.0270025 19.7658 0.0846824C19.8992 0.142362 20.0205 0.226904 20.1227 0.333479L21.6779 1.9588C21.7801 2.06534 21.8612 2.19183 21.9165 2.33105C21.9718 2.47027 22.0003 2.61949 22.0003 2.77018C22.0003 2.92088 21.9718 3.0701 21.9165 3.20932C21.8612 3.34854 21.7801 3.47503 21.6779 3.58157L9.02795 16.7753C8.92596 16.8821 8.80481 16.9668 8.67142 17.0247C8.53802 17.0826 8.395 17.1125 8.25051 17.1128C8.10603 17.113 7.96292 17.0836 7.82935 17.0261C7.69578 16.9686 7.57437 16.8843 7.47206 16.7779Z" fill="white"/>
</svg>
