<svg width="72" height="72" viewBox="0 0 72 72" fill="none" xmlns="http://www.w3.org/2000/svg">
<circle cx="36" cy="36" r="36" fill="#6D905A"/>
<path d="M28.9583 49.9359C28.0256 50.2 27.093 49.619 26.8187 48.7211L20.0708 24.2661C19.7965 23.3682 20.3451 22.4174 21.2777 22.2061C22.2103 21.9421 23.143 22.4702 23.4173 23.421L30.1652 47.9288C30.4395 48.7739 29.8909 49.7246 28.9583 49.9359ZM49.8604 30.3402C48.5437 32.6114 44.3194 35.6749 39.1076 34.3544C34.2798 33.1396 30.7687 34.9883 29.3423 39.2137C29.3423 39.2137 25.3374 25.3224 25.0083 24.1604C25.4472 23.421 29.6715 17.1356 36.9132 21.5723C44.1548 25.9563 48.8729 29.1254 52 23.8435C51.9451 23.7907 51.1771 28.069 49.8604 30.3402Z" fill="white"/>
</svg>
