<?xml version="1.0" encoding="UTF-8" standalone="no"?>
<!DOCTYPE svg PUBLIC "-//W3C//DTD SVG 1.1//EN" "http://www.w3.org/Graphics/SVG/1.1/DTD/svg11.dtd">
<svg width="100%" height="100%" viewBox="0 0 32 32" version="1.1" xmlns="http://www.w3.org/2000/svg" xmlns:xlink="http://www.w3.org/1999/xlink" xml:space="preserve" xmlns:serif="http://www.serif.com/" style="fill-rule:evenodd;clip-rule:evenodd;">
    <g transform="matrix(1,0,0,1,4.39779,3.5)">
        <path d="M21.282,19.833C21.557,19.633 21.783,19.373 21.943,19.072C22.103,18.772 22.192,18.439 22.204,18.099C22.206,17.508 21.992,16.936 21.603,16.491C21.57,16.425 21.542,16.364 21.515,16.304L21.504,16.243C21.484,16.149 21.484,16.051 21.503,15.957C21.522,15.862 21.56,15.773 21.614,15.693C21.864,15.264 21.976,14.768 21.935,14.273C21.942,14.034 21.898,13.795 21.806,13.574C21.713,13.353 21.575,13.155 21.399,12.992C21.277,12.857 21.193,12.693 21.153,12.516C21.113,12.339 21.12,12.154 21.173,11.98C21.288,11.623 21.306,11.242 21.227,10.875C21.147,10.508 20.972,10.169 20.719,9.892C20.14,9.24 19.598,9.163 18.155,9.245C17.161,9.306 15.091,9.626 13.725,9.841C13.167,9.93 12.68,10.007 12.531,10.018C11.829,10.09 11.691,10.018 11.625,9.747C11.662,9.491 11.755,9.246 11.896,9.029C12.222,8.395 12.49,7.733 12.698,7.051C13.255,5.217 13.195,3.228 12.548,2.068C12.419,1.78 12.217,1.531 11.962,1.345C11.707,1.16 11.408,1.044 11.094,1.01C10.543,0.957 9.993,1.112 9.552,1.446C9.364,1.667 9.425,2.088 9.21,2.927C9.047,3.716 8.825,4.491 8.546,5.247C8.132,6.164 6.353,7.739 5.397,8.584C5.171,8.783 4.978,8.954 4.839,9.087C4.31,9.641 3.838,10.246 3.43,10.894C3.201,11.251 2.948,11.592 2.674,11.916C2.347,12.256 1.91,12.469 1.442,12.518C1.324,12.518 1.212,12.565 1.13,12.648C1.047,12.731 1,12.843 1,12.96L1,21.772C1,21.833 1.012,21.892 1.035,21.948C1.058,22.004 1.091,22.055 1.134,22.097C1.177,22.14 1.227,22.174 1.283,22.197C1.339,22.22 1.399,22.232 1.459,22.231C2.715,22.181 3.966,22.404 5.128,22.883C5.947,23.224 6.809,23.449 7.691,23.552C9.754,23.823 11.831,23.973 13.912,24C14.957,23.988 16.001,23.916 17.039,23.785C18.752,23.586 20.586,23.188 21.194,21.742C21.285,21.535 21.329,21.31 21.324,21.084C21.319,20.858 21.266,20.636 21.166,20.433C21.144,20.388 21.129,20.339 21.122,20.289C21.106,20.206 21.111,20.119 21.139,20.039C21.168,19.959 21.217,19.888 21.282,19.833Z" style="fill:none;fill-rule:nonzero;stroke:rgb(109,144,90);stroke-width:2px;"/>
    </g>
</svg>
