<?xml version="1.0" encoding="UTF-8" standalone="no"?>
<!DOCTYPE svg PUBLIC "-//W3C//DTD SVG 1.1//EN" "http://www.w3.org/Graphics/SVG/1.1/DTD/svg11.dtd">
<svg width="100%" height="100%" viewBox="0 0 24 24" version="1.1" xmlns="http://www.w3.org/2000/svg" xmlns:xlink="http://www.w3.org/1999/xlink" xml:space="preserve" xmlns:serif="http://www.serif.com/" style="fill-rule:evenodd;clip-rule:evenodd;stroke-linejoin:round;stroke-miterlimit:2;">
    <g transform="matrix(0.0563877,0,0,0.0563877,4.64176,3.9859)">
        <path d="M145,13L145,144C145,161 116,161 116,144L116,13C116,-4 145,-4 145,13Z" style="fill:rgb(96,98,110);"/>
        <path d="M232,154C232,111 207,76 169,60C154,54 164,26 180,33C229,54 261,99 261,154C261,226 203,284 130,284C58,284 -1,225 0,153C0,98 33,53 81,33C98,26 108,54 92,60C55,76 29,111 29,154C29,210 75,255 131,255C186,255 232,210 232,154Z" style="fill:rgb(96,98,110);"/>
    </g>
</svg>
