<?xml version="1.0" encoding="UTF-8" standalone="no"?>
<!DOCTYPE svg PUBLIC "-//W3C//DTD SVG 1.1//EN" "http://www.w3.org/Graphics/SVG/1.1/DTD/svg11.dtd">
<svg width="100%" height="100%" viewBox="0 0 66 66" version="1.1" xmlns="http://www.w3.org/2000/svg" xmlns:xlink="http://www.w3.org/1999/xlink" xml:space="preserve" xmlns:serif="http://www.serif.com/" style="fill-rule:evenodd;clip-rule:evenodd;stroke-linejoin:round;stroke-miterlimit:2;">
    <path d="M33,0C51.213,0 66,14.787 66,33C66,51.213 51.213,66 33,66C14.787,66 0,51.213 0,33C0,14.787 14.787,0 33,0ZM48.692,34.608C47.685,33.925 46.5,34.119 45.451,34.726C44.402,35.333 38.371,40.495 38.371,40.495L32.433,40.495C32.286,40.478 32.147,40.411 32.042,40.304C31.936,40.198 31.871,40.058 31.859,39.909C31.862,39.757 31.923,39.613 32.031,39.505C32.138,39.398 32.283,39.336 32.433,39.333L36.066,39.333C37.337,39.333 38.761,38.504 38.761,37.033C38.761,35.463 37.337,34.733 36.066,34.733L33.43,34.733C32.547,34.733 31.651,34.681 30.961,34.312C29.996,33.822 28.929,33.569 27.848,33.574C26.964,33.566 26.087,33.734 25.269,34.069C24.45,34.404 23.708,34.898 23.084,35.524L16.888,41.628L23.79,48.529L26.09,46.23L37.74,46.23C38.898,46.228 40.015,45.803 40.88,45.034L48.768,36.186C48.883,36.086 48.972,35.961 49.033,35.821C49.091,35.682 49.119,35.53 49.111,35.378C49.105,35.227 49.063,35.078 48.989,34.945C48.918,34.812 48.816,34.696 48.692,34.608ZM42.267,18.588C41.491,17.862 40.466,17.462 39.405,17.471C38.197,17.473 37.04,17.954 36.186,18.808L35.811,19.185L35.436,18.805C34.582,17.953 33.426,17.473 32.219,17.471C31.158,17.462 30.133,17.862 29.358,18.588C28.941,18.98 28.606,19.452 28.374,19.976C28.144,20.5 28.02,21.065 28.011,21.637C28.002,22.21 28.109,22.778 28.324,23.309C28.539,23.839 28.859,24.321 29.264,24.726L35.804,31.267L42.344,24.726C42.751,24.322 43.072,23.841 43.287,23.311C43.505,22.781 43.612,22.213 43.605,21.64C43.597,21.068 43.475,20.503 43.246,19.978C43.016,19.454 42.683,18.981 42.267,18.588Z" style="fill:rgb(101,151,162);"/>
</svg>
