<svg width="23" height="20" viewBox="0 0 23 20" fill="none" xmlns="http://www.w3.org/2000/svg">
<path d="M14.6665 11.1112C14.6665 11.8144 14.458 12.5019 14.0673 13.0866C13.6766 13.6713 13.1213 14.127 12.4716 14.3961C11.8219 14.6652 11.107 14.7356 10.4173 14.5985C9.72761 14.4613 9.09407 14.1226 8.59682 13.6254C8.09957 13.1281 7.76093 12.4946 7.62374 11.8049C7.48655 11.1152 7.55696 10.4003 7.82607 9.75057C8.09518 9.10088 8.55091 8.54557 9.13562 8.15488C9.72032 7.76419 10.4078 7.55566 11.111 7.55566C12.054 7.55566 12.9583 7.93027 13.6251 8.59706C14.2919 9.26386 14.6665 10.1682 14.6665 11.1112Z" fill="white"/>
<path d="M7.77778 0L5.74444 2.22222H2.22222C1.63339 2.22398 1.06918 2.45867 0.652817 2.87504C0.23645 3.29141 0.00175859 3.85562 0 4.44444V17.7778C0.00175859 18.3666 0.23645 18.9308 0.652817 19.3472C1.06918 19.7635 1.63339 19.9982 2.22222 20H20C20.5888 19.9982 21.153 19.7635 21.5694 19.3472C21.9858 18.9308 22.2205 18.3666 22.2222 17.7778V4.44444C22.2205 3.85562 21.9858 3.29141 21.5694 2.87504C21.153 2.45867 20.5888 2.22398 20 2.22222H16.4778L14.4444 0H7.77778ZM11.1111 16.6667C10.0123 16.6667 8.93822 16.3408 8.02461 15.7304C7.111 15.1199 6.39893 14.2523 5.97845 13.2371C5.55796 12.222 5.44794 11.1049 5.6623 10.0273C5.87667 8.9496 6.40578 7.9597 7.18274 7.18274C7.9597 6.40578 8.9496 5.87667 10.0273 5.6623C11.1049 5.44794 12.222 5.55796 13.2371 5.97845C14.2523 6.39893 15.1199 7.111 15.7304 8.02461C16.3408 8.93822 16.6667 10.0123 16.6667 11.1111C16.6667 12.5845 16.0814 13.9976 15.0395 15.0395C13.9976 16.0814 12.5845 16.6667 11.1111 16.6667Z" fill="white"/>
</svg>
