<?xml version="1.0" encoding="UTF-8" standalone="no"?>
<!DOCTYPE svg PUBLIC "-//W3C//DTD SVG 1.1//EN" "http://www.w3.org/Graphics/SVG/1.1/DTD/svg11.dtd">
<svg width="100%" height="100%" viewBox="0 0 32 32" version="1.1" xmlns="http://www.w3.org/2000/svg" xmlns:xlink="http://www.w3.org/1999/xlink" xml:space="preserve" xmlns:serif="http://www.serif.com/" style="fill-rule:evenodd;clip-rule:evenodd;stroke-linejoin:round;stroke-miterlimit:2;">
    <g transform="matrix(1,0,0,1,5.5,5.5)">
        <path d="M15.007,13.208L14.054,13.208L13.723,12.879C14.939,11.467 15.607,9.666 15.606,7.803C15.606,6.778 15.404,5.764 15.012,4.817C14.62,3.87 14.045,3.01 13.321,2.285C12.596,1.561 11.736,0.986 10.789,0.594C9.843,0.202 8.828,0 7.803,0C6.778,0 5.764,0.202 4.817,0.594C3.87,0.986 3.01,1.561 2.285,2.285C0.822,3.749 0,5.734 0,7.803C0,9.873 0.822,11.857 2.285,13.321C3.01,14.045 3.87,14.62 4.817,15.012C5.764,15.404 6.778,15.606 7.803,15.606C9.665,15.607 11.466,14.94 12.878,13.725L13.209,14.054L13.209,15.005L19.211,21L20.999,19.212L15.007,13.21L15.007,13.208ZM7.798,13.208C6.366,13.208 4.992,12.639 3.978,11.625C2.965,10.612 2.396,9.238 2.396,7.806C2.396,7.096 2.536,6.394 2.807,5.738C3.079,5.083 3.477,4.487 3.978,3.986C4.992,2.973 6.366,2.403 7.798,2.403C8.508,2.403 9.21,2.543 9.866,2.815C10.521,3.086 11.117,3.484 11.618,3.986C12.12,4.487 12.518,5.083 12.789,5.738C13.061,6.394 13.201,7.096 13.201,7.806C13.201,9.238 12.631,10.612 11.618,11.625C10.605,12.639 9.231,13.208 7.798,13.208Z" style="fill:white;"/>
    </g>
</svg>
