<?xml version="1.0" encoding="UTF-8" standalone="no"?>
<!DOCTYPE svg PUBLIC "-//W3C//DTD SVG 1.1//EN" "http://www.w3.org/Graphics/SVG/1.1/DTD/svg11.dtd">
<svg width="100%" height="100%" viewBox="0 0 32 32" version="1.1" xmlns="http://www.w3.org/2000/svg" xmlns:xlink="http://www.w3.org/1999/xlink" xml:space="preserve" xmlns:serif="http://www.serif.com/" style="fill-rule:evenodd;clip-rule:evenodd;stroke-linejoin:round;stroke-miterlimit:2;">
    <g transform="matrix(1,0,0,1,3.57145,4.99999)">
        <path d="M12.429,0C5.513,0 0,4.669 0,10.286L0,10.293C0.018,11.525 0.279,12.735 0.769,13.859C1.173,14.784 1.724,15.634 2.401,16.379C1.94,17.612 1.247,18.748 0.359,19.724C0.188,19.905 0.066,20.148 0.021,20.41C-0.025,20.671 0.008,20.94 0.115,21.183C0.219,21.427 0.39,21.63 0.609,21.775C0.836,21.926 1.102,22.004 1.371,22L1.373,22C3.699,21.96 5.949,21.199 7.815,19.829C9.302,20.322 10.86,20.573 12.43,20.571C19.345,20.571 24.857,15.905 24.857,10.286C24.857,4.666 19.344,0 12.429,0ZM2.809,19.856C3.548,18.806 4.118,17.647 4.5,16.418L4.684,15.827L4.236,15.399C3.542,14.734 2.987,13.94 2.603,13.059C2.22,12.181 2.015,11.236 2,10.279C2.005,5.645 6.722,2 12.429,2C18.138,2 22.857,5.646 22.857,10.286C22.857,14.925 18.138,18.571 12.429,18.571L12.428,18.571C10.91,18.573 9.406,18.301 7.985,17.769L7.447,17.567L7.002,17.93C5.785,18.923 4.34,19.582 2.809,19.856Z" style="fill:rgb(109,144,90);"/>
    </g>
</svg>
