<?xml version="1.0" encoding="UTF-8" standalone="no"?>
<!DOCTYPE svg PUBLIC "-//W3C//DTD SVG 1.1//EN" "http://www.w3.org/Graphics/SVG/1.1/DTD/svg11.dtd">
<svg width="100%" height="100%" viewBox="0 0 28 28" version="1.1" xmlns="http://www.w3.org/2000/svg" xmlns:xlink="http://www.w3.org/1999/xlink" xml:space="preserve" xmlns:serif="http://www.serif.com/" style="fill-rule:evenodd;clip-rule:evenodd;stroke-linejoin:round;stroke-miterlimit:2;">
    <path d="M19.217,21.425C19.217,21.517 19.142,21.592 19.05,21.592L8.988,21.592C8.896,21.592 8.821,21.517 8.821,21.425L8.821,20.975L7.2,20.975L7.2,22.067C7.2,22.748 7.752,23.3 8.434,23.3L19.633,23.3C20.315,23.3 20.867,22.748 20.867,22.067C20.867,22.067 20.867,20.975 20.867,20.975L19.217,20.975L19.217,21.425ZM8.821,18.933L7.2,18.933L7.2,20.486L8.821,20.486L8.821,18.933ZM19.217,20.486L20.867,20.486L20.867,18.933L19.217,18.933L19.217,20.486ZM8.821,16.756L7.2,16.756L7.2,18.444L8.821,18.444L8.821,16.756ZM19.217,18.444L20.867,18.444L20.867,16.756L19.217,16.756L19.217,18.444ZM19.217,16.344L20.867,16.344L20.867,14.675L19.217,14.675L19.217,16.344ZM8.821,14.675L7.2,14.675L7.2,16.344L8.821,16.344L8.821,14.675ZM19.217,14.264L20.867,14.264L20.867,12.444L19.217,12.444L19.217,14.264ZM8.821,12.444L7.2,12.444L7.2,14.264L8.821,14.264L8.821,12.444ZM8.821,10.125L7.2,10.125L7.2,11.936L8.821,11.936L8.821,10.125ZM19.217,11.936L20.867,11.936L20.867,10.125L19.217,10.125L19.217,11.936ZM12.423,6.208L12.423,7.969C12.424,8.019 12.421,8.192 12.372,8.363C12.33,8.509 12.254,8.649 12.142,8.743C12.059,8.813 11.937,8.873 11.804,8.915C11.584,8.985 11.332,9.012 11.284,9.017L11.263,9.018L8.821,9.047L8.821,9.762L7.2,9.762L7.2,8.641L8.309,7.471L10.767,7.471C10.859,7.471 10.934,7.396 10.934,7.304L10.934,5.722L12.018,4.7L19.634,4.7C20.315,4.7 20.867,5.252 20.867,5.933L20.867,9.762L19.217,9.762C19.217,9.762 19.217,6.375 19.217,6.375C19.217,6.283 19.142,6.208 19.05,6.208L12.423,6.208Z" style="fill:white;"/>
</svg>
