<?xml version="1.0" encoding="UTF-8" standalone="no"?>
<!DOCTYPE svg PUBLIC "-//W3C//DTD SVG 1.1//EN" "http://www.w3.org/Graphics/SVG/1.1/DTD/svg11.dtd">
<svg width="100%" height="100%" viewBox="0 0 24 24" version="1.1" xmlns="http://www.w3.org/2000/svg" xmlns:xlink="http://www.w3.org/1999/xlink" xml:space="preserve" xmlns:serif="http://www.serif.com/" style="fill-rule:evenodd;clip-rule:evenodd;stroke-linejoin:round;stroke-miterlimit:2;">
    <g transform="matrix(1,0,0,1,5.5,4)">
        <path d="M0.889,14.222C0.89,14.693 1.078,15.145 1.411,15.478C1.744,15.811 2.196,15.999 2.667,16L9.778,16C10.249,15.999 10.7,15.811 11.033,15.478C11.366,15.145 11.554,14.693 11.556,14.222L11.556,3.556L0.889,3.556L0.889,14.222ZM12.444,0.889L9.333,0.889L8.444,0L4,0L3.111,0.889L0,0.889L0,2.667L12.444,2.667L12.444,0.889Z" style="fill:rgb(201,5,0);fill-rule:nonzero;"/>
    </g>
</svg>
