<?xml version="1.0" encoding="UTF-8" standalone="no"?>
<!DOCTYPE svg PUBLIC "-//W3C//DTD SVG 1.1//EN" "http://www.w3.org/Graphics/SVG/1.1/DTD/svg11.dtd">
<svg width="100%" height="100%" viewBox="0 0 24 24" version="1.1" xmlns="http://www.w3.org/2000/svg" xmlns:xlink="http://www.w3.org/1999/xlink" xml:space="preserve" xmlns:serif="http://www.serif.com/" style="fill-rule:evenodd;clip-rule:evenodd;stroke-linejoin:round;stroke-miterlimit:2;">
    <g transform="matrix(1,0,0,1,6,3)">
        <path d="M6,0C5.212,-0.001 4.431,0.154 3.703,0.456C2.975,0.757 2.313,1.199 1.756,1.756C1.199,2.313 0.757,2.975 0.456,3.703C0.154,4.431 -0.001,5.212 0,6C0,10.5 6,17.143 6,17.143C6,17.143 12,10.5 12,6C12.001,5.212 11.846,4.431 11.544,3.703C11.243,2.975 10.801,2.313 10.244,1.756C9.687,1.199 9.025,0.757 8.297,0.456C7.569,0.154 6.788,-0.001 6,0ZM6,8.143C5.576,8.143 5.162,8.017 4.809,7.782C4.457,7.546 4.182,7.212 4.02,6.82C3.858,6.428 3.816,5.998 3.898,5.582C3.981,5.166 4.185,4.784 4.485,4.485C4.784,4.185 5.166,3.981 5.582,3.898C5.998,3.816 6.428,3.858 6.82,4.02C7.212,4.182 7.546,4.457 7.782,4.809C8.017,5.162 8.143,5.576 8.143,6C8.143,6.568 7.917,7.113 7.515,7.515C7.113,7.917 6.568,8.143 6,8.143Z" style="fill:rgb(101,151,162);fill-rule:nonzero;"/>
    </g>
</svg>
