<?xml version="1.0" encoding="UTF-8" standalone="no"?>
<!DOCTYPE svg PUBLIC "-//W3C//DTD SVG 1.1//EN" "http://www.w3.org/Graphics/SVG/1.1/DTD/svg11.dtd">
<svg width="100%" height="100%" viewBox="0 0 58 58" version="1.1" xmlns="http://www.w3.org/2000/svg" xmlns:xlink="http://www.w3.org/1999/xlink" xml:space="preserve" xmlns:serif="http://www.serif.com/" style="fill-rule:evenodd;clip-rule:evenodd;stroke-linejoin:round;stroke-miterlimit:2;">
    <path d="M19.252,8.65C11.358,8.65 6.076,15.125 6.076,22.339C6.076,29.026 9.859,34.814 14.502,39.375C19.107,43.899 24.603,47.254 28.375,49.2L28.376,49.201C28.57,49.299 28.783,49.35 29,49.35C29.216,49.35 29.431,49.299 29.624,49.201L29.625,49.201C33.397,47.254 38.892,43.899 43.499,39.375L43.499,39.375C48.142,34.814 51.923,29.026 51.923,22.339C51.923,15.125 46.642,8.65 38.747,8.65C34.278,8.65 31.241,10.827 29,13.839C26.758,10.827 23.722,8.65 19.252,8.65ZM19.252,11.402C23.503,11.402 25.823,13.538 27.818,16.876L27.818,16.876C27.94,17.079 28.113,17.249 28.32,17.367C28.527,17.485 28.762,17.547 29,17.547C29.239,17.547 29.472,17.485 29.68,17.367L29.681,17.367C29.888,17.249 30.062,17.078 30.183,16.874C32.177,13.538 34.497,11.402 38.747,11.402C45.121,11.402 49.171,16.481 49.171,22.339C49.171,28.056 45.853,33.188 41.565,37.4C37.456,41.436 32.559,44.519 29.001,46.408C25.441,44.519 20.543,41.436 16.436,37.4C12.147,33.188 8.828,28.056 8.828,22.339C8.828,16.481 12.88,11.402 19.252,11.402Z" style="fill:rgb(109,144,90);fill-rule:nonzero;"/>
</svg>
