<svg width="100%" height="100%" viewBox="0 0 16 16" version="1.1" xmlns="http://www.w3.org/2000/svg" xmlns:xlink="http://www.w3.org/1999/xlink" xml:space="preserve" xmlns:serif="http://www.serif.com/" style="fill-rule:evenodd;clip-rule:evenodd;stroke-linejoin:round;stroke-miterlimit:2;">
  <path d="M15.466,2.629L12.443,2.629L12.443,0.654C12.443,0.292 12.084,0 11.641,0L4.359,0C3.916,0 3.558,0.293 3.558,0.654L3.558,2.629L0.534,2.629C0.239,2.629 0,2.867 0,3.16L0,12.469C0,12.762 0.239,13 0.534,13L15.466,13C15.76,13 16,12.762 16,12.469L16,3.16C16,2.867 15.76,2.629 15.466,2.629ZM5.161,1.307L10.839,1.307L10.839,2.629L5.161,2.629L5.161,1.307Z" style="fill:rgb(96,98,110);fill-rule:nonzero;"/>
</svg>
