<?xml version="1.0" encoding="UTF-8" standalone="no"?>
<!DOCTYPE svg PUBLIC "-//W3C//DTD SVG 1.1//EN" "http://www.w3.org/Graphics/SVG/1.1/DTD/svg11.dtd">
<svg width="100%" height="100%" viewBox="0 0 16 16" version="1.1" xmlns="http://www.w3.org/2000/svg" xmlns:xlink="http://www.w3.org/1999/xlink" xml:space="preserve" xmlns:serif="http://www.serif.com/" style="fill-rule:evenodd;clip-rule:evenodd;stroke-linejoin:round;stroke-miterlimit:2;">
    <g transform="matrix(1,0,0,1,0.209631,-2.47933e-06)">
        <path d="M3.821,15.2L0.835,15.2L0.835,5.586L3.821,5.586L3.821,15.2ZM2.327,4.274C1.983,4.276 1.647,4.176 1.36,3.986C1.074,3.796 0.85,3.526 0.717,3.209C0.584,2.892 0.548,2.543 0.613,2.206C0.679,1.869 0.843,1.558 1.084,1.314C1.326,1.07 1.635,0.903 1.972,0.835C2.308,0.766 2.658,0.799 2.976,0.929C3.294,1.059 3.566,1.281 3.758,1.565C3.951,1.85 4.054,2.186 4.056,2.529C4.056,2.989 3.874,3.431 3.551,3.758C3.227,4.085 2.787,4.27 2.327,4.274ZM14.999,15.2L12.016,15.2L12.016,10.52C12.016,9.405 11.993,7.974 10.461,7.974C8.907,7.974 8.671,9.186 8.671,10.44L8.671,15.2L5.691,15.2L5.691,5.586L8.555,5.586L8.555,6.898L8.598,6.898C8.884,6.407 9.298,6.004 9.795,5.73C10.293,5.456 10.855,5.323 11.423,5.343C14.444,5.343 14.999,7.333 14.999,9.917L14.999,15.2Z" style="fill:white;fill-rule:nonzero;"/>
    </g>
</svg>
