<svg width="72" height="72" viewBox="0 0 72 72" fill="none" xmlns="http://www.w3.org/2000/svg">
<circle cx="36" cy="36" r="36" fill="#6D905A"/>
<path d="M25.7778 30.6663H45.2222V42.333H25.7778V30.6663ZM50.0833 36.4997C50.0833 38.1105 51.3891 39.4163 53 39.4163V45.2497C53 46.8605 51.6942 48.1663 50.0833 48.1663H20.9167C19.3058 48.1663 18 46.8605 18 45.2497V39.4163C19.6109 39.4163 20.9167 38.1105 20.9167 36.4997C20.9167 34.8888 19.6109 33.583 18 33.583V27.7497C18 26.1388 19.3058 24.833 20.9167 24.833H50.0833C51.6942 24.833 53 26.1388 53 27.7497V33.583C51.3891 33.583 50.0833 34.8888 50.0833 36.4997ZM47.1667 30.1802C47.1667 29.3748 46.5138 28.7219 45.7083 28.7219H25.2917C24.4862 28.7219 23.8333 29.3748 23.8333 30.1802V42.8191C23.8333 43.6245 24.4862 44.2775 25.2917 44.2775H45.7083C46.5138 44.2775 47.1667 43.6245 47.1667 42.8191V30.1802Z" fill="white"/>
</svg>
