<?xml version="1.0" encoding="UTF-8" standalone="no"?>
<!DOCTYPE svg PUBLIC "-//W3C//DTD SVG 1.1//EN" "http://www.w3.org/Graphics/SVG/1.1/DTD/svg11.dtd">
<svg width="100%" height="100%" viewBox="0 0 32 32" version="1.1" xmlns="http://www.w3.org/2000/svg" xmlns:xlink="http://www.w3.org/1999/xlink" xml:space="preserve" xmlns:serif="http://www.serif.com/" style="fill-rule:evenodd;clip-rule:evenodd;stroke-linejoin:round;stroke-miterlimit:2;">
    <g transform="matrix(1,0,0,1,4.39779,3.5)">
        <path d="M22.209,20.358C22.456,20.121 22.664,19.846 22.826,19.542C23.057,19.108 23.186,18.626 23.203,18.134L23.204,18.118C23.206,17.372 22.974,16.66 22.547,16.072C22.845,15.509 22.979,14.872 22.935,14.235C22.939,13.885 22.869,13.525 22.729,13.19L22.728,13.188C22.589,12.857 22.388,12.56 22.133,12.31C22.131,12.305 22.129,12.3 22.128,12.296C22.127,12.29 22.127,12.285 22.128,12.28C22.294,11.756 22.32,11.2 22.205,10.665L22.204,10.663C22.087,10.125 21.831,9.628 21.461,9.222C20.695,8.362 20.008,8.138 18.098,8.247L18.096,8.247C17.079,8.309 14.964,8.634 13.57,8.853L13.052,8.935C13.288,8.418 13.489,7.886 13.655,7.343L13.655,7.342C14.293,5.24 14.172,2.965 13.442,1.619C13.242,1.19 12.936,0.817 12.551,0.537L12.55,0.536C12.153,0.248 11.689,0.069 11.202,0.016L11.196,0.015C10.389,-0.062 9.589,0.163 8.948,0.649L8.861,0.715L8.79,0.798C8.641,0.973 8.531,1.187 8.463,1.473C8.404,1.722 8.39,2.1 8.241,2.679L8.235,2.702C8.081,3.45 7.878,4.163 7.624,4.858C7.219,5.702 5.594,7.075 4.735,7.835C4.498,8.043 4.294,8.224 4.148,8.364L4.131,8.38C3.542,8.997 3.03,9.653 2.588,10.355C2.391,10.662 2.174,10.955 1.941,11.234C1.781,11.393 1.585,11.489 1.374,11.519C1.013,11.537 0.674,11.688 0.421,11.943C0.151,12.214 0,12.579 0,12.96C0,12.96 0,21.772 0,21.772C0,21.965 0.037,22.151 0.11,22.328C0.185,22.51 0.294,22.674 0.434,22.811C0.569,22.945 0.727,23.05 0.903,23.122C1.085,23.197 1.281,23.234 1.476,23.231L1.487,23.231C2.611,23.186 3.718,23.383 4.747,23.808C5.646,24.182 6.595,24.43 7.567,24.544C9.667,24.82 11.781,24.972 13.899,25L13.911,25C15.005,24.988 16.086,24.913 17.16,24.778C18.315,24.643 19.513,24.409 20.438,23.908C21.191,23.501 21.78,22.926 22.114,22.135C22.261,21.797 22.332,21.43 22.324,21.062C22.318,20.822 22.28,20.585 22.209,20.358ZM20.521,16.423L20.52,16.422L20.521,16.424L20.526,16.451L20.537,16.46L20.823,17.118L20.85,17.149C20.855,17.154 20.859,17.159 20.863,17.165C21.06,17.396 21.177,17.683 21.2,17.984L21.203,18.048L21.201,18.004L21.2,17.984L21.203,18.048L21.204,18.067C21.195,18.262 21.147,18.44 21.061,18.601L21.06,18.602C20.971,18.769 20.846,18.913 20.694,19.024L20.636,19.07C20.438,19.238 20.287,19.454 20.199,19.698L20.197,19.703C20.112,19.947 20.092,20.206 20.136,20.455C20.159,20.599 20.204,20.741 20.268,20.872L20.268,20.874C20.304,20.947 20.322,21.026 20.324,21.106C20.326,21.186 20.311,21.266 20.279,21.34L20.275,21.347C20.072,21.83 19.646,22.104 19.153,22.305C18.484,22.578 17.689,22.703 16.924,22.792L16.919,22.792C15.921,22.918 14.922,22.988 13.922,23C11.875,22.973 9.841,22.826 7.821,22.561L7.814,22.56C7.017,22.467 6.246,22.265 5.512,21.96L5.511,21.959C4.393,21.499 3.203,21.25 2,21.226L2,13.429C2.528,13.29 3.012,13.007 3.395,12.609L3.438,12.562C3.74,12.204 4.019,11.828 4.272,11.434L4.274,11.43C4.642,10.846 5.064,10.303 5.536,9.805L6.059,9.334C7.102,8.411 9.006,6.659 9.457,5.658L9.484,5.593C9.779,4.795 10.013,3.977 10.186,3.144C10.286,2.749 10.353,2.333 10.385,2.107C10.573,2.022 10.781,1.986 10.989,2.005C11.13,2.021 11.261,2.072 11.374,2.154C11.487,2.237 11.578,2.348 11.635,2.477L11.675,2.555C12.22,3.534 12.211,5.213 11.741,6.76C11.556,7.369 11.317,7.961 11.029,8.528C10.824,8.858 10.69,9.223 10.635,9.604L10.608,9.796L10.653,9.984C10.723,10.268 10.842,10.475 11.003,10.639C11.222,10.862 11.625,11.114 12.623,11.014C12.798,10.998 13.304,10.921 13.881,10.829C15.218,10.618 17.243,10.303 18.216,10.243C19.188,10.188 19.581,10.116 19.971,10.556L19.976,10.561C20.115,10.713 20.207,10.893 20.25,11.087C20.291,11.282 20.282,11.484 20.221,11.673L20.219,11.681C20.113,12.029 20.099,12.39 20.178,12.736C20.255,13.081 20.42,13.4 20.657,13.662L20.72,13.726C20.79,13.791 20.846,13.871 20.884,13.96C20.921,14.05 20.938,14.147 20.935,14.244L20.934,14.3L20.938,14.356C20.962,14.636 20.901,14.918 20.765,15.164C20.647,15.347 20.565,15.547 20.523,15.76C20.479,15.978 20.478,16.204 20.521,16.423Z" style="fill:rgb(109,144,90);"/>
    </g>
</svg>
