<?xml version="1.0" encoding="UTF-8" standalone="no"?>
<!DOCTYPE svg PUBLIC "-//W3C//DTD SVG 1.1//EN" "http://www.w3.org/Graphics/SVG/1.1/DTD/svg11.dtd">
<svg width="100%" height="100%" viewBox="0 0 66 66" version="1.1" xmlns="http://www.w3.org/2000/svg" xmlns:xlink="http://www.w3.org/1999/xlink" xml:space="preserve" xmlns:serif="http://www.serif.com/" style="fill-rule:evenodd;clip-rule:evenodd;stroke-linejoin:round;stroke-miterlimit:2;">
    <path d="M33,0C51.213,0 66,14.787 66,33C66,51.213 51.213,66 33,66C14.787,66 0,51.213 0,33C0,14.787 14.787,0 33,0ZM43.659,24.679C43.48,24.643 43.337,24.607 43.158,24.607C42.263,24.607 41.475,25.18 41.188,26.112L40.149,30.983C40.114,31.198 39.827,31.162 39.791,30.983L37.642,18.053C37.463,16.942 36.496,16.154 35.422,16.262C34.383,16.369 33.631,17.265 33.631,18.339L33.631,18.554L34.419,26.577C34.454,26.828 34.096,26.864 34.061,26.649L31.876,17.086C31.625,16.011 30.622,15.331 29.619,15.581C28.724,15.76 28.115,16.584 28.115,17.515C28.115,17.623 28.115,17.73 28.151,17.874L29.798,28.081C29.834,28.296 29.512,28.404 29.44,28.153L26.826,19.808C26.503,18.841 25.536,18.303 24.605,18.554C23.781,18.769 23.28,19.557 23.28,20.381C23.28,20.524 23.315,20.703 23.351,20.846L25.644,30.338C25.679,30.517 25.393,30.624 25.357,30.41L23.817,25.61C23.423,24.643 22.348,24.213 21.453,24.571C20.522,24.965 20.235,26.04 20.45,27.043C21.238,30.374 22.277,34.851 22.993,36.57C24.247,39.865 27.649,42.444 29.154,43.519C29.655,43.841 29.977,44.378 30.121,44.951L30.909,48.64C31.016,49.142 31.482,49.5 31.983,49.5L40.866,49.5C41.582,49.5 42.119,48.819 41.94,48.103L40.722,43.626C40.543,42.91 40.687,42.157 41.116,41.584C42.298,40.08 44.483,36.856 44.841,33.633L45.235,27.114C45.379,26.004 44.698,24.965 43.659,24.679ZM34.383,41.477C29.942,39.185 27.864,37.716 27.291,35.209C26.969,33.705 27.9,32.236 29.404,31.878C30.873,31.556 32.377,32.487 32.699,33.991C32.377,32.487 33.308,31.018 34.777,30.696C36.281,30.374 37.75,31.305 38.108,32.809C38.681,35.245 37.248,37.68 34.383,41.477Z" style="fill:rgb(101,151,162);"/>
</svg>
