<?xml version="1.0" encoding="UTF-8" standalone="no"?>
<!DOCTYPE svg PUBLIC "-//W3C//DTD SVG 1.1//EN" "http://www.w3.org/Graphics/SVG/1.1/DTD/svg11.dtd">
<svg width="100%" height="100%" viewBox="0 0 66 66" version="1.1" xmlns="http://www.w3.org/2000/svg" xmlns:xlink="http://www.w3.org/1999/xlink" xml:space="preserve" xmlns:serif="http://www.serif.com/" style="fill-rule:evenodd;clip-rule:evenodd;stroke-linejoin:round;stroke-miterlimit:2;">
    <path d="M33,0C51.213,0 66,14.787 66,33C66,51.213 51.213,66 33,66C14.787,66 0,51.213 0,33C0,14.787 14.787,0 33,0ZM50.906,27.517C50.909,30.319 49.738,33.036 47.604,35.173C46.335,36.439 44.872,37.902 43.377,39.397L34.749,47.952C34.376,48.326 33.875,48.529 33.338,48.529C32.764,48.529 32.22,48.301 31.81,47.887C31.407,47.484 31.182,46.955 31.171,46.396C31.161,45.848 31.363,45.333 31.745,44.948L40.133,36.556L39.35,35.772L30.961,44.165C30.587,44.535 30.083,44.741 29.55,44.741C28.98,44.741 28.436,44.513 28.022,44.1C27.609,43.686 27.38,43.145 27.38,42.572C27.38,42.035 27.583,41.534 27.957,41.16L36.345,32.768L35.453,31.875L27.06,40.264C26.687,40.638 26.186,40.841 25.649,40.841C25.076,40.841 24.531,40.612 24.121,40.2C23.719,39.796 23.494,39.267 23.483,38.708C23.468,38.16 23.675,37.645 24.056,37.26L32.042,29.274L32.285,29.517C32.931,30.16 33.801,30.512 34.734,30.512C35.754,30.512 36.774,30.08 37.532,29.329C39.027,27.827 39.114,25.472 37.72,24.079L33.831,20.189C35.717,18.433 38.163,17.471 40.75,17.471C43.453,17.471 46.001,18.523 47.923,20.432C49.843,22.34 50.903,24.858 50.906,27.517ZM31.258,28.49L23.273,36.476C22.899,36.846 22.394,37.053 21.861,37.053C21.292,37.053 20.747,36.825 20.334,36.411C19.92,35.998 19.692,35.457 19.692,34.883C19.692,34.347 19.895,33.846 20.269,33.472L28.254,25.486L31.258,28.49ZM36.886,28.682C36.305,29.263 35.522,29.597 34.734,29.597C34.041,29.597 33.399,29.339 32.927,28.871L25.794,21.734L25.148,22.38L27.612,24.843L19.626,32.829C19.39,33.065 19.201,33.338 19.06,33.639C18.839,34.106 18.748,34.622 18.791,35.134C16.683,33.004 15.526,30.3 15.529,27.518C15.533,24.858 16.592,22.34 18.512,20.431C20.431,18.523 22.978,17.471 25.685,17.471C27.285,17.471 28.809,17.83 30.217,18.534C30.79,18.817 31.349,19.165 31.875,19.575L32.126,19.771L37.078,24.72C38.112,25.762 38.029,27.539 36.886,28.682Z" style="fill:rgb(101,151,162);"/>
</svg>
