<?xml version="1.0" encoding="UTF-8" standalone="no"?>
<!DOCTYPE svg PUBLIC "-//W3C//DTD SVG 1.1//EN" "http://www.w3.org/Graphics/SVG/1.1/DTD/svg11.dtd">
<svg width="100%" height="100%" viewBox="0 0 124 124" version="1.1" xmlns="http://www.w3.org/2000/svg" xmlns:xlink="http://www.w3.org/1999/xlink" xml:space="preserve" xmlns:serif="http://www.serif.com/" style="fill-rule:evenodd;clip-rule:evenodd;stroke-linejoin:round;stroke-miterlimit:2;">
    <g transform="matrix(1,0,0,1,42,12)">
        <path d="M19.998,23.194C26.403,23.194 31.595,18.001 31.595,11.597C31.595,5.192 26.403,0 19.998,0C13.594,0 8.401,5.192 8.401,11.597C8.403,18.001 13.595,23.194 19.998,23.194ZM19.998,4.329C24.007,4.329 27.268,7.589 27.268,11.598C27.268,15.607 24.007,18.868 19.998,18.868C15.989,18.868 12.729,15.607 12.729,11.598C12.729,7.589 15.991,4.329 19.998,4.329Z" style="fill:white;fill-rule:nonzero;"/>
    </g>
    <g transform="matrix(1,0,0,1,42,12)">
        <path d="M33.533,71.593C36.936,71.593 39.72,68.809 39.72,65.406L39.72,43.447C39.72,40.959 39.016,38.633 37.817,36.636C35.483,32.75 31.238,30.127 26.4,30.127L13.6,30.127C8.762,30.127 4.517,32.75 2.184,36.636C0.983,38.633 0.28,40.96 0.28,43.447L0.28,65.405C0.28,68.807 3.065,71.592 6.467,71.592L7.143,71.592L7.143,93.813C7.143,97.216 9.927,100 13.33,100L26.672,100C30.075,100 32.859,97.216 32.859,93.813L32.859,71.593L33.533,71.593ZM28.531,67.265L28.531,93.814C28.531,94.822 27.679,95.674 26.671,95.674L13.327,95.674C12.319,95.674 11.467,94.822 11.467,93.814L11.467,67.266L6.465,67.266C5.457,67.266 4.605,66.414 4.605,65.406L4.605,43.447C4.605,38.489 8.639,34.453 13.599,34.453L26.399,34.453C31.358,34.453 35.393,38.487 35.393,43.447L35.393,65.405C35.393,66.413 34.541,67.265 33.533,67.265L28.531,67.265Z" style="fill:white;fill-rule:nonzero;"/>
    </g>
</svg>
