<?xml version="1.0" encoding="UTF-8" standalone="no"?>
<!DOCTYPE svg PUBLIC "-//W3C//DTD SVG 1.1//EN" "http://www.w3.org/Graphics/SVG/1.1/DTD/svg11.dtd">
<svg width="100%" height="100%" viewBox="0 0 58 58" version="1.1" xmlns="http://www.w3.org/2000/svg" xmlns:xlink="http://www.w3.org/1999/xlink" xml:space="preserve" xmlns:serif="http://www.serif.com/" style="fill-rule:evenodd;clip-rule:evenodd;stroke-linejoin:round;stroke-miterlimit:2;">
    <g transform="matrix(1,0,0,1,7.2609,9)">
        <path d="M1.495,0.2C1.152,0.2 0.823,0.336 0.579,0.579C0.336,0.823 0.2,1.152 0.2,1.495C0.2,1.495 0.2,38.507 0.2,38.507C0.2,38.759 0.275,39.009 0.417,39.222C0.556,39.431 0.754,39.596 0.987,39.696C1.219,39.795 1.474,39.824 1.723,39.78L1.724,39.78C1.975,39.735 2.206,39.617 2.39,39.441C2.389,39.442 12.393,29.918 12.393,29.918C12.393,29.918 41.983,29.918 41.983,29.918C42.326,29.918 42.655,29.782 42.899,29.539C43.142,29.296 43.278,28.967 43.278,28.622C43.278,28.622 43.278,1.495 43.278,1.495C43.278,1.152 43.142,0.823 42.899,0.579C42.655,0.336 42.326,0.2 41.983,0.2L1.495,0.2ZM40.688,27.327L11.872,27.327C11.535,27.33 11.217,27.459 10.977,27.691C10.982,27.686 2.79,35.469 2.79,35.469C2.79,35.469 2.79,2.79 2.79,2.79C2.79,2.79 40.688,2.79 40.688,2.79L40.688,27.327Z" style="fill:rgb(109,144,90);"/>
    </g>
    <g transform="matrix(1,0,0,1,7.2609,9)">
        <path d="M22.341,13.304L22.341,10.714L11.951,10.714L11.951,13.304L22.341,13.304Z" style="fill:rgb(109,144,90);"/>
    </g>
    <g transform="matrix(1,0,0,1,7.2609,9)">
        <path d="M32.245,20.236L32.245,17.646L11.951,17.646L11.951,20.236L32.245,20.236Z" style="fill:rgb(109,144,90);"/>
    </g>
</svg>
