<svg width="27" height="23" viewBox="0 0 27 23" fill="none" xmlns="http://www.w3.org/2000/svg">
<path opacity="0.5" d="M13.197 4.66368C14.7819 4.65867 16.3042 5.27045 17.4293 6.36467C18.5545 7.4589 19.1905 8.9461 19.1979 10.4997C19.198 11.2318 19.0521 11.9569 18.7682 12.6341L22.2724 16.0393C24.0982 14.561 25.5141 12.6551 26.3889 10.498C25.0215 7.15249 22.3844 4.45666 19.0317 2.97696C15.679 1.49725 11.8716 1.34885 8.40964 2.56293L11.001 5.08564C11.699 4.80973 12.4443 4.66653 13.197 4.66368ZM1.20102 1.48341L3.93974 4.14404L4.49335 4.68092C2.4876 6.18781 0.935002 8.19838 0 10.4997C1.40263 13.9224 4.13117 16.6614 7.58875 18.1174C11.0463 19.5733 14.9515 19.6278 18.4499 18.2689L18.9525 18.7615L22.4701 22.1667L23.9952 20.6816L2.72197 0L1.20102 1.48341ZM7.8309 7.93097L9.69189 9.73701C9.63074 9.98462 9.59898 10.2383 9.59725 10.4931C9.59879 10.9547 9.69323 11.4115 9.87516 11.8373C10.0571 12.2631 10.3229 12.6496 10.6575 12.9745C10.992 13.2994 11.3887 13.5565 11.8247 13.7309C12.2608 13.9054 12.7277 13.9938 13.1986 13.9911C13.4605 13.99 13.7213 13.9591 13.9759 13.8991L15.8369 15.7052C14.928 16.1507 13.9181 16.3615 12.9028 16.3174C11.8876 16.2734 10.9006 15.976 10.0354 15.4534C9.17027 14.9309 8.45553 14.2005 7.95893 13.3314C7.46234 12.4624 7.20033 11.4834 7.19773 10.4873C7.20498 9.59878 7.42168 8.72388 7.8309 7.93097ZM13.001 7.02795L16.7816 10.7049L16.805 10.5202C16.8035 10.0585 16.7091 9.60174 16.5271 9.17594C16.3452 8.75014 16.0793 8.3637 15.7448 8.03877C15.4103 7.71383 15.0136 7.45678 14.5776 7.28234C14.1415 7.10791 13.6746 7.01951 13.2037 7.02221L13.001 7.02795Z" fill="#303C48"/>
</svg>
