<?xml version="1.0" encoding="UTF-8" standalone="no"?>
<!DOCTYPE svg PUBLIC "-//W3C//DTD SVG 1.1//EN" "http://www.w3.org/Graphics/SVG/1.1/DTD/svg11.dtd">
<svg width="100%" height="100%" viewBox="0 0 32 32" version="1.1" xmlns="http://www.w3.org/2000/svg" xmlns:xlink="http://www.w3.org/1999/xlink" xml:space="preserve" xmlns:serif="http://www.serif.com/" style="fill-rule:evenodd;clip-rule:evenodd;stroke-linejoin:round;stroke-miterlimit:2;">
    <g transform="matrix(1,0,0,1,3.01074,3.39842)">
        <path d="M12.989,2.682C13.587,2.148 14.262,1.702 14.993,1.363C16.054,0.87 17.207,0.611 18.374,0.602C19.376,0.592 20.369,0.782 21.297,1.16C22.224,1.54 23.065,2.099 23.773,2.807C24.481,3.515 25.04,4.356 25.42,5.284C25.798,6.211 25.988,7.204 25.978,8.196C25.978,10.676 24.903,12.944 22.943,15.342C21.126,17.564 18.531,19.926 15.399,22.772L12.986,24.952L12.316,24.341C12.316,24.341 10.578,22.758 10.579,22.76C7.448,19.92 4.853,17.561 3.036,15.341C1.076,12.944 0,10.676 0,8.205C-0.009,7.203 0.18,6.21 0.559,5.284C0.937,4.357 1.498,3.515 2.206,2.807C2.914,2.099 3.755,1.54 4.683,1.16C5.61,0.782 6.603,0.592 7.602,0.602C8.771,0.611 9.925,0.87 10.984,1.363C11.716,1.702 12.391,2.148 12.989,2.682ZM12.992,22.252L14.055,21.291C17.099,18.525 19.629,16.236 21.394,14.076C23.015,12.092 23.978,10.248 23.978,8.186C23.986,7.45 23.846,6.721 23.568,6.041C23.29,5.36 22.879,4.741 22.359,4.221C21.839,3.701 21.22,3.29 20.54,3.012C19.859,2.734 19.13,2.594 18.392,2.602C17.509,2.609 16.638,2.804 15.836,3.177C15.035,3.549 14.323,4.089 13.748,4.759L12.989,5.644L12.23,4.759C11.655,4.089 10.943,3.549 10.141,3.177C9.341,2.804 8.469,2.609 7.584,2.602C6.849,2.594 6.12,2.734 5.44,3.012C4.759,3.29 4.14,3.701 3.62,4.221C3.1,4.741 2.689,5.359 2.411,6.041C2.132,6.722 1.993,7.451 2,8.196C2,10.248 2.963,12.092 4.584,14.074C6.35,16.232 8.88,18.519 11.924,21.279L12.992,22.252Z" style="fill:white;"/>
    </g>
</svg>
