<?xml version="1.0" encoding="UTF-8" standalone="no"?>
<!DOCTYPE svg PUBLIC "-//W3C//DTD SVG 1.1//EN" "http://www.w3.org/Graphics/SVG/1.1/DTD/svg11.dtd">
<svg width="100%" height="100%" viewBox="0 0 67 66" version="1.1" xmlns="http://www.w3.org/2000/svg" xmlns:xlink="http://www.w3.org/1999/xlink" xml:space="preserve" xmlns:serif="http://www.serif.com/" style="fill-rule:evenodd;clip-rule:evenodd;stroke-linejoin:round;stroke-miterlimit:2;">
    <path d="M33.5,0C51.713,0 66.5,14.787 66.5,33C66.5,51.213 51.713,66 33.5,66C15.287,66 0.5,51.213 0.5,33C0.5,14.787 15.287,0 33.5,0ZM36.56,34.511L30.363,34.511C28.659,34.511 27.265,35.905 27.265,37.609L27.265,45.974C27.265,46.593 27.575,47.213 28.195,47.368C31.603,48.917 35.165,48.917 38.728,47.368C39.348,47.058 39.658,46.593 39.658,45.974L39.658,37.609C39.658,35.905 38.264,34.511 36.56,34.511ZM45.854,28.314L41.207,28.314C41.207,29.863 40.742,31.257 39.968,32.497C41.672,33.581 42.756,35.44 42.756,37.609L42.756,42.256C44.46,42.256 46.319,41.946 48.023,41.172C48.642,40.862 48.952,40.397 48.952,39.777L48.952,31.412C48.952,29.708 47.558,28.314 45.854,28.314ZM25.716,28.314L21.069,28.314C19.365,28.314 17.971,29.708 17.971,31.412L17.971,39.777C17.971,40.397 18.281,41.017 18.9,41.172C20.604,41.946 22.308,42.256 24.167,42.256L24.167,37.609C24.167,35.44 25.251,33.581 26.955,32.497C26.181,31.257 25.716,29.863 25.716,28.314ZM33.461,32.961C36.028,32.961 38.109,30.881 38.109,28.314C38.109,25.747 36.028,23.667 33.461,23.667C30.895,23.667 28.814,25.747 28.814,28.314C28.814,30.881 30.895,32.961 33.461,32.961ZM42.756,26.765C45.322,26.765 47.403,24.685 47.403,22.118C47.403,19.551 45.322,17.471 42.756,17.471C40.189,17.471 38.108,19.551 38.108,22.118C38.108,24.685 40.189,26.765 42.756,26.765ZM24.167,26.765C26.734,26.765 28.814,24.685 28.814,22.118C28.814,19.551 26.734,17.471 24.167,17.471C21.6,17.471 19.52,19.551 19.52,22.118C19.52,24.685 21.6,26.765 24.167,26.765Z" style="fill:rgb(101,151,162);"/>
</svg>
