<?xml version="1.0" encoding="UTF-8" standalone="no"?>
<!DOCTYPE svg PUBLIC "-//W3C//DTD SVG 1.1//EN" "http://www.w3.org/Graphics/SVG/1.1/DTD/svg11.dtd">
<svg width="100%" height="100%" viewBox="0 0 16 16" version="1.1" xmlns="http://www.w3.org/2000/svg" xmlns:xlink="http://www.w3.org/1999/xlink" xml:space="preserve" xmlns:serif="http://www.serif.com/" style="fill-rule:evenodd;clip-rule:evenodd;stroke-linejoin:round;stroke-miterlimit:2;">
    <g transform="matrix(0.777778,0,0,0.777778,1,1)">
        <path d="M16.714,0L1.282,0C0.94,0.003 0.613,0.141 0.373,0.384C0.132,0.627 -0.002,0.956 0,1.298L0,16.702C-0.002,17.044 0.132,17.373 0.373,17.616C0.613,17.859 0.94,17.997 1.282,18L16.714,18C17.057,17.998 17.384,17.86 17.625,17.616C17.866,17.373 18.001,17.045 18,16.702L18,1.298C18.001,0.955 17.866,0.627 17.625,0.383C17.384,0.14 17.057,0.002 16.714,0ZM5.444,15.429L2.773,15.429L2.773,6.838L5.444,6.838L5.444,15.429ZM4.106,5.665C3.8,5.665 3.501,5.574 3.247,5.404C2.993,5.234 2.794,4.993 2.677,4.71C2.56,4.428 2.529,4.117 2.589,3.817C2.649,3.516 2.796,3.241 3.013,3.024C3.229,2.808 3.504,2.661 3.805,2.601C4.105,2.541 4.416,2.572 4.698,2.689C4.981,2.806 5.222,3.005 5.392,3.259C5.562,3.513 5.653,3.812 5.653,4.118C5.653,4.528 5.49,4.922 5.2,5.212C4.91,5.502 4.517,5.665 4.106,5.665ZM15.441,15.429L12.773,15.429L12.773,11.25C12.773,10.254 12.753,8.972 11.386,8.972C9.996,8.972 9.783,10.058 9.783,11.178L9.783,15.429L7.115,15.429L7.115,6.838L9.675,6.838L9.675,8.011L9.711,8.011C9.968,7.574 10.338,7.214 10.783,6.969C11.228,6.725 11.731,6.606 12.238,6.625C14.938,6.625 15.438,8.405 15.438,10.719L15.441,15.429Z" style="fill:rgb(48,60,72);fill-rule:nonzero;"/>
    </g>
</svg>
