<?xml version="1.0" encoding="UTF-8" standalone="no"?>
<!DOCTYPE svg PUBLIC "-//W3C//DTD SVG 1.1//EN" "http://www.w3.org/Graphics/SVG/1.1/DTD/svg11.dtd">
<svg width="100%" height="100%" viewBox="0 0 124 124" version="1.1" xmlns="http://www.w3.org/2000/svg" xmlns:xlink="http://www.w3.org/1999/xlink" xml:space="preserve" xmlns:serif="http://www.serif.com/" style="fill-rule:evenodd;clip-rule:evenodd;stroke-linejoin:round;stroke-miterlimit:2;">
    <g transform="matrix(1,0,0,1,7.5,13)">
        <path d="M38.097,0.003C37.095,0.003 36.282,0.816 36.282,1.818L36.282,27.36L25.259,48.137L25.252,48.137L0.214,95.335C-0.427,96.543 0.448,97.999 1.816,98L107.058,98C108.51,97.998 109.371,96.376 108.56,95.171L74.08,44.422C74.047,44.372 74.012,44.328 73.974,44.281C73.934,44.234 73.891,44.19 73.846,44.147C73.585,43.896 73.254,43.727 72.896,43.665L72.868,43.665C72.474,43.599 72.07,43.665 71.719,43.857C71.7,43.857 71.681,43.893 71.662,43.893C71.456,44.017 71.275,44.176 71.131,44.368L71.116,44.368L58.633,61.332L51.409,48.196C51.394,48.16 51.377,48.135 51.36,48.106L39.911,27.278L39.911,3.63L59.122,3.63L54.961,7.791C54.252,8.5 54.252,9.648 54.961,10.357L59.122,14.518L45.355,14.518C42.901,14.482 42.901,18.182 45.355,18.148L63.503,18.148C65.119,18.147 65.928,16.193 64.786,15.05L58.81,9.074L64.786,3.098C65.929,1.955 65.12,0 63.503,0L38.096,0L38.097,0.003ZM38.147,31.606L41.691,38.057L47.228,48.13L44.378,49.392L39.522,45.089C38.834,44.478 37.799,44.478 37.112,45.089L32.256,49.392L29.385,48.116L38.147,31.606ZM72.513,48.598L82.069,62.655L78.766,63.966L73.201,59.542C72.539,59.016 71.601,59.016 70.94,59.542L65.382,63.966L62.157,62.683L72.513,48.598ZM38.317,48.873L42.84,52.886C43.373,53.357 44.132,53.474 44.782,53.183L48.986,51.319L56.266,64.568L46.122,78.363C44.516,80.335 47.639,82.631 49.042,80.511L59.931,65.709L65.013,67.73C65.618,67.969 66.305,67.868 66.814,67.461L72.074,63.278L77.327,67.461C77.835,67.867 78.522,67.969 79.127,67.73L84.161,65.731L103.626,94.377L4.836,94.377L27.676,51.333L31.852,53.183C32.502,53.474 33.261,53.357 33.794,52.886L38.317,48.873ZM36.289,54.446L36.289,58.076L39.919,58.076L39.919,54.446L36.289,54.446ZM36.289,61.705L36.289,65.335L39.919,65.335L39.919,61.705L36.289,61.705ZM36.289,68.964L36.289,72.594L39.919,72.594L39.919,68.964L36.289,68.964Z" style="fill:white;"/>
    </g>
</svg>
