<?xml version="1.0" encoding="UTF-8" standalone="no"?>
<!DOCTYPE svg PUBLIC "-//W3C//DTD SVG 1.1//EN" "http://www.w3.org/Graphics/SVG/1.1/DTD/svg11.dtd">
<svg width="100%" height="100%" viewBox="0 0 66 66" version="1.1" xmlns="http://www.w3.org/2000/svg" xmlns:xlink="http://www.w3.org/1999/xlink" xml:space="preserve" xmlns:serif="http://www.serif.com/" style="fill-rule:evenodd;clip-rule:evenodd;stroke-linejoin:round;stroke-miterlimit:2;">
    <path d="M33,0C51.213,0 66,14.787 66,33C66,51.213 51.213,66 33,66C14.787,66 0,51.213 0,33C0,14.787 14.787,0 33,0ZM33.024,23.879L33.024,26.138L31.063,26.138L31.063,30.618L26.596,30.618L26.596,35.228L31.063,35.228L31.063,39.695L35.673,39.695L38.076,42.344C35.543,44.929 33.076,47.902 32.972,49.5C32.894,48.422 31.791,46.838 30.336,45.189C28.894,43.539 27.102,41.825 25.622,40.487C23.765,38.786 21.311,37.358 19.272,35.605C16.831,33.475 15.013,30.865 15.662,26.683C16.129,23.93 17.48,21.956 19.272,20.697C21.61,19.035 28.973,17.008 32.959,23.488L33.024,23.879ZM33.024,23.878C34.232,20.904 35.881,19.463 38.751,18.723C42.569,17.826 47.05,19.048 49.283,22.723C49.867,23.697 50.296,24.852 50.517,26.177C50.933,28.8 50.361,30.8 49.283,32.475C48.4,33.812 47.166,34.929 45.855,35.955L45.842,35.955C44.063,37.332 42.102,38.552 40.557,39.968C39.778,40.682 38.921,41.487 38.076,42.344L35.674,39.695L35.674,35.228L40.154,35.228L40.154,30.618L35.674,30.618L35.674,26.138L33.025,26.138L33.024,23.878Z" style="fill:rgb(101,151,162);"/>
</svg>
