<?xml version="1.0" encoding="UTF-8" standalone="no"?>
<!DOCTYPE svg PUBLIC "-//W3C//DTD SVG 1.1//EN" "http://www.w3.org/Graphics/SVG/1.1/DTD/svg11.dtd">
<svg width="100%" height="100%" viewBox="0 0 58 58" version="1.1" xmlns="http://www.w3.org/2000/svg" xmlns:xlink="http://www.w3.org/1999/xlink" xml:space="preserve" xmlns:serif="http://www.serif.com/" style="fill-rule:evenodd;clip-rule:evenodd;stroke-linejoin:round;stroke-miterlimit:2;">
    <g transform="matrix(1,0,0,1,3.25805,10)">
        <path d="M9.806,0C4.395,0 0,4.395 0,9.806L0,28.194C0,33.605 4.395,38 9.806,38L41.677,38C47.089,38 51.484,33.605 51.484,28.194L51.484,9.806C51.484,4.395 47.089,0 41.677,0L9.806,0ZM9.806,2.452L41.677,2.452C45.773,2.452 49.032,5.711 49.032,9.806L49.032,28.194C49.032,32.289 45.773,35.548 41.677,35.548L9.806,35.548C5.711,35.548 2.452,32.289 2.452,28.194L2.452,9.806C2.452,5.711 5.711,2.452 9.806,2.452ZM20.743,9.806C20.435,9.831 20.147,9.97 19.938,10.198C19.728,10.425 19.612,10.723 19.613,11.032L19.613,26.968C19.609,27.259 19.708,27.543 19.895,27.768C20.081,27.993 20.341,28.143 20.628,28.194C20.918,28.246 21.217,28.191 21.471,28.04L34.955,20.073C35.142,19.965 35.297,19.81 35.405,19.624C35.513,19.437 35.57,19.225 35.57,19.01C35.57,18.794 35.513,18.582 35.405,18.395C35.297,18.209 35.142,18.054 34.955,17.947L21.471,9.979C21.252,9.847 20.998,9.787 20.743,9.806ZM22.065,13.197L31.89,19L22.065,24.823L22.065,13.197Z" style="fill:rgb(109,144,90);fill-rule:nonzero;"/>
    </g>
</svg>
