<svg width="16" height="16" viewBox="0 0 16 16" fill="none" xmlns="http://www.w3.org/2000/svg">
  <path d="M15.5233 8.94116H8.54418L13.1921 13.5891C13.3698 13.7667 13.6621 13.7811 13.8448 13.6091C14.983 12.5367 15.7659 11.0912 15.9957 9.46616C16.0351 9.18792 15.8042 8.94116 15.5233 8.94116ZM15.0577 7.03528C14.8154 3.52176 12.0077 0.714117 8.49418 0.471765C8.22595 0.453235 8.00006 0.679411 8.00006 0.948234V7.5294H14.5815C14.8504 7.5294 15.0762 7.30352 15.0577 7.03528ZM6.5883 8.94116V1.96206C6.5883 1.68117 6.34153 1.45029 6.06359 1.4897C2.55859 1.985 -0.120524 5.04705 0.00418193 8.71675C0.132417 12.4856 3.37742 15.5761 7.14801 15.5288C8.63036 15.5103 10.0001 15.0326 11.1262 14.2338C11.3586 14.0691 11.3739 13.727 11.1724 13.5256L6.5883 8.94116Z" fill="#60626E"/>
</svg>
