<?xml version="1.0" encoding="UTF-8" standalone="no"?>
<!DOCTYPE svg PUBLIC "-//W3C//DTD SVG 1.1//EN" "http://www.w3.org/Graphics/SVG/1.1/DTD/svg11.dtd">
<svg width="100%" height="100%" viewBox="0 0 124 124" version="1.1" xmlns="http://www.w3.org/2000/svg" xmlns:xlink="http://www.w3.org/1999/xlink" xml:space="preserve" xmlns:serif="http://www.serif.com/" style="fill-rule:evenodd;clip-rule:evenodd;stroke-linejoin:round;stroke-miterlimit:2;">
    <path d="M86.548,35.88C86.548,22.412 75.6,11.5 62.168,11.5C48.736,11.5 37.788,22.412 37.788,35.88C37.788,49.348 48.736,60.26 62.168,60.26C75.6,60.26 86.548,49.348 86.548,35.88ZM41.434,35.88C41.434,24.445 50.733,15.146 62.168,15.146C73.603,15.146 82.903,24.445 82.903,35.88C82.903,47.315 73.603,56.615 62.168,56.615C50.733,56.615 41.434,47.315 41.434,35.88Z" style="fill:rgb(109,144,90);fill-rule:nonzero;"/>
    <path d="M26.612,84.627C27.33,73.088 34.063,67.838 42.968,65.489C48.819,63.946 55.619,63.669 62.238,63.669C68.857,63.669 75.646,63.946 81.484,65.489C90.369,67.838 97.076,73.088 97.794,84.628C97.869,84.839 97.906,85.051 97.906,85.263C97.906,85.263 97.906,110.66 97.906,110.66C97.906,111.676 97.082,112.5 96.065,112.5C96.065,112.5 28.34,112.5 28.34,112.5C27.324,112.5 26.5,111.676 26.5,110.66C26.5,110.66 26.5,85.263 26.5,85.263C26.5,85.05 26.536,84.839 26.612,84.627ZM48.949,68.058C41.748,68.99 36.415,71.034 33.297,75.178C31.194,77.972 30.11,81.712 30.11,86.674L30.11,108.819L57.727,108.819C57.65,108.505 57.611,108.178 57.611,107.838C57.611,105.306 59.708,103.211 62.238,103.211C64.77,103.211 66.865,105.267 66.865,107.838C66.865,108.178 66.815,108.505 66.734,108.819L94.26,108.819L94.26,86.674C94.26,81.726 93.181,77.994 91.086,75.203C87.977,71.063 82.657,69.011 75.455,68.059L63.799,89.007C63.46,89.587 62.88,89.925 62.203,89.925C61.526,89.925 60.946,89.587 60.605,89.003L48.949,68.058ZM62.167,108.819C61.63,108.819 61.186,108.375 61.186,107.838C61.186,107.3 61.63,106.856 62.167,106.856C62.705,106.856 63.149,107.3 63.149,107.838C63.149,108.375 62.705,108.819 62.167,108.819ZM71.44,67.643C68.591,67.438 65.483,67.35 62.167,67.35C58.852,67.35 55.744,67.438 52.895,67.643L62.167,84.339L71.44,67.643Z" style="fill:rgb(109,144,90);fill-rule:nonzero;"/>
    <path d="M62.167,101.213C64.737,101.213 66.794,99.12 66.794,96.55C66.794,93.98 64.699,91.923 62.167,91.923C59.637,91.923 57.54,94.02 57.54,96.55C57.54,99.08 59.597,101.213 62.167,101.213ZM62.167,95.569C62.704,95.569 63.149,96.013 63.149,96.55C63.149,97.091 62.708,97.567 62.167,97.567C61.626,97.567 61.186,97.115 61.186,96.55C61.186,95.99 61.63,95.569 62.167,95.569Z" style="fill:rgb(109,144,90);fill-rule:nonzero;"/>
</svg>
