<?xml version="1.0" encoding="UTF-8" standalone="no"?>
<!DOCTYPE svg PUBLIC "-//W3C//DTD SVG 1.1//EN" "http://www.w3.org/Graphics/SVG/1.1/DTD/svg11.dtd">
<svg width="100%" height="100%" viewBox="0 0 24 24" version="1.1" xmlns="http://www.w3.org/2000/svg" xmlns:xlink="http://www.w3.org/1999/xlink" xml:space="preserve" xmlns:serif="http://www.serif.com/" style="fill-rule:evenodd;clip-rule:evenodd;stroke-linejoin:round;stroke-miterlimit:2;">
    <g transform="matrix(1,0,0,1,4.64999,5)">
        <path d="M7.149,13.802L7.35,14L7.551,13.802C7.893,13.465 8.308,13.046 8.768,12.581C9.106,12.238 9.47,11.871 9.847,11.493C11.937,9.4 12.606,8.68 13.325,7.599C14.092,6.446 14.647,5.613 14.694,4.375C14.751,3.297 14.412,2.236 13.745,1.407C13.18,0.718 12.409,0.246 11.554,0.066C10.723,-0.09 9.866,0.033 9.107,0.416C8.421,0.746 7.819,1.239 7.35,1.855C6.881,1.239 6.279,0.746 5.593,0.416C4.834,0.033 3.977,-0.09 3.146,0.066C2.292,0.246 1.52,0.718 0.955,1.407C0.288,2.236 -0.051,3.297 0.006,4.375C0.053,5.613 0.608,6.446 1.375,7.599C2.094,8.68 2.763,9.4 4.853,11.493C5.23,11.871 5.594,12.238 5.932,12.581C6.392,13.046 6.807,13.465 7.149,13.802Z" style="fill:rgb(109,144,90);fill-rule:nonzero;"/>
    </g>
</svg>
