<svg width="100%" height="100%" viewBox="0 0 16 16" version="1.1" xmlns="http://www.w3.org/2000/svg" xmlns:xlink="http://www.w3.org/1999/xlink" xml:space="preserve" xmlns:serif="http://www.serif.com/" style="fill-rule:evenodd;clip-rule:evenodd;stroke-linejoin:round;stroke-miterlimit:2;">
  <path d="M2.4,7.2C3.283,7.2 4,6.482 4,5.6C4,4.717 3.283,4 2.4,4C1.518,4 0.8,4.717 0.8,5.6C0.8,6.482 1.518,7.2 2.4,7.2ZM13.6,7.2C14.483,7.2 15.2,6.482 15.2,5.6C15.2,4.717 14.483,4 13.6,4C12.718,4 12,4.717 12,5.6C12,6.482 12.718,7.2 13.6,7.2ZM14.4,8L12.8,8C12.36,8 11.963,8.177 11.673,8.465C12.68,9.017 13.395,10.015 13.55,11.2L15.2,11.2C15.643,11.2 16,10.843 16,10.4L16,9.6C16,8.717 15.283,8 14.4,8ZM8,8C9.548,8 10.8,6.747 10.8,5.2C10.8,3.652 9.548,2.4 8,2.4C6.453,2.4 5.2,3.652 5.2,5.2C5.2,6.747 6.453,8 8,8ZM9.92,8.8L9.713,8.8C9.193,9.05 8.615,9.2 8,9.2C7.385,9.2 6.81,9.05 6.287,8.8L6.08,8.8C4.49,8.8 3.2,10.09 3.2,11.68L3.2,12.4C3.2,13.063 3.737,13.6 4.4,13.6L11.6,13.6C12.262,13.6 12.8,13.063 12.8,12.4L12.8,11.68C12.8,10.09 11.51,8.8 9.92,8.8ZM4.328,8.465C4.037,8.177 3.64,8 3.2,8L1.6,8C0.718,8 0,8.717 0,9.6L0,10.4C0,10.843 0.358,11.2 0.8,11.2L2.447,11.2C2.605,10.015 3.32,9.017 4.328,8.465Z" style="fill:rgb(96,98,110);fill-rule:nonzero;"/>
</svg>
