<svg width="48" height="48" viewBox="0 0 48 48" fill="none" xmlns="http://www.w3.org/2000/svg">
<path d="M23.9993 0C10.7658 0 0 10.7666 0 24C0 37.2334 10.7658 48 23.9993 48C37.2327 48 47.9986 37.2334 47.9986 24C47.9986 10.7666 37.2327 0 23.9993 0ZM44.4254 24C44.4254 28.9895 42.6239 33.5653 39.6417 37.117L10.883 8.35684C14.4347 5.37399 19.0098 3.57313 23.9993 3.57313C35.2625 3.57313 44.4254 12.7368 44.4254 24ZM3.57313 24C3.57313 19.0105 5.3747 14.4347 8.35612 10.8838L37.1155 39.6432C33.5646 42.626 28.9888 44.4269 23.9993 44.4269C12.7361 44.4269 3.57313 35.2632 3.57313 24Z" fill="#303C48"/>
</svg>
