<?xml version="1.0" encoding="UTF-8" standalone="no"?>
<svg width="100%" height="100%" viewBox="0 0 24 24" version="1.1" xmlns="http://www.w3.org/2000/svg" xmlns:xlink="http://www.w3.org/1999/xlink" xml:space="preserve" xmlns:serif="http://www.serif.com/" style="fill-rule:evenodd;clip-rule:evenodd;stroke-linejoin:round;stroke-miterlimit:2;">
    <g transform="matrix(1,0,0,1,-2.80889,-0.998999)">
        <g transform="matrix(0.177776,0,0,0.177776,5.92001,4.1103)">
            <path d="M35.763,37.954L66.74,37.933C68.858,37.932 71.036,35.9 71.036,33.783L71.019,9.413L31.642,9.442L31.658,33.81C31.658,35.928 33.645,37.955 35.763,37.954ZM56.121,13.159L64.199,13.155C65.533,13.152 66.609,14.231 66.612,15.562L66.623,31.789C66.622,33.12 65.545,34.201 64.214,34.201L56.132,34.206C54.803,34.209 53.724,33.129 53.722,31.798L53.712,15.568C53.71,14.24 54.788,13.159 56.121,13.159Z" style="fill:none;fill-rule:nonzero;"/>
        </g>
        <g transform="matrix(0.177776,0,0,0.177776,5.92001,4.1103)">
            <path d="M76.351,49.009L23.647,49.009C21.19,49.009 19.198,51.088 19.198,53.653L19.198,87.697L80.803,87.697L80.803,53.652C80.802,51.088 78.81,49.009 76.351,49.009Z" style="fill:none;fill-rule:nonzero;"/>
        </g>
        <g transform="matrix(0.177776,0,0,0.177776,5.92001,4.1103)">
            <path d="M56.132,34.206L64.214,34.201C65.545,34.201 66.622,33.12 66.623,31.789L66.612,15.562C66.609,14.231 65.532,13.151 64.199,13.155L56.121,13.159C54.788,13.159 53.71,14.24 53.711,15.568L53.721,31.798C53.724,33.129 54.803,34.208 56.132,34.206Z" style="fill-rule:nonzero;"/>
        </g>
        <g transform="matrix(0.177776,0,0,0.177776,5.92001,4.1103)">
            <path d="M92.756,22.267C92.754,20.712 92.38,19.436 91.378,18.437C90.733,17.793 83.677,10.745 80.051,7.119C78.772,5.848 76.371,4.998 74.583,4.999C72.794,5 14.325,5.039 14.325,5.039C10.387,5.044 7.198,8.236 7.2,12.172L7.251,87.875C7.254,91.814 10.448,95.001 14.385,95L85.675,94.952C89.612,94.951 92.802,91.755 92.801,87.821C92.8,87.82 92.756,23.228 92.756,22.267ZM71.019,9.414L71.036,33.784C71.036,35.901 68.858,37.932 66.74,37.934L35.763,37.955C33.646,37.956 31.659,35.929 31.659,33.811L31.642,9.442L71.019,9.414ZM80.802,87.697L19.198,87.697L19.198,53.652C19.198,51.088 21.19,49.008 23.647,49.008L76.351,49.008C78.81,49.008 80.802,51.087 80.802,53.652L80.802,87.697Z" style="fill-rule:nonzero;"/>
        </g>
    </g>
</svg>
