<?xml version="1.0" encoding="UTF-8" standalone="no"?>
<!DOCTYPE svg PUBLIC "-//W3C//DTD SVG 1.1//EN" "http://www.w3.org/Graphics/SVG/1.1/DTD/svg11.dtd">
<svg width="100%" height="100%" viewBox="0 0 24 24" version="1.1" xmlns="http://www.w3.org/2000/svg" xmlns:xlink="http://www.w3.org/1999/xlink" xml:space="preserve" xmlns:serif="http://www.serif.com/" style="fill-rule:evenodd;clip-rule:evenodd;stroke-linejoin:round;stroke-miterlimit:2;">
    <g transform="matrix(1,0,0,1,2.587,3.2496)">
        <path d="M13.168,11.006L12.374,11.006L12.098,10.732C13.111,9.556 13.668,8.056 13.667,6.504C13.667,5.65 13.499,4.805 13.172,4.016C12.846,3.228 12.367,2.511 11.763,1.908C11.16,1.304 10.443,0.825 9.654,0.499C8.866,0.172 8.021,0.004 7.167,0.004C6.313,0.004 5.468,0.172 4.68,0.499C3.891,0.825 3.174,1.304 2.571,1.908C1.352,3.127 0.667,4.78 0.667,6.504C0.667,8.228 1.352,9.881 2.571,11.1C3.174,11.704 3.891,12.182 4.68,12.509C5.468,12.836 6.313,13.004 7.167,13.004C8.718,13.005 10.218,12.449 11.394,11.437L11.67,11.711L11.67,12.503L16.67,17.497L18.159,16.008L13.168,11.008L13.168,11.006ZM7.163,11.006C5.97,11.006 4.825,10.532 3.981,9.688C3.137,8.844 2.663,7.699 2.663,6.506C2.663,5.915 2.779,5.33 3.006,4.784C3.232,4.238 3.563,3.742 3.981,3.324C4.825,2.48 5.97,2.006 7.163,2.006C7.754,2.006 8.339,2.122 8.885,2.348C9.431,2.575 9.927,2.906 10.345,3.324C10.763,3.742 11.094,4.238 11.32,4.784C11.547,5.33 11.663,5.915 11.663,6.506C11.663,7.699 11.189,8.844 10.345,9.688C9.501,10.532 8.356,11.006 7.163,11.006Z" style="fill-opacity:0.54;"/>
    </g>
</svg>
