<?xml version="1.0" encoding="UTF-8" standalone="no"?>
<!DOCTYPE svg PUBLIC "-//W3C//DTD SVG 1.1//EN" "http://www.w3.org/Graphics/SVG/1.1/DTD/svg11.dtd">
<svg width="100%" height="100%" viewBox="0 0 66 66" version="1.1" xmlns="http://www.w3.org/2000/svg" xmlns:xlink="http://www.w3.org/1999/xlink" xml:space="preserve" xmlns:serif="http://www.serif.com/" style="fill-rule:evenodd;clip-rule:evenodd;stroke-linejoin:round;stroke-miterlimit:2;">
    <path d="M33,0C51.213,0 66,14.787 66,33C66,51.213 51.213,66 33,66C14.787,66 0,51.213 0,33C0,14.787 14.787,0 33,0ZM37.86,48.826C37.788,48.827 37.717,48.842 37.651,48.87C37.584,48.899 37.524,48.94 37.474,48.991C37.423,49.043 37.384,49.104 37.357,49.171C37.331,49.238 37.318,49.31 37.319,49.382L37.319,49.915C37.318,49.988 37.331,50.06 37.358,50.127C37.385,50.194 37.425,50.256 37.476,50.308C37.527,50.359 37.588,50.4 37.655,50.428C37.722,50.456 37.794,50.471 37.867,50.471C37.939,50.471 38.011,50.456 38.078,50.428C38.145,50.4 38.206,50.359 38.257,50.308C38.308,50.256 38.348,50.194 38.375,50.127C38.402,50.06 38.416,49.988 38.414,49.915L38.414,49.382C38.416,49.309 38.402,49.236 38.375,49.168C38.347,49.1 38.306,49.039 38.255,48.987C38.203,48.935 38.142,48.894 38.074,48.866C38.006,48.839 37.933,48.825 37.86,48.826ZM32.388,49.922C32.242,49.922 32.103,49.864 32,49.762C31.897,49.659 31.84,49.52 31.84,49.374C31.84,49.229 31.897,49.09 32,48.987C32.103,48.884 32.242,48.826 32.388,48.826C32.533,48.826 32.672,48.884 32.775,48.987C32.878,49.09 32.935,49.229 32.935,49.374C32.935,49.52 32.878,49.659 32.775,49.762C32.672,49.864 32.533,49.922 32.388,49.922ZM38.971,47.73C38.899,47.729 38.827,47.743 38.76,47.77C38.692,47.797 38.631,47.837 38.58,47.888C38.528,47.939 38.487,48 38.459,48.067C38.431,48.134 38.417,48.206 38.417,48.278C38.417,48.351 38.431,48.422 38.459,48.489C38.487,48.556 38.528,48.617 38.58,48.668C38.631,48.719 38.692,48.759 38.76,48.786C38.827,48.813 38.899,48.827 38.971,48.826L39.504,48.826C39.577,48.827 39.649,48.813 39.716,48.786C39.783,48.759 39.844,48.719 39.896,48.668C39.948,48.617 39.989,48.556 40.017,48.489C40.045,48.422 40.059,48.351 40.059,48.278C40.059,48.206 40.045,48.134 40.017,48.067C39.989,48 39.948,47.939 39.896,47.888C39.844,47.837 39.783,47.797 39.716,47.77C39.649,47.743 39.577,47.729 39.504,47.73L38.971,47.73ZM36.231,47.73C36.159,47.729 36.087,47.743 36.019,47.77C35.952,47.797 35.891,47.837 35.839,47.888C35.788,47.939 35.747,48 35.719,48.067C35.691,48.134 35.677,48.206 35.677,48.278C35.677,48.351 35.691,48.422 35.719,48.489C35.747,48.556 35.788,48.617 35.839,48.668C35.891,48.719 35.952,48.759 36.019,48.786C36.087,48.813 36.159,48.827 36.231,48.826L36.764,48.826C36.837,48.827 36.908,48.813 36.976,48.786C37.043,48.759 37.104,48.719 37.156,48.668C37.207,48.617 37.248,48.556 37.276,48.489C37.304,48.422 37.319,48.351 37.319,48.278C37.319,48.206 37.304,48.134 37.276,48.067C37.248,48 37.207,47.939 37.156,47.888C37.104,47.837 37.043,47.797 36.976,47.77C36.908,47.743 36.837,47.729 36.764,47.73L36.231,47.73ZM37.86,46.087C37.788,46.087 37.717,46.102 37.651,46.131C37.584,46.159 37.524,46.201 37.474,46.252C37.423,46.304 37.384,46.365 37.357,46.432C37.331,46.499 37.318,46.571 37.319,46.643L37.319,47.176C37.318,47.248 37.331,47.321 37.358,47.388C37.385,47.455 37.425,47.517 37.476,47.568C37.527,47.62 37.588,47.661 37.655,47.689C37.722,47.717 37.794,47.731 37.867,47.731C37.939,47.731 38.011,47.717 38.078,47.689C38.145,47.661 38.206,47.62 38.257,47.568C38.308,47.517 38.348,47.455 38.375,47.388C38.402,47.321 38.416,47.248 38.414,47.176L38.414,46.643C38.416,46.57 38.402,46.497 38.375,46.429C38.347,46.361 38.306,46.3 38.255,46.248C38.203,46.196 38.142,46.155 38.074,46.127C38.006,46.099 37.933,46.086 37.86,46.087ZM42.252,46.635C42.107,46.635 41.967,46.577 41.865,46.474C41.762,46.372 41.704,46.232 41.704,46.087C41.704,45.942 41.762,45.802 41.865,45.7C41.967,45.597 42.107,45.539 42.252,45.539C42.397,45.539 42.537,45.597 42.639,45.7C42.742,45.802 42.8,45.942 42.8,46.087C42.8,46.232 42.742,46.372 42.639,46.474C42.537,46.577 42.397,46.635 42.252,46.635ZM46.079,44.436C45.934,44.438 45.795,44.497 45.694,44.601C45.592,44.705 45.536,44.845 45.538,44.991L45.538,45.524C45.537,45.596 45.55,45.668 45.577,45.736C45.604,45.803 45.644,45.864 45.695,45.916C45.746,45.968 45.807,46.009 45.874,46.037C45.941,46.065 46.013,46.079 46.086,46.079C46.158,46.079 46.23,46.065 46.297,46.037C46.364,46.009 46.425,45.968 46.476,45.916C46.527,45.864 46.567,45.803 46.594,45.736C46.621,45.668 46.635,45.596 46.633,45.524L46.633,44.991C46.634,44.918 46.621,44.845 46.593,44.778C46.565,44.71 46.525,44.649 46.473,44.597C46.421,44.545 46.36,44.504 46.292,44.477C46.225,44.449 46.152,44.436 46.079,44.436ZM25.17,35.749C24.952,35.783 24.735,35.837 24.525,35.908L19.631,37.81L16.5,38.461L17.483,43.817C17.483,43.817 21.898,43.507 24.101,43.636C26.732,43.79 29.385,45.133 31.927,44.771C34.239,44.442 36.483,43.338 37.952,42.3C37.952,42.3 43.021,38.703 45.539,36.88C45.946,36.586 46.291,35.77 45.801,35.104C45.469,34.651 44.699,34.477 44.153,34.816C42.863,35.619 37.56,38.764 37.56,38.764L36.762,38.922C36.767,38.947 36.771,38.971 36.774,38.996C36.831,39.545 36.666,40.141 36.268,40.563C35.87,40.986 35.305,41.214 34.663,41.288C34.635,41.291 34.607,41.292 34.579,41.291L28.496,41.368C28.375,41.371 28.254,41.347 28.143,41.297C28.032,41.248 27.933,41.174 27.853,41.082C27.774,40.989 27.716,40.88 27.683,40.762C27.651,40.645 27.644,40.521 27.665,40.401L28.485,40.543L34.568,40.467C35.586,40.349 36.032,39.79 35.959,39.078C35.812,38.393 35.539,37.837 34.574,37.674L29.985,36.897L27.127,35.922C26.494,35.706 25.822,35.646 25.17,35.75L25.17,35.749ZM44.45,43.34C44.377,43.339 44.305,43.353 44.238,43.38C44.17,43.407 44.109,43.447 44.057,43.498C44.006,43.549 43.964,43.61 43.936,43.677C43.908,43.744 43.894,43.816 43.894,43.888C43.894,43.961 43.908,44.033 43.936,44.1C43.964,44.167 44.006,44.228 44.057,44.279C44.109,44.33 44.17,44.37 44.238,44.397C44.305,44.424 44.377,44.437 44.45,44.436L44.983,44.436C45.056,44.437 45.128,44.424 45.195,44.397C45.263,44.37 45.324,44.33 45.376,44.279C45.427,44.228 45.469,44.167 45.497,44.1C45.525,44.033 45.539,43.961 45.539,43.888C45.539,43.816 45.525,43.744 45.497,43.677C45.469,43.61 45.427,43.549 45.376,43.498C45.324,43.447 45.263,43.407 45.195,43.38C45.128,43.353 45.056,43.339 44.983,43.34L44.45,43.34ZM47.189,43.34C47.116,43.339 47.044,43.353 46.977,43.38C46.909,43.407 46.848,43.447 46.796,43.498C46.744,43.549 46.703,43.61 46.675,43.677C46.647,43.744 46.633,43.816 46.633,43.888C46.633,43.961 46.647,44.033 46.675,44.1C46.703,44.167 46.744,44.228 46.796,44.279C46.848,44.33 46.909,44.37 46.977,44.397C47.044,44.424 47.116,44.437 47.189,44.436L47.722,44.436C47.794,44.437 47.866,44.424 47.934,44.397C48.001,44.37 48.063,44.33 48.114,44.279C48.166,44.228 48.207,44.167 48.235,44.1C48.263,44.033 48.278,43.961 48.278,43.888C48.278,43.816 48.263,43.744 48.235,43.677C48.207,43.61 48.166,43.549 48.114,43.498C48.063,43.447 48.001,43.407 47.934,43.38C47.866,43.353 47.794,43.339 47.722,43.34L47.189,43.34ZM46.079,41.697C45.934,41.699 45.795,41.758 45.694,41.862C45.592,41.966 45.536,42.106 45.538,42.251L45.538,42.784C45.537,42.857 45.55,42.929 45.577,42.996C45.604,43.063 45.644,43.125 45.695,43.176C45.746,43.228 45.807,43.269 45.874,43.297C45.941,43.325 46.013,43.34 46.086,43.34C46.158,43.34 46.23,43.325 46.297,43.297C46.364,43.269 46.425,43.228 46.476,43.176C46.527,43.125 46.567,43.063 46.594,42.996C46.621,42.929 46.635,42.857 46.633,42.784L46.633,42.251C46.634,42.178 46.621,42.106 46.593,42.038C46.565,41.97 46.525,41.909 46.473,41.857C46.421,41.806 46.36,41.765 46.292,41.737C46.225,41.71 46.152,41.696 46.079,41.697ZM41.624,34.075C41.474,34.104 41.328,34.162 41.193,34.249L36.089,37.54C36.124,37.573 36.163,37.605 36.194,37.642C36.337,37.811 36.438,37.99 36.521,38.171L37.24,37.99C37.373,37.912 41.065,35.714 42.881,34.614C42.865,34.589 42.862,34.562 42.844,34.538L42.842,34.539C42.548,34.153 42.071,33.987 41.623,34.075L41.624,34.075ZM38.741,33.505C38.592,33.534 38.447,33.596 38.314,33.687L33.92,36.723L34.707,36.856C34.935,36.893 35.144,36.965 35.342,37.048L39.999,34.045C39.983,34.025 39.982,33.995 39.965,33.973L39.963,33.974C39.668,33.589 39.187,33.414 38.741,33.505L38.741,33.505ZM35.328,33.515C35.18,33.544 35.036,33.606 34.904,33.699L31.254,36.273L32.752,36.526L36.498,33.94C36.201,33.594 35.752,33.428 35.328,33.515L35.328,33.515ZM29.649,34.307C29.504,34.307 29.365,34.249 29.262,34.147C29.159,34.044 29.101,33.904 29.101,33.759C29.101,33.614 29.159,33.474 29.262,33.372C29.365,33.269 29.504,33.211 29.649,33.211C29.795,33.211 29.934,33.269 30.037,33.372C30.139,33.474 30.197,33.614 30.197,33.759C30.197,33.904 30.139,34.044 30.037,34.147C29.934,34.249 29.795,34.307 29.649,34.307ZM35.129,31.842C35.275,31.842 35.414,31.784 35.517,31.681C35.62,31.578 35.677,31.439 35.677,31.294C35.677,31.222 35.663,31.151 35.636,31.084C35.608,31.018 35.568,30.957 35.517,30.907C35.466,30.856 35.406,30.815 35.339,30.788C35.273,30.76 35.201,30.746 35.129,30.746C35.058,30.746 34.986,30.76 34.92,30.788C34.853,30.815 34.793,30.856 34.742,30.907C34.691,30.957 34.651,31.018 34.623,31.084C34.596,31.151 34.582,31.222 34.582,31.294C34.582,31.439 34.639,31.578 34.742,31.681C34.845,31.784 34.984,31.842 35.129,31.842ZM27.133,30.694C27.281,30.665 27.427,30.604 27.559,30.512L31.954,27.476L31.167,27.343C30.939,27.305 30.73,27.234 30.531,27.151L25.875,30.153C25.891,30.174 25.892,30.203 25.909,30.225L25.911,30.225C26.205,30.61 26.687,30.785 27.133,30.694L27.133,30.694ZM30.544,30.683C30.693,30.654 30.837,30.592 30.968,30.5L34.618,27.926L33.121,27.672L29.375,30.258C29.672,30.605 30.121,30.77 30.544,30.683L30.544,30.683ZM24.249,30.123C24.398,30.094 24.545,30.036 24.68,29.949L29.783,26.658C29.749,26.625 29.709,26.593 29.678,26.556C29.535,26.387 29.435,26.208 29.352,26.027L28.633,26.207C28.5,26.286 24.808,28.483 22.992,29.584C23.008,29.609 23.011,29.636 23.029,29.66L23.031,29.659C23.325,30.044 23.802,30.211 24.249,30.122L24.249,30.123ZM40.702,28.449C40.92,28.416 41.137,28.362 41.347,28.29L46.241,26.388L49.372,25.737L48.389,20.382C48.389,20.382 43.974,20.691 41.771,20.563C39.14,20.409 36.487,19.066 33.945,19.428C31.633,19.757 29.389,20.861 27.92,21.898C27.92,21.898 22.851,25.496 20.333,27.319C19.926,27.613 19.581,28.429 20.071,29.095C20.403,29.548 21.173,29.722 21.719,29.382C23.009,28.579 28.312,25.435 28.312,25.435L29.11,25.277C29.105,25.252 29.101,25.228 29.098,25.203C29.041,24.654 29.206,24.057 29.604,23.636C30.002,23.213 30.567,22.985 31.209,22.911C31.237,22.908 31.265,22.907 31.293,22.908L37.376,22.831C37.497,22.828 37.618,22.852 37.729,22.901C37.84,22.951 37.939,23.025 38.019,23.117C38.098,23.21 38.156,23.319 38.189,23.436C38.221,23.554 38.228,23.678 38.207,23.798L37.387,23.656L31.304,23.732C30.286,23.85 29.84,24.408 29.913,25.121C30.06,25.805 30.332,26.361 31.298,26.525L35.887,27.302L38.745,28.277C39.378,28.493 40.05,28.553 40.702,28.449L40.702,28.449ZM20.876,19.24C20.804,19.241 20.733,19.256 20.667,19.284C20.6,19.313 20.54,19.354 20.49,19.406C20.44,19.457 20.4,19.518 20.373,19.586C20.347,19.653 20.334,19.724 20.335,19.796L20.335,20.329C20.334,20.402 20.347,20.474 20.374,20.541C20.401,20.609 20.442,20.67 20.493,20.722C20.544,20.773 20.604,20.814 20.671,20.842C20.738,20.87 20.81,20.885 20.883,20.885C20.955,20.885 21.027,20.87 21.094,20.842C21.161,20.814 21.222,20.773 21.273,20.722C21.324,20.67 21.364,20.609 21.391,20.541C21.418,20.474 21.432,20.402 21.431,20.329L21.431,19.796C21.432,19.723 21.418,19.65 21.391,19.582C21.363,19.515 21.323,19.453 21.271,19.401C21.219,19.349 21.158,19.308 21.09,19.281C21.022,19.253 20.95,19.239 20.876,19.24ZM27.458,19.788C27.604,19.788 27.743,19.731 27.846,19.628C27.949,19.525 28.006,19.386 28.006,19.24C28.006,19.095 27.949,18.956 27.846,18.853C27.743,18.75 27.604,18.693 27.458,18.693C27.313,18.693 27.174,18.75 27.071,18.853C26.968,18.956 26.91,19.095 26.91,19.24C26.91,19.386 26.968,19.525 27.071,19.628C27.174,19.731 27.313,19.788 27.458,19.788ZM19.246,18.144C19.173,18.143 19.101,18.156 19.034,18.184C18.967,18.211 18.906,18.251 18.854,18.302C18.802,18.353 18.762,18.414 18.734,18.48C18.706,18.547 18.691,18.619 18.691,18.692C18.691,18.764 18.706,18.836 18.734,18.903C18.762,18.97 18.802,19.03 18.854,19.081C18.906,19.132 18.967,19.173 19.034,19.2C19.101,19.227 19.173,19.24 19.246,19.24L19.779,19.24C19.851,19.24 19.923,19.227 19.99,19.2C20.058,19.173 20.119,19.132 20.171,19.081C20.222,19.03 20.263,18.97 20.291,18.903C20.319,18.836 20.333,18.764 20.333,18.692C20.333,18.619 20.319,18.547 20.291,18.48C20.263,18.414 20.222,18.353 20.171,18.302C20.119,18.251 20.058,18.211 19.99,18.184C19.923,18.156 19.851,18.143 19.779,18.144L19.246,18.144ZM21.988,18.144C21.915,18.143 21.843,18.156 21.776,18.184C21.709,18.211 21.648,18.251 21.596,18.302C21.544,18.353 21.503,18.414 21.476,18.48C21.448,18.547 21.433,18.619 21.433,18.692C21.433,18.764 21.448,18.836 21.476,18.903C21.503,18.97 21.544,19.03 21.596,19.081C21.648,19.132 21.709,19.173 21.776,19.2C21.843,19.227 21.915,19.24 21.988,19.24L22.521,19.24C22.593,19.24 22.665,19.227 22.732,19.2C22.8,19.173 22.861,19.132 22.912,19.081C22.964,19.03 23.005,18.97 23.033,18.903C23.061,18.836 23.075,18.764 23.075,18.692C23.075,18.619 23.061,18.547 23.033,18.48C23.005,18.414 22.964,18.353 22.912,18.302C22.861,18.251 22.8,18.211 22.732,18.184C22.665,18.156 22.593,18.143 22.521,18.144L21.988,18.144ZM20.876,16.5C20.804,16.501 20.733,16.516 20.667,16.545C20.6,16.573 20.54,16.614 20.49,16.666C20.44,16.718 20.4,16.779 20.373,16.846C20.347,16.913 20.334,16.984 20.335,17.057L20.335,17.589C20.334,17.662 20.347,17.734 20.374,17.802C20.401,17.869 20.442,17.93 20.493,17.982C20.544,18.034 20.604,18.075 20.671,18.103C20.738,18.131 20.81,18.145 20.883,18.145C20.955,18.145 21.027,18.131 21.094,18.103C21.161,18.075 21.222,18.034 21.273,17.982C21.324,17.93 21.364,17.869 21.391,17.802C21.418,17.734 21.432,17.662 21.431,17.589L21.431,17.057C21.432,16.983 21.418,16.911 21.391,16.843C21.363,16.775 21.323,16.713 21.271,16.661C21.219,16.609 21.158,16.568 21.09,16.541C21.022,16.513 20.95,16.499 20.876,16.5ZM25.265,18.145C25.337,18.145 25.408,18.13 25.475,18.103C25.541,18.075 25.602,18.035 25.653,17.984C25.703,17.933 25.744,17.873 25.771,17.806C25.799,17.74 25.813,17.668 25.813,17.597C25.813,17.451 25.755,17.312 25.653,17.209C25.55,17.106 25.411,17.049 25.265,17.049C25.12,17.049 24.981,17.106 24.878,17.209C24.775,17.312 24.717,17.451 24.717,17.597C24.717,17.668 24.731,17.74 24.759,17.806C24.787,17.873 24.827,17.933 24.878,17.984C24.929,18.035 24.989,18.075 25.055,18.103C25.122,18.13 25.193,18.145 25.265,18.145Z" style="fill:rgb(101,151,162);"/>
</svg>
