<?xml version="1.0" encoding="UTF-8" standalone="no"?>
<!DOCTYPE svg PUBLIC "-//W3C//DTD SVG 1.1//EN" "http://www.w3.org/Graphics/SVG/1.1/DTD/svg11.dtd">
<svg width="100%" height="100%" viewBox="0 0 124 124" version="1.1" xmlns="http://www.w3.org/2000/svg" xmlns:xlink="http://www.w3.org/1999/xlink" xml:space="preserve" xmlns:serif="http://www.serif.com/" style="fill-rule:evenodd;clip-rule:evenodd;stroke-linejoin:round;stroke-miterlimit:2;">
    <g transform="matrix(1,0,0,1,12,12.5)">
        <path d="M94.737,8.553L78.29,8.553L78.29,1.974C78.29,0.883 77.405,0 76.316,0C75.226,0 74.342,0.883 74.342,1.974L74.342,8.553L25.658,8.553L25.658,1.974C25.658,0.883 24.774,0 23.684,0C22.595,0 21.711,0.883 21.711,1.974L21.711,8.553L5.263,8.553C2.368,8.553 0,10.921 0,13.816L0,92.763C0,95.658 2.368,98.026 5.263,98.026L94.737,98.026C97.632,98.026 100,95.658 100,92.763L100,13.816C100,10.921 97.632,8.553 94.737,8.553ZM3.947,13.816C3.947,13.103 4.55,12.5 5.263,12.5L21.711,12.5L21.711,19.079C21.711,20.17 22.595,21.053 23.684,21.053C24.774,21.053 25.658,20.17 25.658,19.079L25.658,12.5L74.342,12.5L74.342,19.079C74.342,20.17 75.226,21.053 76.316,21.053C77.405,21.053 78.29,20.17 78.29,19.079L78.29,12.5L94.737,12.5C95.45,12.5 96.053,13.103 96.053,13.816L96.053,27.632L3.947,27.632L3.947,13.816ZM94.737,94.079L5.263,94.079C4.55,94.079 3.947,93.476 3.947,92.763L3.947,31.579L96.053,31.579L96.053,92.763C96.053,93.476 95.45,94.079 94.737,94.079Z" style="fill:rgb(109,144,90);fill-rule:nonzero;"/>
    </g>
    <g transform="matrix(1,0,0,1,12,12.5)">
        <path d="M61.187,54.39C60.341,53.701 59.097,53.83 58.41,54.675L48.016,67.459L41.322,61.883C40.484,61.186 39.241,61.299 38.543,62.136C37.846,62.972 37.959,64.217 38.796,64.915L47.022,71.77C47.429,72.107 47.952,72.269 48.476,72.219C49,72.167 49.485,71.908 49.818,71.499L61.473,57.163C62.16,56.321 62.033,55.078 61.187,54.39Z" style="fill:rgb(109,144,90);fill-rule:nonzero;"/>
    </g>
    <g transform="matrix(1,0,0,1,12,12.5)">
        <path d="M50,40.132C37.646,40.132 27.632,50.146 27.632,62.5C27.632,74.854 37.646,84.868 50,84.868C62.354,84.868 72.369,74.854 72.369,62.5C72.369,50.146 62.354,40.132 50,40.132ZM50,80.921C39.842,80.921 31.579,72.658 31.579,62.5C31.579,52.342 39.842,44.079 50,44.079C60.158,44.079 68.421,52.343 68.421,62.5C68.421,72.658 60.158,80.921 50,80.921Z" style="fill:rgb(109,144,90);fill-rule:nonzero;"/>
    </g>
</svg>
