<?xml version="1.0" encoding="UTF-8" standalone="no"?>
<!DOCTYPE svg PUBLIC "-//W3C//DTD SVG 1.1//EN" "http://www.w3.org/Graphics/SVG/1.1/DTD/svg11.dtd">
<svg width="100%" height="100%" viewBox="0 0 58 58" version="1.1" xmlns="http://www.w3.org/2000/svg" xmlns:xlink="http://www.w3.org/1999/xlink" xml:space="preserve" xmlns:serif="http://www.serif.com/" style="fill-rule:evenodd;clip-rule:evenodd;stroke-linejoin:round;stroke-miterlimit:2;">
    <g transform="matrix(1,0,0,1,3.85295,10)">
        <path d="M3.353,0C1.515,0 0,1.515 0,3.353L0,34.647C0,36.485 1.515,38 3.353,38L46.941,38C48.779,38 50.294,36.485 50.294,34.647L50.294,3.353C50.294,1.515 48.779,0 46.941,0L3.353,0ZM3.353,2.235L46.941,2.235C47.58,2.235 48.059,2.714 48.059,3.353L48.059,30.072L38.262,19.349C38.036,19.109 37.7,18.978 37.371,19C37.089,19.016 36.814,19.144 36.62,19.349L28.622,27.836L17.044,14.896C16.797,14.615 16.401,14.472 16.031,14.53C15.785,14.569 15.553,14.695 15.385,14.879L2.235,29.006L2.235,3.353C2.235,2.714 2.714,2.235 3.353,2.235ZM29.059,7.824C26.603,7.824 24.588,9.838 24.588,12.294C24.588,14.75 26.603,16.765 29.059,16.765C31.515,16.765 33.529,14.75 33.529,12.294C33.529,9.838 31.515,7.824 29.059,7.824ZM29.059,10.059C30.307,10.059 31.294,11.046 31.294,12.294C31.294,13.542 30.307,14.53 29.059,14.53C27.811,14.53 26.824,13.542 26.824,12.294C26.824,11.046 27.811,10.059 29.059,10.059ZM16.188,17.306L32.709,35.765L3.353,35.765C2.714,35.765 2.235,35.286 2.235,34.647L2.235,32.289L16.188,17.306ZM37.424,21.759L48.059,33.39L48.059,34.647C48.059,35.286 47.58,35.765 46.941,35.765L35.712,35.765L30.124,29.513L37.424,21.759Z" style="fill:rgb(109,144,90);fill-rule:nonzero;"/>
    </g>
</svg>
