<svg width="48" height="48" viewBox="0 0 48 48" fill="none" xmlns="http://www.w3.org/2000/svg">
<circle cx="24" cy="24" r="24" transform="rotate(-180 24 24)" fill="#6D905A"/>
<path d="M27.1437 24.1519L19.9941 31.2959C19.7412 31.5495 19.5994 31.8932 19.6 32.2514C19.6005 32.6096 19.7433 32.953 19.9969 33.2059C20.2506 33.4588 20.5943 33.6006 20.9525 33.6C21.3107 33.5995 21.654 33.4567 21.9069 33.2031L30.0069 25.1119C30.2517 24.8662 30.3923 24.5356 30.3996 24.1889C30.4069 23.8422 30.2803 23.506 30.0461 23.2503L21.9125 15.0959C21.6596 14.8422 21.3163 14.6994 20.9581 14.6989C20.5999 14.6984 20.2562 14.8402 20.0025 15.0931C19.7489 15.346 19.6061 15.6893 19.6056 16.0475C19.605 16.4057 19.7468 16.7494 19.9997 17.0031L27.1437 24.1519Z" fill="white"/>
</svg>
