<?xml version="1.0" encoding="UTF-8" standalone="no"?>
<!DOCTYPE svg PUBLIC "-//W3C//DTD SVG 1.1//EN" "http://www.w3.org/Graphics/SVG/1.1/DTD/svg11.dtd">
<svg width="100%" height="100%" viewBox="0 0 16 16" version="1.1" xmlns="http://www.w3.org/2000/svg" xmlns:xlink="http://www.w3.org/1999/xlink" xml:space="preserve" xmlns:serif="http://www.serif.com/" style="fill-rule:evenodd;clip-rule:evenodd;stroke-linejoin:round;stroke-miterlimit:2;">
    <g transform="matrix(1,0,0,1,0.0444895,2.48013)">
        <path d="M5.185,12.776C6.345,12.787 7.496,12.566 8.571,12.127C9.645,11.687 10.621,11.039 11.441,10.218C12.262,9.397 12.911,8.421 13.35,7.347C13.789,6.273 14.01,5.122 14,3.962L14,3.542C14.586,3.095 15.096,2.556 15.511,1.946C14.948,2.191 14.355,2.361 13.748,2.451C14.372,2.058 14.846,1.466 15.091,0.771C14.484,1.109 13.835,1.363 13.16,1.527C12.876,1.207 12.527,0.951 12.136,0.778C11.745,0.604 11.321,0.516 10.893,0.52C10.073,0.532 9.29,0.863 8.71,1.443C8.131,2.023 7.799,2.806 7.787,3.626C7.768,3.853 7.797,4.082 7.871,4.297C6.636,4.238 5.428,3.915 4.328,3.35C3.227,2.786 2.26,1.992 1.492,1.024C1.215,1.51 1.071,2.06 1.072,2.619C1.083,3.126 1.21,3.624 1.442,4.075C1.675,4.526 2.007,4.918 2.414,5.221C1.91,5.211 1.417,5.066 0.988,4.801C0.987,5.52 1.238,6.216 1.699,6.769C2.159,7.321 2.798,7.694 3.506,7.823C3.232,7.897 2.948,7.925 2.666,7.907C2.466,7.921 2.266,7.892 2.079,7.823C2.284,8.445 2.677,8.989 3.202,9.379C3.728,9.77 4.362,9.989 5.017,10.006C3.913,10.867 2.556,11.339 1.156,11.348C0.901,11.362 0.646,11.333 0.4,11.264C1.789,12.273 3.469,12.803 5.185,12.775" style="fill:rgb(48,60,72);"/>
    </g>
</svg>
