<svg width="72" height="72" viewBox="0 0 72 72" fill="none" xmlns="http://www.w3.org/2000/svg">
<circle cx="36" cy="36" r="36" fill="#6597A2" fill-opacity="0.16"/>
<path d="M49.7538 45.5697C48.7739 40.262 44.1603 36.3833 38.7709 36.3833H33.1774C27.6656 36.3833 23.0111 40.3845 22.1129 45.8147C21.6638 48.5502 23.7869 50.9999 26.5224 50.9999H45.3852C48.1615 50.9999 50.2846 48.4685 49.7946 45.733L49.7538 45.5697Z" fill="#6597A2"/>
<path d="M30.238 32.0148C33.4226 35.1994 38.567 35.281 41.8333 32.1781L41.9149 32.0964C44.7321 29.4017 45.0179 25.0331 42.5274 22.0118C39.1386 17.9289 32.851 18.0106 29.5847 22.1751C27.2983 25.1147 27.5433 29.3201 30.1972 31.9739L30.238 32.0148Z" fill="#6597A2"/>
</svg>
