<?xml version="1.0" encoding="UTF-8" standalone="no"?>
<!DOCTYPE svg PUBLIC "-//W3C//DTD SVG 1.1//EN" "http://www.w3.org/Graphics/SVG/1.1/DTD/svg11.dtd">
<svg width="100%" height="100%" viewBox="0 0 58 58" version="1.1" xmlns="http://www.w3.org/2000/svg" xmlns:xlink="http://www.w3.org/1999/xlink" xml:space="preserve" xmlns:serif="http://www.serif.com/" style="fill-rule:evenodd;clip-rule:evenodd;stroke-linejoin:round;stroke-miterlimit:2;">
    <g transform="matrix(1,0,0,1,8.1895,9)">
        <path d="M36.933,3.198L30.843,3.198L30.843,1.446C30.843,0.657 30.186,0 29.398,0C28.609,0 27.952,0.657 27.952,1.446L27.952,3.198L13.713,3.198L13.713,1.446C13.713,0.657 13.056,0 12.267,0C11.479,0 10.822,0.657 10.822,1.446L10.822,3.198L4.688,3.198C2.103,3.198 0,5.301 0,7.886L0,35.312C0,37.897 2.103,40 4.688,40L36.933,40C39.518,40 41.621,37.897 41.621,35.312L41.621,7.842C41.621,5.301 39.518,3.198 36.933,3.198ZM38.73,35.268C38.73,36.232 37.941,37.021 36.933,37.021L4.688,37.021C3.724,37.021 2.892,36.232 2.892,35.268L2.892,16.692L38.686,16.692L38.686,35.268L38.73,35.268ZM38.73,13.757L2.892,13.757L2.892,7.842C2.892,6.878 3.68,6.09 4.688,6.09L10.778,6.09L10.778,7.842C10.778,8.631 11.435,9.288 12.223,9.288C13.012,9.288 13.669,8.631 13.669,7.842L13.669,6.09L27.908,6.09L27.908,7.842C27.908,8.631 28.565,9.288 29.354,9.288C30.142,9.288 30.8,8.631 30.8,7.842L30.8,6.09L36.889,6.09C37.853,6.09 38.686,6.878 38.686,7.842L38.686,13.757L38.73,13.757Z" style="fill:rgb(109,144,90);fill-rule:nonzero;"/>
    </g>
    <g transform="matrix(1,0,0,1,8,9)">
        <path d="M18.313,32.333C18.576,32.639 18.97,32.814 19.364,32.814C19.759,32.814 20.153,32.639 20.416,32.333L28.302,23.921C28.872,23.351 28.828,22.431 28.214,21.862C27.645,21.336 26.725,21.336 26.155,21.949L19.364,29.222L15.728,25.323C15.159,24.753 14.282,24.709 13.669,25.235C13.099,25.805 13.056,26.725 13.581,27.294L18.313,32.333Z" style="fill:rgb(109,144,90);fill-rule:nonzero;"/>
    </g>
</svg>
