<?xml version="1.0" encoding="UTF-8" standalone="no"?>
<!DOCTYPE svg PUBLIC "-//W3C//DTD SVG 1.1//EN" "http://www.w3.org/Graphics/SVG/1.1/DTD/svg11.dtd">
<svg width="100%" height="100%" viewBox="0 0 24 24" version="1.1" xmlns="http://www.w3.org/2000/svg" xmlns:xlink="http://www.w3.org/1999/xlink" xml:space="preserve" xmlns:serif="http://www.serif.com/" style="fill-rule:evenodd;clip-rule:evenodd;stroke-linejoin:round;stroke-miterlimit:2;">
    <g transform="matrix(1,0,0,1,1.00001,3)">
        <path d="M18.998,11.289C18.449,11.288 17.91,11.437 17.44,11.721C16.97,12.004 16.587,12.412 16.332,12.898L11.721,10.568L11.721,5.909C12.368,5.744 12.944,5.37 13.356,4.844C13.769,4.318 13.996,3.671 14.002,3.002C14.002,2.206 13.686,1.442 13.123,0.879C12.56,0.316 11.796,0 11,0C10.204,0 9.44,0.316 8.877,0.879C8.314,1.442 7.998,2.206 7.998,3.002C8.004,3.671 8.231,4.318 8.643,4.844C9.056,5.37 9.631,5.744 10.279,5.909L10.279,10.568L5.668,12.898C5.331,12.248 4.769,11.744 4.086,11.48C3.404,11.216 2.649,11.21 1.962,11.463C1.276,11.717 0.706,12.212 0.359,12.856C0.012,13.501 -0.088,14.249 0.079,14.962C0.245,15.674 0.666,16.302 1.262,16.726C1.858,17.15 2.588,17.342 3.316,17.266C4.044,17.189 4.719,16.85 5.214,16.311C5.708,15.772 5.99,15.071 6.004,14.339L11,11.817L15.996,14.339C16.005,14.931 16.189,15.506 16.525,15.994C16.86,16.481 17.333,16.859 17.882,17.078C18.431,17.298 19.034,17.351 19.613,17.23C20.192,17.109 20.722,16.819 21.137,16.397C21.552,15.975 21.834,15.44 21.946,14.859C22.058,14.278 21.996,13.677 21.767,13.131C21.538,12.586 21.154,12.119 20.661,11.791C20.168,11.464 19.59,11.289 18.998,11.289Z" style="fill:rgb(119,77,117);fill-rule:nonzero;"/>
    </g>
</svg>
