<?xml version="1.0" encoding="UTF-8" standalone="no"?>
<!DOCTYPE svg PUBLIC "-//W3C//DTD SVG 1.1//EN" "http://www.w3.org/Graphics/SVG/1.1/DTD/svg11.dtd">
<svg width="100%" height="100%" viewBox="0 0 64 53" version="1.1" xmlns="http://www.w3.org/2000/svg" xmlns:xlink="http://www.w3.org/1999/xlink" xml:space="preserve" xmlns:serif="http://www.serif.com/" style="fill-rule:evenodd;clip-rule:evenodd;stroke-linejoin:round;stroke-miterlimit:2;">
    <g>
        <path d="M58.55,52.13L5.13,52.13C2.316,52.13 0,49.814 0,47L0,5.13C-0,2.316 2.316,0 5.13,0L58.55,0C61.364,-0 63.68,2.316 63.68,5.13L63.68,47C63.68,49.814 61.364,52.13 58.55,52.13ZM5.13,4C4.51,4 4,4.51 4,5.13L4,47C4,47.62 4.51,48.13 5.13,48.13L58.55,48.13C59.166,48.125 59.67,47.616 59.67,47L59.67,5.13C59.67,4.514 59.166,4.005 58.55,4L5.13,4Z" style="fill:rgb(0,55,66);fill-opacity:0.2;fill-rule:nonzero;"/>
        <path d="M12.08,43.46L51.59,43.46C51.606,43.46 51.622,43.461 51.638,43.461C52.565,43.461 53.328,42.698 53.328,41.771C53.328,41.411 53.213,41.06 53,40.77L47.55,33.37C47.233,32.931 46.722,32.67 46.18,32.67C45.739,32.67 45.316,32.842 45,33.15L39.4,38.48L26.4,20.83C26.082,20.397 25.575,20.14 25.038,20.14C24.466,20.14 23.931,20.43 23.62,20.91L10.62,40.85C10.442,41.124 10.347,41.444 10.347,41.771C10.347,42.698 11.11,43.461 12.037,43.461C12.052,43.461 12.066,43.46 12.08,43.46Z" style="fill:rgb(0,55,66);fill-opacity:0.2;fill-rule:nonzero;"/>
        <circle cx="44.13" cy="15.12" r="5.93" style="fill:rgb(0,55,66);fill-opacity:0.2;"/>
    </g>
</svg>
