<svg width="322" height="30" viewBox="0 0 322 30" fill="none" xmlns="http://www.w3.org/2000/svg">
<path d="M22.7209 23H9.72094L7.24094 29H0.600937L13.0809 0.999998H19.4809L32.0009 29H25.2009L22.7209 23ZM20.6809 18.08L16.2409 7.36L11.8009 18.08H20.6809ZM55.4659 14.44C57.0659 14.9467 58.3193 15.8 59.2259 17C60.1326 18.1733 60.5859 19.6267 60.5859 21.36C60.5859 23.8133 59.6259 25.7067 57.7059 27.04C55.8126 28.3467 53.0393 29 49.3859 29H34.9059V0.999998H48.5859C51.9993 0.999998 54.6126 1.65333 56.4259 2.96C58.2659 4.26666 59.1859 6.04 59.1859 8.28C59.1859 9.64 58.8526 10.8533 58.1859 11.92C57.5459 12.9867 56.6393 13.8267 55.4659 14.44ZM41.3459 5.88V12.48H47.7859C49.3859 12.48 50.5993 12.2 51.4259 11.64C52.2526 11.08 52.6659 10.2533 52.6659 9.16C52.6659 8.06667 52.2526 7.25333 51.4259 6.72C50.5993 6.16 49.3859 5.88 47.7859 5.88H41.3459ZM48.9059 24.12C50.6126 24.12 51.8926 23.84 52.7459 23.28C53.6259 22.72 54.0659 21.8533 54.0659 20.68C54.0659 18.36 52.3459 17.2 48.9059 17.2H41.3459V24.12H48.9059ZM78.8919 29.48C76.0385 29.48 73.4519 28.8667 71.1319 27.64C68.8385 26.3867 67.0252 24.6667 65.6919 22.48C64.3852 20.2667 63.7319 17.7733 63.7319 15C63.7319 12.2267 64.3852 9.74667 65.6919 7.56C67.0252 5.34667 68.8385 3.62667 71.1319 2.4C73.4519 1.14667 76.0519 0.52 78.9319 0.52C81.3585 0.52 83.5452 0.946666 85.4919 1.8C87.4652 2.65333 89.1185 3.88 90.4519 5.48L86.2919 9.32C84.3985 7.13333 82.0519 6.04 79.2519 6.04C77.5185 6.04 75.9719 6.42667 74.6119 7.2C73.2519 7.94667 72.1852 9 71.4119 10.36C70.6652 11.72 70.2919 13.2667 70.2919 15C70.2919 16.7333 70.6652 18.28 71.4119 19.64C72.1852 21 73.2519 22.0667 74.6119 22.84C75.9719 23.5867 77.5185 23.96 79.2519 23.96C82.0519 23.96 84.3985 22.8533 86.2919 20.64L90.4519 24.48C89.1185 26.1067 87.4652 27.3467 85.4919 28.2C83.5185 29.0533 81.3185 29.48 78.8919 29.48ZM119.556 29.48C116.703 29.48 114.116 28.8667 111.796 27.64C109.503 26.3867 107.689 24.6667 106.356 22.48C105.049 20.2667 104.396 17.7733 104.396 15C104.396 12.2267 105.049 9.74667 106.356 7.56C107.689 5.34667 109.503 3.62667 111.796 2.4C114.116 1.14667 116.716 0.52 119.596 0.52C122.023 0.52 124.209 0.946666 126.156 1.8C128.129 2.65333 129.783 3.88 131.116 5.48L126.956 9.32C125.063 7.13333 122.716 6.04 119.916 6.04C118.183 6.04 116.636 6.42667 115.276 7.2C113.916 7.94667 112.849 9 112.076 10.36C111.329 11.72 110.956 13.2667 110.956 15C110.956 16.7333 111.329 18.28 112.076 19.64C112.849 21 113.916 22.0667 115.276 22.84C116.636 23.5867 118.183 23.96 119.916 23.96C122.716 23.96 125.063 22.8533 126.956 20.64L131.116 24.48C129.783 26.1067 128.129 27.3467 126.156 28.2C124.183 29.0533 121.983 29.48 119.556 29.48ZM148.466 29.48C145.559 29.48 142.933 28.8533 140.586 27.6C138.266 26.3467 136.439 24.6267 135.106 22.44C133.799 20.2267 133.146 17.7467 133.146 15C133.146 12.2533 133.799 9.78667 135.106 7.6C136.439 5.38667 138.266 3.65333 140.586 2.4C142.933 1.14667 145.559 0.52 148.466 0.52C151.373 0.52 153.986 1.14667 156.306 2.4C158.626 3.65333 160.453 5.38667 161.786 7.6C163.119 9.78667 163.786 12.2533 163.786 15C163.786 17.7467 163.119 20.2267 161.786 22.44C160.453 24.6267 158.626 26.3467 156.306 27.6C153.986 28.8533 151.373 29.48 148.466 29.48ZM148.466 23.96C150.119 23.96 151.613 23.5867 152.946 22.84C154.279 22.0667 155.319 21 156.066 19.64C156.839 18.28 157.226 16.7333 157.226 15C157.226 13.2667 156.839 11.72 156.066 10.36C155.319 9 154.279 7.94667 152.946 7.2C151.613 6.42667 150.119 6.04 148.466 6.04C146.813 6.04 145.319 6.42667 143.986 7.2C142.653 7.94667 141.599 9 140.826 10.36C140.079 11.72 139.706 13.2667 139.706 15C139.706 16.7333 140.079 18.28 140.826 19.64C141.599 21 142.653 22.0667 143.986 22.84C145.319 23.5867 146.813 23.96 148.466 23.96ZM194.136 29L194.096 12.2L185.856 26.04H182.936L174.736 12.56V29H168.656V0.999998H174.016L184.496 18.4L194.816 0.999998H200.136L200.216 29H194.136ZM218.979 0.999998C221.459 0.999998 223.606 1.41333 225.419 2.24C227.259 3.06667 228.672 4.24 229.659 5.76C230.646 7.28 231.139 9.08 231.139 11.16C231.139 13.2133 230.646 15.0133 229.659 16.56C228.672 18.08 227.259 19.2533 225.419 20.08C223.606 20.88 221.459 21.28 218.979 21.28H213.339V29H206.859V0.999998H218.979ZM218.619 16C220.566 16 222.046 15.5867 223.059 14.76C224.072 13.9067 224.579 12.7067 224.579 11.16C224.579 9.58667 224.072 8.38667 223.059 7.56C222.046 6.70667 220.566 6.28 218.619 6.28H213.339V16H218.619ZM252.799 23H239.799L237.319 29H230.679L243.159 0.999998H249.559L262.079 29H255.279L252.799 23ZM250.759 18.08L246.319 7.36L241.879 18.08H250.759ZM290.664 0.999998V29H285.344L271.384 12V29H264.984V0.999998H270.344L284.264 18V0.999998H290.664ZM310.729 19.08V29H304.249V19L293.409 0.999998H300.289L307.769 13.44L315.249 0.999998H321.609L310.729 19.08Z" fill="white"/>
</svg>
