<svg width="316" height="76" viewBox="0 0 316 76" fill="none" xmlns="http://www.w3.org/2000/svg">
<path d="M37.9244 75.8489C58.8695 75.8489 75.8489 58.8695 75.8489 37.9244C75.8489 16.9794 58.8695 0 37.9244 0C16.9794 0 0 16.9794 0 37.9244C0 58.8695 16.9794 75.8489 37.9244 75.8489Z" fill="#7A9D67"/>
<path fill-rule="evenodd" clip-rule="evenodd" d="M17.15 22.7791C21.4069 18.5222 28.2846 18.5222 32.5416 22.7791C36.7985 27.036 36.7985 33.9137 32.5416 38.1707L25.6 45.1122C25.2428 45.4694 24.7584 45.6701 24.2532 45.6701C23.7481 45.6701 23.2636 45.4694 22.9064 45.1122L16.5574 38.7632C12.3005 34.5063 12.3005 27.6286 16.5574 23.3717L17.15 22.7791ZM29.8479 25.4727C27.0787 22.7035 22.6129 22.7035 19.8436 25.4727L19.2511 26.0653C16.4818 28.8346 16.4818 33.3003 19.2511 36.0696L24.2532 41.0717L29.8479 35.477C32.6172 32.7078 32.6172 28.242 29.8479 25.4727Z" fill="white"/>
<path fill-rule="evenodd" clip-rule="evenodd" d="M56.1755 26.7001C52.8137 23.3383 47.3744 23.3383 44.0126 26.7001L26.9474 43.7653L39.1104 55.9282L56.1755 38.8631C59.5374 35.5012 59.5374 30.062 56.1755 26.7001ZM41.319 24.0065C46.1685 19.157 54.0197 19.157 58.8692 24.0065C63.7187 28.856 63.7187 36.7072 58.8692 41.5567L40.4572 59.9687C40.1 60.3259 39.6155 60.5266 39.1104 60.5266C38.6052 60.5266 38.1208 60.3259 37.7636 59.9687L22.907 45.1121C22.5498 44.7549 22.3491 44.2705 22.3491 43.7653C22.3491 43.2601 22.5498 42.7757 22.907 42.4185L41.319 24.0065Z" fill="white"/>
<path fill-rule="evenodd" clip-rule="evenodd" d="M141.837 36.6031C136.946 36.6031 132.982 40.5676 132.982 45.4582C132.982 50.3487 136.946 54.3132 141.837 54.3132C146.727 54.3132 150.692 50.3487 150.692 45.4582C150.692 40.5676 146.727 36.6031 141.837 36.6031ZM128.428 45.4582C128.428 38.0528 134.431 32.0496 141.837 32.0496C149.242 32.0496 155.245 38.0528 155.245 45.4582C155.245 52.8635 149.242 58.8668 141.837 58.8668C134.431 58.8668 128.428 52.8635 128.428 45.4582Z" fill="white"/>
<path fill-rule="evenodd" clip-rule="evenodd" d="M231.094 48.2855H249.938C251.195 48.2855 252.214 47.2661 252.214 46.0087C252.214 38.858 247.278 32.6001 239.652 32.6001C232.258 32.6001 226.244 38.6139 226.244 46.0087C226.244 53.4034 232.257 59.4173 239.652 59.4173C243.769 59.4173 246.956 58.1365 249.4 55.8998C250.328 55.051 250.392 53.6109 249.543 52.6832C248.695 51.7554 247.254 51.6914 246.327 52.5402C244.793 53.9436 242.731 54.8638 239.652 54.8638C235.559 54.8638 232.102 52.067 231.094 48.2855ZM239.652 37.1536C235.559 37.1536 232.102 39.9504 231.094 43.7319H247.426C246.587 39.8163 243.58 37.1536 239.652 37.1536Z" fill="white"/>
<path fill-rule="evenodd" clip-rule="evenodd" d="M302.591 36.6033C297.7 36.6033 293.736 40.5679 293.736 45.4584C293.736 50.3489 297.7 54.3135 302.591 54.3135C307.481 54.3135 311.446 50.3489 311.446 45.4584C311.446 40.5679 307.481 36.6033 302.591 36.6033ZM289.182 45.4584C289.182 38.053 295.185 32.0498 302.591 32.0498C309.996 32.0498 315.999 38.053 315.999 45.4584C315.999 52.8638 309.996 58.867 302.591 58.867C295.185 58.867 289.182 52.8638 289.182 45.4584Z" fill="white"/>
<path fill-rule="evenodd" clip-rule="evenodd" d="M313.723 22.6533C314.98 22.6533 316 23.6727 316 24.9301V45.4584C316 46.7158 314.98 47.7351 313.723 47.7351C312.466 47.7351 311.446 46.7158 311.446 45.4584V24.9301C311.446 23.6727 312.466 22.6533 313.723 22.6533Z" fill="white"/>
<path fill-rule="evenodd" clip-rule="evenodd" d="M96.0054 37.0355C96.0054 35.7781 97.0247 34.7588 98.2821 34.7588H110.853C117.522 34.7588 122.992 40.1737 122.992 46.8976L122.992 46.9154C122.94 53.5732 117.532 58.9941 110.853 58.9941H98.2821C97.0247 58.9941 96.0054 57.9747 96.0054 56.7173V37.0355ZM100.559 39.3123V54.4406H110.853C115.007 54.4406 118.401 51.0623 118.438 46.8887C118.434 42.6965 115.017 39.3123 110.853 39.3123H100.559Z" fill="white"/>
<path fill-rule="evenodd" clip-rule="evenodd" d="M96.0054 22.391C96.0054 21.1336 97.0247 20.1143 98.2821 20.1143H108.356C113.244 20.1143 117.278 24.087 117.278 29.0363V30.4754C117.278 35.3589 113.225 39.3127 108.356 39.3127H98.2821C97.0247 39.3127 96.0054 38.2934 96.0054 37.0359V22.391ZM100.559 24.6678V34.7592H108.356C110.767 34.7592 112.724 32.7873 112.724 30.4754V29.0363C112.724 26.6207 110.748 24.6678 108.356 24.6678H100.559Z" fill="white"/>
<path fill-rule="evenodd" clip-rule="evenodd" d="M191.578 22.3905C191.578 21.1331 192.597 20.1138 193.855 20.1138H204.056C214.028 20.1138 220.977 28.2462 220.977 37.882V41.2629C221.022 50.9195 214.055 58.994 204.056 58.994H193.855C192.597 58.994 191.578 57.9746 191.578 56.7172V22.3905ZM196.132 24.6673V54.4405H204.056C211.239 54.4405 216.461 48.72 216.424 41.2794L216.424 41.2681V37.882C216.424 30.4179 211.183 24.6673 204.056 24.6673H196.132Z" fill="white"/>
<path fill-rule="evenodd" clip-rule="evenodd" d="M172.269 36.6031C168.447 36.6031 165.361 39.6894 165.361 43.5111V56.7593C165.361 58.0167 164.342 59.0361 163.084 59.0361C161.827 59.0361 160.808 58.0167 160.808 56.7593V43.5111C160.808 37.1746 165.933 32.0496 172.269 32.0496C178.606 32.0496 183.731 37.1746 183.731 43.5111V56.7593C183.731 58.0167 182.711 59.0361 181.454 59.0361C180.197 59.0361 179.177 58.0167 179.177 56.7593V43.5111C179.177 39.6894 176.091 36.6031 172.269 36.6031Z" fill="white"/>
<path fill-rule="evenodd" clip-rule="evenodd" d="M262.586 48.2855H281.429C282.687 48.2855 283.706 47.2661 283.706 46.0087C283.706 38.858 278.77 32.6001 271.144 32.6001C263.749 32.6001 257.735 38.6139 257.735 46.0087C257.735 53.4034 263.749 59.4173 271.144 59.4173C275.26 59.4173 278.447 58.1365 280.892 55.8998C281.82 55.051 281.884 53.6109 281.035 52.6832C280.186 51.7554 278.746 51.6914 277.818 52.5402C276.285 53.9436 274.223 54.8638 271.144 54.8638C267.051 54.8638 263.594 52.067 262.586 48.2855ZM271.144 37.1536C267.051 37.1536 263.594 39.9504 262.586 43.7319H278.917C278.078 39.8163 275.071 37.1536 271.144 37.1536Z" fill="white"/>
</svg>
