<?xml version="1.0" encoding="UTF-8" standalone="no"?>
<!DOCTYPE svg PUBLIC "-//W3C//DTD SVG 1.1//EN" "http://www.w3.org/Graphics/SVG/1.1/DTD/svg11.dtd">
<svg width="100%" height="100%" viewBox="0 0 124 124" version="1.1" xmlns="http://www.w3.org/2000/svg" xmlns:xlink="http://www.w3.org/1999/xlink" xml:space="preserve" xmlns:serif="http://www.serif.com/" style="fill-rule:evenodd;clip-rule:evenodd;">
    <g transform="matrix(1,0,0,1,26,11)">
        <path d="M60.048,24.88C60.048,11.688 49.325,1 36.168,1C23.011,1 12.288,11.688 12.288,24.88C12.288,38.072 23.011,48.76 36.168,48.76C49.325,48.76 60.048,38.072 60.048,24.88ZM14.934,24.88C14.934,13.169 24.457,3.646 36.168,3.646C47.879,3.646 57.403,13.169 57.403,24.88C57.403,36.591 47.879,46.115 36.168,46.115C24.457,46.115 14.934,36.591 14.934,24.88Z" style="fill:rgb(109,144,90);fill-rule:nonzero;stroke:rgb(109,144,90);stroke-width:1px;"/>
    </g>
    <g transform="matrix(1,0,0,1,26,11)">
        <path d="M1.106,73.734C1.035,73.91 1,74.086 1,74.263L1,99.66C1,100.4 1.6,101 2.34,101L70.065,101C70.806,101 71.406,100.4 71.406,99.66L71.406,74.263C71.406,74.086 71.37,73.91 71.3,73.734C70.171,54.862 52.676,53.169 36.238,53.169C19.801,53.169 2.235,54.862 1.106,73.734ZM36.167,98.319C35.356,98.319 34.686,97.649 34.686,96.838C34.686,96.026 35.356,95.356 36.167,95.356C36.979,95.356 37.649,96.026 37.649,96.838C37.649,97.649 36.979,98.319 36.167,98.319ZM36.167,55.85C39.801,55.85 43.187,55.956 46.256,56.203L36.167,74.369L26.079,56.203C29.148,55.956 32.534,55.85 36.167,55.85ZM23.222,56.52L35.039,77.755C35.286,78.178 35.709,78.425 36.203,78.425C36.697,78.425 37.12,78.178 37.367,77.755L49.183,56.52C61.741,58.108 68.76,62.975 68.76,75.674L68.76,98.319L40.048,98.319C40.224,97.861 40.365,97.367 40.365,96.838C40.365,94.545 38.496,92.711 36.238,92.711C33.981,92.711 32.111,94.58 32.111,96.838C32.111,97.367 32.217,97.861 32.429,98.319L3.61,98.319L3.61,75.674C3.61,62.94 10.665,58.072 23.222,56.52Z" style="fill:rgb(109,144,90);fill-rule:nonzero;stroke:rgb(109,144,90);stroke-width:1px;"/>
    </g>
    <g transform="matrix(1,0,0,1,26,11)">
        <path d="M36.167,89.713C38.46,89.713 40.294,87.843 40.294,85.55C40.294,83.258 38.425,81.423 36.167,81.423C33.91,81.423 32.04,83.293 32.04,85.55C32.04,87.808 33.874,89.713 36.167,89.713ZM36.167,84.069C36.978,84.069 37.649,84.739 37.649,85.55C37.649,86.362 36.978,87.067 36.167,87.067C35.356,87.067 34.686,86.397 34.686,85.55C34.686,84.704 35.356,84.069 36.167,84.069Z" style="fill:rgb(109,144,90);fill-rule:nonzero;stroke:rgb(109,144,90);stroke-width:1px;"/>
    </g>
</svg>
