<?xml version="1.0" encoding="UTF-8" standalone="no"?>
<!DOCTYPE svg PUBLIC "-//W3C//DTD SVG 1.1//EN" "http://www.w3.org/Graphics/SVG/1.1/DTD/svg11.dtd">
<svg width="100%" height="100%" viewBox="0 0 124 124" version="1.1" xmlns="http://www.w3.org/2000/svg" xmlns:xlink="http://www.w3.org/1999/xlink" xml:space="preserve" xmlns:serif="http://www.serif.com/" style="fill-rule:evenodd;clip-rule:evenodd;stroke-linejoin:round;stroke-miterlimit:2;">
    <g transform="matrix(1,0,0,1,22,12)">
        <path d="M4.774,34.189C4.774,39.553 9.123,43.902 14.487,43.902C19.852,43.902 24.201,39.553 24.201,34.189C24.201,28.824 19.852,24.476 14.487,24.476C9.123,24.476 4.774,28.824 4.774,34.189ZM14.487,28.1C17.845,28.1 20.576,30.831 20.576,34.189C20.576,37.547 17.845,40.278 14.487,40.278C11.13,40.278 8.398,37.547 8.398,34.189C8.398,30.831 11.13,28.1 14.487,28.1Z" style="fill:rgb(109,144,90);fill-rule:nonzero;"/>
    </g>
    <g transform="matrix(1,0,0,1,22,12)">
        <path d="M65.66,43.902C71.024,43.902 75.373,39.553 75.373,34.189C75.373,28.824 71.024,24.476 65.66,24.476C60.295,24.476 55.946,28.824 55.946,34.189C55.946,39.553 60.295,43.902 65.66,43.902ZM65.66,28.1C69.017,28.1 71.749,30.831 71.749,34.189C71.749,37.547 69.017,40.278 65.66,40.278C62.302,40.278 59.571,37.547 59.571,34.189C59.571,30.831 62.303,28.1 65.66,28.1Z" style="fill:rgb(109,144,90);fill-rule:nonzero;"/>
    </g>
    <g transform="matrix(1,0,0,1,22,12)">
        <path d="M19.164,78.299L19.164,95.3C19.164,95.883 18.672,96.375 18.089,96.375L10.145,96.375C9.562,96.375 9.07,95.883 9.07,95.3L9.07,74.798L4.933,74.798C4.35,74.798 3.857,74.305 3.857,73.722L3.857,57.043C3.857,53.462 6.771,50.55 10.351,50.55L17.882,50.55C18.135,50.55 18.376,50.596 18.623,50.624L18.623,46.963C18.377,46.945 18.132,46.925 17.882,46.925L10.351,46.925C4.786,46.925 0.233,51.479 0.233,57.043L0.233,73.722C0.233,76.307 2.347,78.422 4.933,78.422L5.445,78.422L5.445,95.3C5.445,97.884 7.56,100 10.145,100L18.089,100C20.673,100 22.789,97.885 22.789,95.3L22.789,78.422L23.301,78.422C23.656,78.422 24,78.374 24.333,78.299L19.164,78.299Z" style="fill:rgb(109,144,90);fill-rule:nonzero;"/>
    </g>
    <g transform="matrix(1,0,0,1,22,12)">
        <path d="M61.317,100L69.26,100C71.845,100 73.961,97.885 73.961,95.3L73.961,78.422L74.473,78.422C77.057,78.422 79.173,76.308 79.173,73.722L79.173,57.043C79.173,51.479 74.619,46.925 69.055,46.925L61.524,46.925C61.274,46.925 61.028,46.945 60.783,46.963L60.783,50.624C61.029,50.595 61.271,50.55 61.524,50.55L69.055,50.55C72.636,50.55 75.548,53.463 75.548,57.043L75.548,73.722C75.548,74.305 75.056,74.798 74.473,74.798L70.336,74.798L70.336,95.3C70.336,95.883 69.844,96.375 69.26,96.375L61.317,96.375C60.734,96.375 60.242,95.883 60.242,95.3L60.242,78.299L55.073,78.299C55.406,78.374 55.749,78.422 56.105,78.422L56.617,78.422L56.617,95.3C56.617,97.885 58.733,100 61.317,100Z" style="fill:rgb(109,144,90);fill-rule:nonzero;"/>
    </g>
    <g transform="matrix(1,0,0,1,22,12)">
        <path d="M40.073,35.667C45.438,35.667 49.787,31.318 49.787,25.954C49.787,20.589 45.438,16.24 40.073,16.24C34.709,16.24 30.36,20.589 30.36,25.954C30.361,31.318 34.71,35.667 40.073,35.667ZM40.073,19.866C43.431,19.866 46.162,22.597 46.162,25.955C46.162,29.313 43.431,32.044 40.073,32.044C36.715,32.044 33.984,29.313 33.984,25.955C33.984,22.597 36.717,19.866 40.073,19.866Z" style="fill:rgb(109,144,90);fill-rule:nonzero;"/>
    </g>
    <g transform="matrix(1,0,0,1,22,12)">
        <path d="M51.409,76.206C54.259,76.206 56.592,73.874 56.592,71.024L56.592,52.631C56.592,50.547 56.002,48.599 54.997,46.926C53.043,43.671 49.487,41.475 45.435,41.475L34.714,41.475C30.662,41.475 27.106,43.671 25.152,46.926C24.146,48.599 23.557,50.548 23.557,52.631L23.557,71.022C23.557,73.873 25.889,76.205 28.739,76.205L29.305,76.205L29.305,94.817C29.305,97.667 31.637,99.999 34.487,99.999L45.663,99.999C48.513,99.999 50.845,97.667 50.845,94.817L50.845,76.206L51.409,76.206ZM47.219,72.58L47.219,94.818C47.219,95.663 46.506,96.376 45.662,96.376L34.485,96.376C33.641,96.376 32.927,95.663 32.927,94.818L32.927,72.581L28.737,72.581C27.893,72.581 27.179,71.868 27.179,71.024L27.179,52.631C27.179,48.478 30.558,45.098 34.713,45.098L45.434,45.098C49.587,45.098 52.967,48.477 52.967,52.631L52.967,71.022C52.967,71.867 52.254,72.58 51.409,72.58L47.219,72.58Z" style="fill:rgb(109,144,90);fill-rule:nonzero;"/>
    </g>
    <g transform="matrix(1,0,0,1,22,12)">
        <path d="M12.311,9.713C12.311,15.078 16.66,19.427 22.024,19.427C27.389,19.427 31.738,15.078 31.738,9.713C31.738,4.349 27.389,0 22.024,0C16.66,0 12.311,4.349 12.311,9.713ZM22.024,3.624C25.382,3.624 28.113,6.356 28.113,9.713C28.113,13.071 25.382,15.802 22.024,15.802C18.667,15.802 15.935,13.071 15.935,9.713C15.935,6.356 18.667,3.624 22.024,3.624Z" style="fill:rgb(109,144,90);fill-rule:nonzero;"/>
    </g>
    <g transform="matrix(1,0,0,1,22,12)">
        <path d="M58.123,19.426C63.487,19.426 67.836,15.077 67.836,9.712C67.836,4.348 63.487,0 58.123,0C52.758,0 48.409,4.349 48.409,9.713C48.409,15.078 52.758,19.426 58.123,19.426ZM58.123,3.624C61.48,3.624 64.211,6.356 64.211,9.713C64.211,13.071 61.48,15.802 58.123,15.802C54.765,15.802 52.034,13.071 52.034,9.713C52.034,6.356 54.766,3.624 58.123,3.624Z" style="fill:rgb(109,144,90);fill-rule:nonzero;"/>
    </g>
</svg>
