<?xml version="1.0" encoding="UTF-8" standalone="no"?>
<!DOCTYPE svg PUBLIC "-//W3C//DTD SVG 1.1//EN" "http://www.w3.org/Graphics/SVG/1.1/DTD/svg11.dtd">
<svg width="100%" height="100%" viewBox="0 0 124 124" version="1.1" xmlns="http://www.w3.org/2000/svg" xmlns:xlink="http://www.w3.org/1999/xlink" xml:space="preserve" xmlns:serif="http://www.serif.com/" style="fill-rule:evenodd;clip-rule:evenodd;">
    <g transform="matrix(1,0,0,1,14,12)">
        <path d="M58.265,54.773L55.277,56.112L58.468,56.848C76.862,61.093 91.012,75.944 94.206,94.685C94.472,97.056 92.922,98.508 91.075,98.834C90.143,98.999 89.204,98.853 88.468,98.421C87.761,98.004 87.18,97.288 86.963,96.155C83.977,76.804 67.591,62.282 47.487,62.282C27.729,62.282 11.358,76.82 8.012,96.153L8.008,96.179L8.004,96.204C7.862,97.339 7.338,98.034 6.694,98.434C6.021,98.851 5.129,98.998 4.22,98.835C2.421,98.511 0.864,97.061 1.131,94.685C4.326,75.94 18.479,61.09 36.512,56.847L39.609,56.118L36.723,54.779C26.916,50.225 19.613,40.442 19.613,28.975C19.613,13.646 32.159,1.1 47.487,1.1C63.169,1.1 75.362,13.637 75.362,28.975C75.362,40.459 68.405,50.227 58.265,54.773ZM47.487,7.955C35.988,7.955 26.829,17.528 26.829,28.975C26.829,40.448 36.014,49.633 47.487,49.633C58.934,49.633 68.507,40.474 68.507,28.975C68.507,17.502 58.96,7.955 47.487,7.955Z" style="fill:rgb(109,144,90);fill-rule:nonzero;stroke:white;stroke-width:2.2px;"/>
    </g>
</svg>
